<?xml version="1.0" encoding="UTF-8" standalone="no"?>
<svg
   xmlns:dc="http://purl.org/dc/elements/1.1/"
   xmlns:cc="http://creativecommons.org/ns#"
   xmlns:rdf="http://www.w3.org/1999/02/22-rdf-syntax-ns#"
   xmlns:svg="http://www.w3.org/2000/svg"
   xmlns="http://www.w3.org/2000/svg"
   xmlns:sodipodi="http://sodipodi.sourceforge.net/DTD/sodipodi-0.dtd"
   xmlns:inkscape="http://www.inkscape.org/namespaces/inkscape"
   width="23.3194in"
   height="17.3889in"
   viewBox="0 0 1679 1252"
   version="1.1"
   id="svg58"
   sodipodi:docname="icon.svg"
   inkscape:version="0.92.5 (2060ec1f9f, 2020-04-08)">
  <metadata
     id="metadata64">
    <rdf:RDF>
      <cc:Work
         rdf:about="">
        <dc:format>image/svg+xml</dc:format>
        <dc:type
           rdf:resource="http://purl.org/dc/dcmitype/StillImage" />
        <dc:title></dc:title>
      </cc:Work>
    </rdf:RDF>
  </metadata>
  <defs
     id="defs62" />
  <sodipodi:namedview
     pagecolor="#ffffff"
     bordercolor="#666666"
     borderopacity="1"
     objecttolerance="10"
     gridtolerance="10"
     guidetolerance="10"
     inkscape:pageopacity="0"
     inkscape:pageshadow="2"
     inkscape:window-width="1177"
     inkscape:window-height="1126"
     id="namedview60"
     showgrid="false"
     inkscape:zoom="0.25944645"
     inkscape:cx="1146.9111"
     inkscape:cy="245.2071"
     inkscape:window-x="1977"
     inkscape:window-y="98"
     inkscape:window-maximized="0"
     inkscape:current-layer="svg58" />
  <path
     id="Selection #1"
     fill="none"
     stroke="black"
     stroke-width="1"
     d="M 717.00,220.00            C 715.70,214.67 716.30,214.80 715.83,210.00              714.36,194.85 715.32,181.93 718.20,167.00              720.34,155.88 723.40,144.45 727.87,134.00              751.68,78.42 806.62,39.22 866.91,35.91              866.91,35.91 879.00,35.04 879.00,35.04              939.20,37.40 993.85,69.33 1021.25,124.00              1033.67,148.78 1039.32,174.34 1039.00,202.00              1038.79,219.51 1034.50,236.49 1029.00,253.00              1029.00,253.00 1063.00,264.00 1063.00,264.00              1063.00,264.00 1067.57,249.00 1067.57,249.00              1067.57,249.00 1072.71,223.00 1072.71,223.00              1077.75,182.18 1070.35,139.29 1050.69,103.00              1040.54,84.26 1026.56,66.59 1011.00,52.09              972.87,16.57 924.54,-0.08 873.00,0.00              859.68,0.02 837.87,3.18 825.00,6.74              793.15,15.57 766.44,31.06 742.00,53.17              707.90,84.02 684.12,133.12 680.91,179.00              680.91,179.00 680.00,191.00 680.00,191.00              680.00,191.00 680.83,215.00 680.83,215.00              681.04,217.21 680.71,221.74 682.02,223.40              683.89,225.76 688.45,224.63 691.00,224.27              691.00,224.27 717.00,220.00 717.00,220.00 Z            M 189.00,550.00            C 155.75,547.31 122.42,546.61 89.00,547.00              72.07,547.20 49.97,551.94 36.00,561.78              14.39,577.00 7.32,600.12 3.87,625.00              -1.46,663.35 -0.46,712.65 0.00,752.00              0.00,752.00 0.91,762.00 0.91,762.00              1.84,775.63 2.06,780.64 6.67,794.00              8.40,799.01 12.36,807.56 16.21,811.12              20.58,815.14 32.62,823.77 38.00,826.05              47.95,830.25 79.51,832.98 91.00,832.89              91.00,832.89 141.00,832.89 141.00,832.89              141.00,832.89 151.17,832.89 151.17,832.89              151.17,832.89 161.00,834.00 161.00,834.00              161.00,834.00 161.00,842.00 161.00,842.00              161.13,853.10 168.30,877.51 171.58,889.00              185.51,937.81 210.46,981.69 246.04,1017.99              255.24,1027.37 265.79,1036.10 276.00,1044.39              288.14,1054.24 300.92,1062.84 314.00,1071.34              323.17,1077.30 334.04,1084.45 345.00,1086.00              345.00,1086.00 337.26,1101.00 337.26,1101.00              337.26,1101.00 326.31,1127.00 326.31,1127.00              324.97,1130.73 321.80,1138.41 321.60,1142.00              321.03,1144.69 321.59,1146.42 321.60,1149.00              322.74,1158.57 323.50,1162.22 328.41,1171.00              334.07,1181.12 346.87,1185.81 357.00,1189.99              357.00,1189.99 426.00,1214.34 426.00,1214.34              464.14,1226.53 505.79,1238.76 545.00,1246.60              545.00,1246.60 570.00,1250.42 570.00,1250.42              573.32,1250.87 581.07,1252.10 584.00,1251.66              587.57,1251.12 595.80,1247.52 599.00,1245.65              602.49,1243.62 609.90,1237.93 612.49,1234.91              624.53,1220.86 633.54,1188.38 637.00,1170.00              637.00,1170.00 638.00,1173.00 638.00,1173.00              638.00,1173.00 657.00,1174.83 657.00,1174.83              657.00,1174.83 708.00,1178.91 708.00,1178.91              758.56,1182.37 809.26,1185.00 860.00,1185.00              860.00,1185.00 910.00,1185.00 910.00,1185.00              910.00,1185.00 929.00,1184.00 929.00,1184.00              936.37,1183.91 941.21,1182.69 948.00,1180.00              946.21,1186.52 949.19,1193.60 950.88,1200.00              955.87,1218.88 968.07,1234.46 985.00,1244.00              990.90,1247.32 997.97,1251.02 1004.83,1250.87              1029.65,1250.32 1052.87,1244.75 1077.00,1239.42              1077.00,1239.42 1168.00,1216.71 1168.00,1216.71              1187.18,1211.26 1217.25,1204.24 1231.78,1190.48              1239.69,1182.99 1240.05,1164.31 1240.00,1154.00              1239.93,1139.69 1236.02,1121.51 1231.31,1108.00              1231.31,1108.00 1224.00,1087.00 1224.00,1087.00              1224.00,1087.00 1235.00,1084.90 1235.00,1084.90              1254.77,1078.35 1271.26,1067.39 1288.00,1055.42              1309.58,1039.99 1321.05,1030.95 1340.00,1012.00              1340.00,1012.00 1356.83,995.00 1356.83,995.00              1364.50,986.51 1382.00,963.68 1388.31,954.00              1420.46,904.62 1438.92,847.37 1445.16,789.00              1445.16,789.00 1448.00,754.00 1448.00,754.00              1448.00,754.00 1448.00,703.00 1448.00,703.00              1447.96,676.90 1437.67,628.34 1428.00,604.00              1433.76,601.87 1440.37,597.35 1446.00,594.31              1446.00,594.31 1475.00,580.22 1475.00,580.22              1478.48,578.58 1490.97,572.20 1494.00,572.03              1497.68,571.81 1503.52,576.29 1507.00,578.03              1514.73,581.89 1524.54,585.00 1533.00,586.79              1540.40,588.35 1546.58,588.58 1554.00,589.09              1554.00,589.09 1562.00,589.96 1562.00,589.96              1567.03,590.16 1568.63,589.39 1573.00,589.09              1591.73,587.80 1608.31,584.43 1626.00,577.95              1640.39,572.67 1655.73,564.36 1667.00,553.91              1669.33,551.75 1675.70,545.54 1677.05,543.00              1679.16,539.04 1676.73,536.96 1674.26,534.00              1674.26,534.00 1662.00,520.00 1662.00,520.00              1660.46,518.32 1657.29,514.20 1654.91,514.20              1651.40,514.20 1646.19,521.47 1643.83,523.96              1637.77,530.36 1627.13,537.04 1619.00,540.58              1606.47,546.03 1589.66,550.97 1576.00,551.87              1576.00,551.87 1550.00,551.87 1550.00,551.87              1550.00,551.87 1536.00,550.00 1536.00,550.00              1550.08,541.89 1563.15,533.43 1572.71,520.00              1608.60,469.57 1546.84,386.85 1485.00,409.95              1476.97,412.95 1473.72,414.74 1467.00,420.26              1459.96,426.05 1455.85,431.85 1451.81,440.00              1447.91,447.84 1445.11,461.23 1445.00,470.00              1444.72,494.21 1454.21,523.84 1469.00,543.00              1458.41,546.02 1424.73,563.82 1414.00,570.00              1412.35,563.93 1409.05,558.60 1406.25,553.00              1399.85,540.22 1390.61,524.92 1382.67,513.00              1348.90,462.35 1299.53,416.35 1249.00,382.67              1222.18,364.79 1194.48,349.24 1166.00,334.22              1166.00,334.22 1118.00,310.42 1118.00,310.42              1066.58,288.85 1013.80,274.46 959.00,264.58              959.00,264.58 936.00,260.27 936.00,260.27              936.00,260.27 900.00,255.72 900.00,255.72              900.00,255.72 862.00,251.17 862.00,251.17              862.00,251.17 839.00,249.91 839.00,249.91              839.00,249.91 814.00,248.00 814.00,248.00              814.00,248.00 797.00,247.00 797.00,247.00              797.00,247.00 769.00,247.00 769.00,247.00              769.00,247.00 753.00,246.00 753.00,246.00              753.00,246.00 736.00,246.00 736.00,246.00              736.00,246.00 719.00,247.00 719.00,247.00              719.00,247.00 696.00,247.00 696.00,247.00              696.00,247.00 681.00,248.00 681.00,248.00              681.00,248.00 667.00,248.91 667.00,248.91              667.00,248.91 643.00,250.17 643.00,250.17              643.00,250.17 589.00,256.75 589.00,256.75              582.05,257.91 561.84,262.13 556.00,261.78              550.90,261.47 541.20,254.05 537.00,250.87              537.00,250.87 496.00,219.14 496.00,219.14              465.92,197.58 441.54,185.25 406.00,175.00              396.12,172.15 374.84,167.12 365.00,167.00              365.00,167.00 345.00,166.00 345.00,166.00              331.89,165.98 318.75,166.69 306.00,169.87              301.47,171.00 291.84,173.18 288.51,176.11              285.05,179.15 281.91,193.41 282.46,198.00              283.78,209.05 299.35,231.87 305.22,243.00              318.30,267.79 333.67,306.82 334.00,335.00              334.08,341.91 334.09,352.81 330.84,359.00              327.96,364.49 317.16,373.14 312.00,377.12              312.00,377.12 279.00,404.09 279.00,404.09              268.73,413.61 258.39,423.15 249.46,434.00              232.11,455.08 218.84,478.66 206.75,503.00              200.80,514.99 189.28,537.13 189.00,550.00 Z            M 323.00,201.00            C 333.57,203.80 340.28,202.98 351.00,203.00              351.00,203.00 368.00,204.29 368.00,204.29              392.16,207.30 423.77,218.02 445.00,229.86              465.73,241.43 484.52,256.01 503.00,270.80              511.32,277.46 532.38,293.36 542.00,296.36              546.51,297.76 554.21,298.05 559.00,298.00              559.00,298.00 604.00,291.42 604.00,291.42              628.20,288.00 652.61,286.02 677.00,284.96              677.00,284.96 688.00,283.96 688.00,283.96              688.00,283.96 706.00,283.96 706.00,283.96              706.00,283.96 722.00,283.00 722.00,283.00              722.00,283.00 768.00,283.00 768.00,283.00              768.00,283.00 785.00,284.00 785.00,284.00              785.00,284.00 843.00,286.91 843.00,286.91              843.00,286.91 865.00,288.17 865.00,288.17              865.00,288.17 893.00,291.85 893.00,291.85              893.00,291.85 929.00,296.27 929.00,296.27              929.00,296.27 946.00,299.58 946.00,299.58              985.12,306.63 1024.34,315.16 1062.00,328.08              1081.51,334.77 1103.48,343.29 1122.00,352.26              1122.00,352.26 1153.00,368.70 1153.00,368.70              1186.74,386.53 1218.38,404.66 1249.00,427.63              1320.14,480.98 1371.69,544.38 1398.02,630.00              1404.96,652.54 1409.37,675.49 1411.09,699.00              1411.09,699.00 1412.00,709.00 1412.00,709.00              1412.00,709.00 1412.00,739.00 1412.00,739.00              1412.00,739.00 1411.00,759.00 1411.00,759.00              1410.97,777.56 1404.70,817.63 1400.11,836.00              1386.21,891.60 1358.09,942.05 1317.96,982.99              1317.96,982.99 1309.00,991.09 1309.00,991.09              1288.47,1010.21 1266.11,1027.93 1242.00,1042.40              1242.00,1042.40 1203.18,1066.52 1203.18,1066.52              1199.28,1070.01 1190.73,1083.00 1188.97,1088.00              1186.03,1096.36 1193.45,1110.79 1196.31,1119.00              1201.83,1134.85 1204.00,1151.25 1204.00,1168.00              1204.00,1168.00 1161.00,1180.85 1161.00,1180.85              1126.28,1190.25 1091.27,1199.49 1056.00,1206.60              1056.00,1206.60 1021.00,1213.15 1021.00,1213.15              1018.17,1213.49 1010.48,1214.61 1008.00,1214.30              1005.51,1213.99 1003.13,1212.53 1001.00,1211.26              989.38,1204.36 987.18,1192.80 983.71,1181.00              981.40,1173.19 975.54,1156.92 969.62,1151.63              967.52,1149.75 962.74,1147.56 960.00,1146.79              956.18,1145.70 949.17,1145.95 945.00,1146.00              945.00,1146.00 935.00,1146.91 935.00,1146.91              935.00,1146.91 907.00,1148.00 907.00,1148.00              907.00,1148.00 891.00,1149.00 891.00,1149.00              891.00,1149.00 857.00,1149.00 857.00,1149.00              857.00,1149.00 843.00,1148.00 843.00,1148.00              843.00,1148.00 819.00,1148.00 819.00,1148.00              819.00,1148.00 802.00,1147.00 802.00,1147.00              802.00,1147.00 771.00,1146.00 771.00,1146.00              771.00,1146.00 758.00,1145.00 758.00,1145.00              758.00,1145.00 737.00,1144.00 737.00,1144.00              737.00,1144.00 726.00,1143.09 726.00,1143.09              726.00,1143.09 705.00,1141.91 705.00,1141.91              705.00,1141.91 667.00,1138.83 667.00,1138.83              667.00,1138.83 645.00,1136.74 645.00,1136.74              630.13,1136.20 611.72,1140.81 604.44,1155.00              604.44,1155.00 595.33,1186.00 595.33,1186.00              593.15,1192.56 590.47,1201.00 587.20,1207.00              585.85,1209.48 583.48,1213.36 580.71,1214.39              578.40,1215.25 567.00,1213.27 564.00,1212.75              564.00,1212.75 523.00,1203.87 523.00,1203.87              487.63,1195.03 452.59,1184.86 418.00,1173.33              418.00,1173.33 362.04,1152.56 362.04,1152.56              360.65,1151.88 359.07,1151.10 358.38,1149.61              357.05,1146.72 361.71,1136.14 363.01,1133.00              363.01,1133.00 378.94,1097.00 378.94,1097.00              381.42,1090.39 383.55,1085.38 379.64,1079.00              365.88,1056.55 344.10,1047.72 323.00,1033.65              299.44,1017.93 278.02,999.06 259.17,978.00              231.83,947.46 215.78,909.95 204.71,871.00              204.71,871.00 193.71,827.00 193.71,827.00              192.43,822.45 189.90,812.78 186.59,809.63              185.17,808.29 180.89,806.05 179.00,805.03              176.30,803.56 169.78,800.35 167.00,799.52              154.41,795.75 127.18,797.02 113.00,797.00              113.00,797.00 96.00,796.00 96.00,796.00              85.39,795.98 74.49,795.95 64.00,794.25              56.53,793.03 50.17,792.59 44.39,787.13              38.96,782.01 37.09,765.39 37.00,758.00              37.00,758.00 37.00,737.00 37.00,737.00              37.00,737.00 36.00,721.00 36.00,721.00              36.00,721.00 36.00,700.00 36.00,700.00              36.00,700.00 37.00,684.00 37.00,684.00              37.00,684.00 37.00,666.00 37.00,666.00              37.02,654.35 39.86,625.94 43.00,615.00              45.57,606.03 47.63,599.67 55.04,593.22              63.91,585.49 78.75,584.36 90.00,583.97              90.00,583.97 113.00,583.00 113.00,583.00              113.00,583.00 129.00,584.00 129.00,584.00              129.00,584.00 145.00,584.00 145.00,584.00              145.00,584.00 159.00,585.00 159.00,585.00              173.97,585.17 182.07,585.40 197.00,582.40              201.26,581.54 207.46,580.72 210.67,577.70              213.40,575.14 216.03,569.44 217.75,566.00              217.75,566.00 228.42,543.00 228.42,543.00              236.90,523.45 246.15,504.10 257.42,486.00              273.34,460.44 289.87,442.32 313.00,423.08              328.13,410.50 353.38,393.49 363.22,377.00              367.22,370.30 371.17,349.00 370.99,341.00              370.99,341.00 369.96,332.00 369.96,332.00              369.96,332.00 369.96,323.00 369.96,323.00              367.26,296.41 356.80,266.19 345.69,242.00              345.69,242.00 330.28,213.00 330.28,213.00              328.25,209.47 323.74,203.97 323.00,201.00 Z            M 1502.00,443.32            C 1524.63,440.86 1544.83,466.63 1543.96,488.00              1543.39,502.02 1530.92,510.20 1520.00,516.80              1517.17,518.51 1506.71,524.95 1504.04,525.05              1501.26,525.16 1499.80,523.02 1498.36,520.98              1496.11,517.81 1490.80,507.70 1489.23,504.00              1481.10,484.82 1474.17,449.66 1502.00,443.32 Z            M 391.00,513.24            C 373.40,516.69 360.12,523.57 351.32,540.00              331.54,576.95 362.00,622.13 404.00,615.56              412.05,614.30 419.24,611.71 426.00,607.10              430.90,603.76 435.80,598.85 439.22,594.00              443.12,588.46 445.65,581.61 447.00,575.00              453.45,543.32 430.26,514.29 398.00,513.24              395.36,512.94 393.60,513.11 391.00,513.24 Z" />
  <path
     style="stroke-width:1.36272204"
     d="m 745.40237,1663.8272 c -58.38112,-9.3136 -131.20129,-29.7484 -227.38612,-63.8092 -51.37695,-18.1935 -63.01783,-23.2166 -71.8781,-31.0157 -12.78139,-11.2507 -19.40301,-37.4172 -13.81362,-54.587 3.7228,-11.436 19.21619,-47.6191 24.52852,-57.2837 2.6557,-4.8314 4.82854,-9.1252 4.82854,-9.5417 0,-0.4164 -2.29959,-1.1769 -5.11021,-1.6899 -17.63348,-3.2184 -70.80476,-38.7942 -111.0846,-74.3244 -39.87714,-35.175 -73.67003,-82.1214 -96.24467,-133.7069 -15.53942,-35.5093 -31.27538,-90.3207 -32.50034,-113.205 -0.55654,-10.3969 -1.17682,-13.4185 -2.91337,-14.192 -1.21346,-0.5405 -30.72126,-1.4394 -65.57287,-1.9976 C 62.987197,1107.1083 55.058381,1105.662 31.061434,1087.0964 19.064306,1077.8146 13.939952,1070.1053 8.5813217,1053.2765 2.9144826,1035.4798 1.1466481,1011.385 1.1116385,951.46798 1.0415846,831.57532 9.1282586,788.78676 37.239146,760.30858 c 7.840046,-7.94248 12.205799,-11.04142 22.553626,-16.00921 23.581388,-11.32094 29.447717,-12.25619 80.967788,-12.90834 39.4576,-0.49945 103.55146,1.3849 109.87896,3.23042 1.75491,0.51185 2.42699,-0.72503 3.18687,-5.86506 1.57039,-10.62264 9.72441,-30.69607 24.00426,-59.09327 36.28325,-72.15368 59.69575,-101.08558 124.71107,-154.11115 18.06412,-14.73284 34.72905,-29.35044 37.03317,-32.48356 18.5733,-25.25576 0.20899,-105.68261 -39.77768,-174.20715 -16.09473,-27.58127 -21.51449,-39.63821 -21.45187,-47.72232 0.0574,-7.40527 2.1439,-16.48902 5.1032,-22.21674 5.8,-11.22594 54.96347,-18.52014 100.71796,-14.94316 40.9968,3.20503 96.16679,20.64515 134.80624,42.6144 20.30971,11.5475 37.40747,23.45745 70.9977,49.45555 17.51855,13.55898 35.3373,26.76506 39.59724,29.34685 9.47551,5.74276 13.45533,5.83063 41.52033,0.9167 30.6938,-5.37421 85.55809,-11.4095 126.66463,-13.93362 43.48284,-2.67004 150.23856,-3.05649 183.28606,-0.66348 11.2425,0.81408 33.3186,2.36935 49.058,3.45616 15.7395,1.08681 48.547,4.46887 72.9057,7.5157 98.1897,12.28174 184.3023,32.78594 261.6426,62.29954 48.0761,18.34618 145.6728,70.2162 198.8774,105.69801 77.8729,51.93296 145.0005,119.29669 188.4101,189.07291 11.2348,18.0589 29.2168,51.27204 30.4408,56.22516 0.5111,2.0682 1.4066,4.05531 1.9898,4.4158 0.5833,0.3605 14.7729,-6.31838 31.5323,-14.84195 16.7596,-8.52358 33.538,-16.59843 37.2854,-17.94413 3.7475,-1.3457 7.0091,-2.58447 7.248,-2.75282 0.2388,-0.16835 -1.6844,-3.27898 -4.2738,-6.9125 -10.2287,-14.35275 -19.6663,-36.99146 -24.9098,-59.75259 -3.3986,-14.75365 -3.4737,-41.56209 -0.1507,-53.82751 8.5172,-31.43688 28.7142,-51.58413 59.5526,-59.40579 12.679,-3.21586 32.8514,-2.11216 46.0168,2.51771 41.0121,14.42277 72.5486,58.07777 72.5486,100.42685 0,21.3427 -7.3382,39.43963 -22.2547,54.88223 -9.7713,10.11578 -13.6188,13.11395 -30.0407,23.40906 -9.893,6.20199 -11.6297,7.77284 -9.5391,8.62759 1.4058,0.57476 17.5801,1.04502 35.9428,1.04502 30.6743,0 34.3278,-0.25664 44.9698,-3.15895 29.3543,-8.00549 49.8324,-18.88364 65.4847,-34.78592 6.9963,-7.10806 11.3538,-10.5303 13.0035,-10.21258 3.4056,0.65585 29.1669,29.75638 29.1669,32.94754 0,4.10517 -18.7024,21.68086 -32.7104,30.73974 -25.585,16.54563 -60.6174,27.95181 -98.3712,32.02864 -17.8871,1.93153 -22.0967,1.9499 -39.519,0.17248 -27.4551,-2.80101 -40.2204,-6.40767 -60.7864,-17.17443 -10.3802,-5.43433 -11.0536,-5.59941 -16.1154,-3.95074 -5.2496,1.70983 -59.7566,28.18442 -76.9688,37.38461 l -9.0011,4.81117 4.6865,13.97586 c 5.0239,14.98134 12.4792,44.85736 15.8997,63.7152 5.1428,28.35249 6.2736,43.58146 6.2736,84.49037 0,81.25462 -8.3235,138.48542 -29.0348,199.63712 -24.1288,71.2419 -60.9812,129.3427 -116.2553,183.2862 -23.7793,23.2067 -40.0225,36.7363 -67.5394,56.2561 -32.6963,23.1939 -56.5809,35.9715 -74.7048,39.9649 -5.6213,1.2386 -10.4333,2.4356 -10.6935,2.66 -0.2601,0.2245 2.916,10.4157 7.058,22.6471 10.129,29.911 13.3049,46.9999 13.2503,71.297 -0.07,30.7161 -3.805,40.5851 -19.1123,50.4874 -19.4484,12.581 -41.4399,19.5402 -136.9952,43.3516 -94.213,23.4768 -115.8037,27.7939 -145.1299,29.0186 l -18.3967,0.7684 -12.724,-6.4183 c -19.3964,-9.7839 -34.1862,-24.6436 -43.775,-43.9818 -5.3808,-10.8516 -11.4287,-33.671 -10.4775,-39.5326 0.7022,-4.3276 0.5333,-4.6111 -2.2442,-3.766 -1.652,0.5026 -6.3763,1.9465 -10.4985,3.2087 -6.6949,2.0498 -16.7321,2.2918 -94.0279,2.267 -83.7904,-0.027 -106.0414,-0.6958 -183.28607,-5.5097 -37.489,-2.3362 -115.8051,-8.495 -120.03876,-9.4398 -1.56456,-0.3491 -3.48806,-2.0279 -4.27445,-3.7305 -1.40831,-3.0492 -1.44431,-3.0344 -2.39676,0.9924 -8.38259,35.4396 -14.6924,54.9259 -22.9457,70.8616 -5.92501,11.4401 -20.07607,25.1563 -31.77186,30.7956 -12.16337,5.8644 -20.70229,6.1948 -47.91653,1.8533 z m 31.11484,-44.2572 c 6.16507,-3.2994 13.77658,-21.2806 23.92837,-56.5278 7.07239,-24.5555 9.8481,-29.7998 18.97064,-35.8423 15.58817,-10.3252 29.23501,-11.2442 90.60092,-6.1009 125.20466,10.4937 238.45466,13.9855 325.20006,10.0267 l 42.4353,-1.9367 7.5658,3.7016 c 5.7211,2.7991 8.5214,5.2648 11.4854,10.113 5.1873,8.4848 11.6079,24.2862 15.3406,37.7539 5.7747,20.8354 13.5935,31.8845 26.6495,37.6598 6.9455,3.0723 12.2434,2.5295 55.0897,-5.6444 50.8923,-9.709 122.963,-27.6188 182.6047,-45.3781 l 29.2985,-8.7241 0.4377,-7.3533 c 1.061,-17.8267 -4.1364,-44.3268 -13.5719,-69.2001 -6.0198,-15.869 -7.9332,-27.7532 -5.3095,-32.9773 0.9093,-1.8106 4.8179,-8.0886 8.6858,-13.9511 l 7.0325,-10.6592 38.2152,-23.8402 c 52.7429,-32.9031 84.0061,-56.8895 117.7675,-90.3563 56.589,-56.0951 97.7163,-134.7671 113.6957,-217.4869 13.3416,-69.0652 15.1239,-143.93014 4.8164,-202.30746 -17.9884,-101.87883 -73.8453,-200.57321 -155.554,-274.85093 -58.6473,-53.31367 -100.8835,-81.44299 -204.7923,-136.39187 -65.9075,-34.85308 -133.0668,-56.98306 -233.0255,-76.78525 -61.2283,-12.12956 -120.6052,-19.23721 -194.1879,-23.24503 -115.30011,-6.28004 -204.40143,-3.12756 -301.84288,10.67948 -47.56033,6.73908 -58.03741,7.04767 -69.35213,2.04262 -8.93061,-3.95043 -30.62351,-19.07999 -58.06238,-40.49518 -42.99803,-33.55863 -72.02263,-51.1186 -104.24824,-63.07047 -34.35227,-12.74061 -57.50849,-17.43518 -94.70918,-19.20084 -14.61519,-0.69368 -27.95283,-1.68105 -29.6392,-2.19416 -4.26647,-1.29815 -3.87252,0.44021 2.24455,9.90451 7.45836,11.53951 27.56614,50.53332 33.39233,64.75574 14.7191,35.93101 22.09407,65.80497 24.19468,98.00604 1.38629,21.25079 1.29174,23.64413 -1.48032,37.47486 -1.62866,8.12585 -4.45937,18.06087 -6.29048,22.0778 -4.75023,10.42061 -19.95499,25.50105 -51.03872,50.62137 -32.26017,26.07107 -47.07057,39.81175 -61.49939,57.05745 -27.20985,32.52193 -41.43857,57.27011 -74.12371,128.92414 -16.27554,35.68008 -16.00574,35.38349 -36.07988,39.66259 -12.67241,2.70129 -22.17601,2.88732 -104.24823,2.04055 -51.17783,-0.52802 -62.514293,0.56513 -76.421142,7.36912 -23.176059,11.33899 -30.4292,38.2618 -33.226484,123.33285 -1.589156,48.32948 0.07913,110.73277 3.340941,124.97017 5.847441,25.5234 15.16284,28.412 95.974525,29.7605 61.36903,1.0241 70.81211,1.9288 84.07045,8.0546 13.79989,6.3759 18.16682,9.7545 21.05141,16.2871 1.35433,3.067 6.52837,21.8269 11.49788,41.6886 24.6686,98.5934 48.8247,145.2149 102.43919,197.7087 27.03426,26.4692 47.82688,42.6163 82.21438,63.8459 24.85646,15.3455 35.11864,23.0836 45.53867,34.3382 10.99936,11.8804 15.06928,19.7832 13.766,26.7302 -0.51788,2.7605 -6.35865,17.3045 -12.97951,32.3198 -6.62084,15.0154 -13.31367,30.5429 -14.87295,34.5055 -3.64145,9.254 -3.72212,16.0722 -0.21238,17.9506 1.44247,0.772 20.60575,8.0744 42.58506,16.2276 67.47521,25.0297 136.56163,45.4283 201.44496,59.4789 41.21441,8.9251 48.52318,9.9487 53.19299,7.4494 z M 2014.2079,697.54591 c 10.9454,-5.50354 28.6046,-17.33049 34.136,-22.86187 10.4554,-10.45543 13.691,-22.71025 9.9016,-37.50197 -6.2437,-24.37174 -23.4318,-42.24936 -44.9614,-46.76524 -15.139,-3.17543 -30.5536,5.94498 -35.7982,21.18074 -3.2922,9.56398 -2.9418,28.07449 0.8047,42.509 3.2043,12.34539 14.1564,35.93659 19.7697,42.58506 4.5267,5.36126 6.9314,5.48847 16.1476,0.85428 z"
     id="path66"
     inkscape:connector-curvature="0"
     transform="matrix(0.75000136,0,0,0.75000136,0,-0.00156507)" />
  <path
     style="stroke-width:2.50636911"
     d="m 377.01624,660.65629 c -20.31115,-6.09565 -38.92527,-16.99403 -54.14512,-31.70142 -50.11453,-48.42716 -49.62731,-124.66292 1.08888,-170.37505 50.63876,-45.64236 129.31927,-45.02948 178.44282,1.38993 39.13748,36.98309 47.89598,89.76753 23.17739,139.6822 -14.1805,28.63494 -48.6642,54.34361 -82.88802,61.79561 -15.75609,3.43078 -53.10725,2.98076 -65.67595,-0.79127 z"
     id="path68"
     inkscape:connector-curvature="0" />
  <path
     style="stroke-width:1.36272204"
     d="m 1395.0196,343.42571 -21.2487,-7.01078 3.2261,-10.81308 c 8.3514,-27.99215 11.1322,-53.20476 8.7005,-78.88198 -2.0015,-21.13414 -4.5304,-33.2774 -10.9718,-52.68499 C 1349.9136,119.27735 1288.6172,65.908722 1209.1346,49.860568 1174.1468,42.796251 1133.055,45.885993 1098.15,58.205644 1007.1711,90.316435 948.36487,177.14992 952.80979,272.81541 l 0.89901,19.3491 -4.47112,0.83262 c -15.79726,2.94176 -34.8029,5.55621 -36.77368,5.05864 -3.55052,-0.89641 -4.24404,-9.48899 -3.41732,-42.34053 0.61595,-24.47658 1.33556,-32.3057 4.22355,-45.95076 C 925.7744,150.68514 958.13171,97.28385 1003.7007,60.521507 1067.035,9.4270888 1144.3441,-8.9824152 1225.4873,7.7078048 1302.8949,23.629671 1371.1426,77.471308 1405.356,149.60897 c 18.4907,38.98697 26.1662,76.66481 24.8609,122.0389 -0.5728,19.91282 -1.4174,27.47062 -4.8972,43.82228 -2.3128,10.86771 -5.2955,23.18102 -6.6282,27.36291 l -2.4231,7.60344 z"
     id="path70"
     inkscape:connector-curvature="0"
     transform="matrix(0.75000136,0,0,0.75000136,0,-0.00156507)" />
  <path
     inkscape:connector-curvature="0"
     style="fill:none;stroke:#000000;stroke-width:0.24000083"
     id="Selection"
     d="m 262.89637,1573.9994 c 0,0 -0.24,0 -0.24,0 0,0 -0.48,-0.48 -0.48,-0.48 0,0 -5.28002,5.76 -5.28002,5.76 0,0 0.72,0.96 0.72,0.96 0,0 -0.72,-0.24 -0.72,-0.24 0,0 -2.74321,3.3576 -2.74321,3.3576 -0.3432,0.3864 -0.78481,0.9288 -1.33681,0.9744 -1.5624,0.1296 -3.46801,-3.2712 -5.69042,-0.9576 0,0 -5.89442,6.9456 -5.89442,6.9456 0,0 -12.03604,14.1601 -12.03604,14.1601 0,0 -30.0001,35.2801 -30.0001,35.2801 0,0 -12.85925,15.12 -12.85925,15.12 0,0 -3.05761,3.6001 -3.05761,3.6001 -0.504,0.636 -1.0752,1.2912 -0.8352,2.16 0.2592,0.9432 1.75441,2.4168 2.45281,3.12 2.29441,2.304 4.70642,4.5336 7.44003,6.3144 0.948,0.6168 2.9328,2.1048 4.05841,1.44 0.5064,-0.3 1.6032,-1.7136 2.04241,-2.2344 0,0 3.48001,-4.08 3.48001,-4.08 0,0 11.84404,-13.9201 11.84404,-13.9201 0,0 34.47612,-40.5601 34.47612,-40.5601 0,0 9.37923,-11.04 9.37923,-11.04 0,0 2.86081,-3.3601 2.86081,-3.3601 0.36,-0.432 1.25041,-1.4328 1.40641,-1.92 0.4968,-1.5528 -2.28242,-3.2424 -2.17442,-4.2192 0.0384,-0.3672 0.64561,-1.0128 0.88801,-1.3032 0.90241,-1.0848 2.45761,-2.4 2.53921,-3.8376 1.8624,0.1512 3.02881,-2.1 4.11121,-3.36 0.3624,-0.4224 1.07041,-1.188 1.22161,-1.68 0.3048,-0.6072 0.144,-0.8712 0,-1.44 1.48561,-0.014 2.41681,-1.8096 3.33841,-2.88 0,0 7.40883,-8.8801 7.40883,-8.8801 17.98325,15.5569 46.46896,13.4929 62.35941,-4.08 5.46241,-6.0408 7.04882,-9.7032 9.92883,-17.04 1.93921,-4.9344 3.78481,-10.7257 3.79201,-16.0801 0,0 0,-5.76 0,-5.76 -0.007,-5.2872 -1.9848,-11.9832 -4.11361,-16.8001 -2.172,-4.9104 -5.29442,-9.4056 -9.08643,-13.2 -3.17762,-3.18 -6.59522,-5.9376 -10.56004,-8.0856 -18.84726,-10.2169 -41.17454,-6.8977 -56.63779,7.8672 -4.20721,4.0176 -7.62243,9.3504 -10.02724,14.6184 -2.16,4.7329 -4.07281,11.8297 -4.13521,17.0401 0,0 0,4.32 0,4.32 0.01,5.8272 2.46721,14.9161 4.98722,20.1601 0.9384,1.9512 3.81121,5.9136 5.17442,7.92 0.4296,0.6288 1.9536,2.496 1.9704,3.12 0.024,0.7536 -1.8504,2.7168 -2.3928,3.36 0,0 -5.52003,6.4801 -5.52003,6.4801 -0.8904,1.0464 -1.9992,1.9296 -2.0592,3.36 z m 42.72014,-87.3267 c 0,0 4.56002,0 4.56002,0 2.14321,-0.031 5.31841,0.4032 7.44003,0.8304 11.84163,2.3832 22.26247,9.3648 28.83369,19.536 4.82162,7.4665 7.26963,16.3321 7.16643,25.2001 -0.036,2.916 -0.73201,8.0329 -1.62001,10.8001 -0.6216,1.9416 -1.5624,3.7296 -2.5128,5.52 -5.06642,9.5424 -12.02885,15.5352 -21.30728,20.7793 -4.37042,2.4696 -11.02083,5.1336 -16.08005,5.1408 0,0 -5.04002,0 -5.04002,0 -3.22081,-0.038 -8.14323,-1.164 -11.28004,-2.0592 -9.20403,-2.6256 -16.33445,-6.6337 -22.81688,-13.7809 -2.292,-2.5248 -4.43281,-5.3208 -5.92082,-8.4 -1.1016,-2.28 -1.81921,-4.752 -2.43121,-7.2 -3.0816,-12.3241 -0.756,-25.6297 6.22803,-36.2402 5.53202,-8.4072 13.98484,-14.7072 23.50088,-17.8776 4.11361,-1.368 7.10882,-1.6152 11.28003,-2.2488 z" />
  <path
     style="stroke-width:0.82760245"
     d="m -96.771654,1213.9651 c -3.699456,-1.1001 -17.929826,-11.0879 -27.132936,-19.0431 -10.06036,-8.6957 -26.65001,-26.2076 -28.03047,-29.5878 -0.59323,-1.4527 -0.90841,-3.5581 -0.7004,-4.6788 0.20824,-1.1202 6.67321,-9.6855 14.36706,-19.0338 7.69386,-9.3483 61.895841,-75.0052 120.448851,-145.90335 58.55302,-70.89863 118.292859,-143.26683 132.755149,-160.81843 14.48153,-17.57448 27.47138,-32.58903 28.91321,-33.41914 3.51676,-2.02503 6.1298,-1.38784 13.08116,3.19143 3.2785,2.16002 6.70259,3.77491 8.00377,3.77491 2.93266,0 6.35946,-3.12694 13.76542,-12.56071 5.48069,-6.98086 6.01195,-7.42787 7.93564,-6.67488 2.82023,1.10433 3.15586,0.42513 1.1128,-2.24786 -0.94833,-1.2416 -1.72415,-2.55893 -1.72415,-2.928 0,-0.369 4.63913,-5.89191 10.30927,-12.27339 5.6701,-6.38153 10.6249,-11.96192 11.0106,-12.40056 0.4378,-0.49791 1.069,-0.42038 1.6801,0.21026 1.7663,1.81899 2.8917,1.06272 3.8115,-2.56134 0.7226,-2.84672 5.0236,-8.49855 21.2495,-27.92285 11.1889,-13.39411 21.1653,-25.90673 22.1696,-27.80469 l 1.826,-3.45165 -1.6546,-3.26852 c -0.91,-1.79753 -4.1391,-6.81781 -7.1756,-11.1556 -11.5111,-16.44402 -21.8637,-33.10665 -25.3719,-40.83678 -7.5723,-16.68458 -15.3624,-43.87966 -19.2385,-67.1625 -1.5682,-9.4188 -1.8172,-13.97148 -1.8141,-33.17158 0,-24.20076 0.5867,-29.64612 5.2841,-49.36708 9.6035,-40.31778 29.7592,-78.45358 55.6491,-105.29177 33.6054,-34.83598 77.1886,-57.37327 125.9162,-65.1118 12.7498,-2.02502 45.3773,-2.0096 58.1566,0.0467 39.0752,6.22782 75.2073,22.14491 103.581,45.62909 8.7778,7.26531 25.864,24.73329 32.5758,33.30331 23.2498,29.68817 40.25063,71.2616 44.86723,109.71691 1.2976,10.80573 1.0762,46.07194 -0.3583,57.29433 -1.2282,9.60332 -5.7455,29.35791 -8.12283,35.5236 l -1.2952,3.35915 0.4492,-3.35915 c 0.2448,-1.84751 1.2353,-8.46071 2.19803,-14.696 2.1028,-13.61787 2.4844,-40.90543 0.7522,-53.74599 -5.61883,-41.6449 -20.38023,-77.74774 -44.14323,-107.96611 -28.2958,-35.98138 -70.4287,-62.46455 -115.4127,-72.54388 -21.998,-4.92872 -50.4217,-5.74574 -73.6593,-2.11658 -16.9161,2.64164 -25.6688,4.72785 -37.6696,8.97923 -29.8569,10.57636 -56.6795,27.85795 -79.1536,50.99831 -31.9178,32.86421 -51.5355,73.92987 -58.3907,122.22908 -1.9158,13.49734 -1.9279,43.9829 -0.023,56.94164 4.675,31.79868 13.8311,57.78294 26.9542,76.49396 13.858,19.75832 34.4919,40.69663 52.4776,53.25129 20.8136,14.52926 47.3092,26.12024 77.0534,33.7088 22.2179,5.66868 25.1079,6.05079 49.2651,6.51419 20.1085,0.38773 22.9096,0.26624 31.0527,-1.33927 24.5905,-4.84372 53.735,-18.28265 81.0072,-37.35246 31.9978,-22.37381 56.365,-49.73331 72.9725,-81.93232 2.2198,-4.30416 4.1525,-7.46618 4.295,-7.02661 0.3766,1.16268 -5.6856,15.92829 -11.1996,27.28149 -8.8958,18.31488 -20.5164,34.44172 -37.1162,51.51076 -49.0689,50.45503 -122.3049,71.37889 -192.0678,54.87415 -26.4526,-6.25818 -56.998,-21.52647 -77.362,-38.66973 -3.2984,-2.77668 -6.2752,-4.72836 -6.6153,-4.3369 -0.3397,0.39241 -8.9615,11.10377 -19.159,23.80557 -21.8127,27.16892 -24.3147,29.96333 -27.4709,30.67711 -2.2091,0.49932 -2.3451,0.74878 -1.8603,3.40959 0.6167,3.38483 0.27,4.00423 -8.6241,15.39994 -6.9022,8.8438 -9.2562,10.85666 -13.5306,11.5709 -1.7026,0.28498 -2.7887,0.94592 -2.7887,1.69898 0,2.47859 -2.5837,6.71642 -7.8333,12.84803 -2.9545,3.45074 -5.8984,7.31669 -6.5422,8.591 -1.3855,2.74256 -0.8542,4.14117 3.7453,9.85982 4.0713,5.06181 5.9373,8.94322 5.2973,11.01922 -0.7499,2.43276 1.6011,-0.44848 -109.587499,134.2629 -159.89962,193.72603 -184.356405,223.22073 -186.599855,225.03743 -2.30766,1.869 -2.70077,1.9153 -6.55843,0.7675 z"
     id="path122"
     inkscape:connector-curvature="0" />
</svg>
