<?xml version="1.0" encoding="UTF-8" standalone="no"?>
<svg
   xmlns:dc="http://purl.org/dc/elements/1.1/"
   xmlns:cc="http://creativecommons.org/ns#"
   xmlns:rdf="http://www.w3.org/1999/02/22-rdf-syntax-ns#"
   xmlns:svg="http://www.w3.org/2000/svg"
   xmlns="http://www.w3.org/2000/svg"
   xmlns:sodipodi="http://sodipodi.sourceforge.net/DTD/sodipodi-0.dtd"
   xmlns:inkscape="http://www.inkscape.org/namespaces/inkscape"
   width="23.3194in"
   height="17.3889in"
   viewBox="0 0 1679 1252"
   version="1.1"
   id="svg58"
   sodipodi:docname="icon.svg"
   inkscape:version="0.92.5 (2060ec1f9f, 2020-04-08)">
  <metadata
     id="metadata64">
    <rdf:RDF>
      <cc:Work
         rdf:about="">
        <dc:format>image/svg+xml</dc:format>
        <dc:type
           rdf:resource="http://purl.org/dc/dcmitype/StillImage" />
        <dc:title />
      </cc:Work>
    </rdf:RDF>
  </metadata>
  <defs
     id="defs62" />
  <sodipodi:namedview
     pagecolor="#ffffff"
     bordercolor="#666666"
     borderopacity="1"
     objecttolerance="10"
     gridtolerance="10"
     guidetolerance="10"
     inkscape:pageopacity="0"
     inkscape:pageshadow="2"
     inkscape:window-width="1876"
     inkscape:window-height="1192"
     id="namedview60"
     showgrid="false"
     inkscape:zoom="0.36691269"
     inkscape:cx="1268.2975"
     inkscape:cy="831.1511"
     inkscape:window-x="983"
     inkscape:window-y="148"
     inkscape:window-maximized="0"
     inkscape:current-layer="svg58" />
  <path
     id="Selection #1"
     d="m 189,550 c -33.25,-2.69 -66.58,-3.39 -100,-3 -16.93,0.2 -39.03,4.94 -53,14.78 C 14.39,577 7.32,600.12 3.87,625 -1.46,663.35 -0.46,712.65 0,752 l 0.91,10 c 0.93,13.63 1.15,18.64 5.76,32 1.73,5.01 5.69,13.56 9.54,17.12 4.37,4.02 16.41,12.65 21.79,14.93 9.95,4.2 41.51,6.93 53,6.84 h 50 10.17 L 161,834 v 8 c 0.13,11.1 7.3,35.51 10.58,47 13.93,48.81 38.88,92.69 74.46,128.99 9.2,9.38 19.75,18.11 29.96,26.4 12.14,9.85 24.92,18.45 38,26.95 9.17,5.96 20.04,13.11 31,14.66 l -7.74,15 -10.95,26 c -1.34,3.73 -4.51,11.41 -4.71,15 -0.57,2.69 -0.01,4.42 0,7 1.14,9.57 1.9,13.22 6.81,22 5.66,10.12 18.46,14.81 28.59,18.99 l 69,24.35 c 38.14,12.19 79.79,24.42 119,32.26 l 25,3.82 c 3.32,0.45 11.07,1.68 14,1.24 3.57,-0.54 11.8,-4.14 15,-6.01 3.49,-2.03 10.9,-7.72 13.49,-10.74 12.04,-14.05 21.05,-46.53 24.51,-64.91 l 1,3 19,1.83 51,4.08 c 50.56,3.46 101.26,6.09 152,6.09 h 50 l 19,-1 c 7.37,-0.09 12.21,-1.31 19,-4 -1.79,6.52 1.19,13.6 2.88,20 4.99,18.88 17.19,34.46 34.12,44 5.9,3.32 12.97,7.02 19.83,6.87 24.82,-0.55 48.04,-6.12 72.17,-11.45 l 91,-22.71 c 19.18,-5.45 49.25,-12.47 63.78,-26.23 7.91,-7.49 8.27,-26.17 8.22,-36.48 -0.07,-14.31 -3.98,-32.49 -8.69,-46 l -7.31,-21 11,-2.1 c 19.77,-6.55 36.26,-17.51 53,-29.48 21.58,-15.43 33.05,-24.47 52,-43.42 l 16.83,-17 c 7.67,-8.49 25.17,-31.32 31.48,-41 32.15,-49.38 50.61,-106.63 56.85,-165 l 2.84,-35 v -51 c -0.04,-26.1 -10.33,-74.66 -20,-99 5.76,-2.13 12.37,-6.65 18,-9.69 l 29,-14.09 c 3.48,-1.64 15.97,-8.02 19,-8.19 3.68,-0.22 9.52,4.26 13,6 7.73,3.86 17.54,6.97 26,8.76 7.4,1.56 13.58,1.79 21,2.3 l 8,0.87 c 5.03,0.2 6.63,-0.57 11,-0.87 18.73,-1.29 35.31,-4.66 53,-11.14 14.39,-5.28 29.73,-13.59 41,-24.04 2.33,-2.16 8.7,-8.37 10.05,-10.91 2.11,-3.96 -0.32,-6.04 -2.79,-9 L 1662,520 c -1.54,-1.68 -4.71,-5.8 -7.09,-5.8 -3.51,0 -8.72,7.27 -11.08,9.76 -6.06,6.4 -16.7,13.08 -24.83,16.62 -12.53,5.45 -29.34,10.39 -43,11.29 h -26 L 1536,550 c 14.08,-8.11 27.15,-16.57 36.71,-30 35.89,-50.43 -25.87,-133.15 -87.71,-110.05 -8.03,3 -11.28,4.79 -18,10.31 -7.04,5.79 -11.15,11.59 -15.19,19.74 -3.9,7.84 -6.7,21.23 -6.81,30 -0.28,24.21 9.21,53.84 24,73 -10.59,3.02 -44.27,20.82 -55,27 -1.65,-6.07 -4.95,-11.4 -7.75,-17 -6.4,-12.78 -15.64,-28.08 -23.58,-40 -33.77,-50.65 -83.14,-96.65 -133.67,-130.33 -26.82,-17.88 -54.52,-33.43 -83,-48.45 l -48,-23.8 c -51.42,-21.57 -104.2,-35.96 -159,-45.84 l -23,-4.31 -36,-4.55 -38,-4.55 -23,-1.26 -25,-1.91 -17,-1 h -28 l -16,-1 h -17 l -17,1 h -23 l -15,1 -14,0.91 -24,1.26 -54,6.58 c -6.95,1.16 -27.16,5.38 -33,5.03 -5.1,-0.31 -14.8,-7.73 -19,-10.91 L 496,219.14 C 465.92,197.58 441.54,185.25 406,175 c -9.88,-2.85 -31.16,-7.88 -41,-8 l -20,-1 c -13.11,-0.02 -26.25,0.69 -39,3.87 -4.53,1.13 -14.16,3.31 -17.49,6.24 -3.46,3.04 -6.6,17.3 -6.05,21.89 1.32,11.05 16.89,33.87 22.76,45 13.08,24.79 28.45,63.82 28.78,92 0.08,6.91 0.09,17.81 -3.16,24 -2.88,5.49 -13.68,14.14 -18.84,18.12 l -33,26.97 c -10.27,9.52 -20.61,19.06 -29.54,29.91 -17.35,21.08 -30.62,44.66 -42.71,69 -5.95,11.99 -17.47,34.13 -17.75,47 z M 323,201 c 10.57,2.8 17.28,1.98 28,2 l 17,1.29 c 24.16,3.01 55.77,13.73 77,25.57 20.73,11.57 39.52,26.15 58,40.94 8.32,6.66 29.38,22.56 39,25.56 4.51,1.4 12.21,1.69 17,1.64 l 45,-6.58 c 24.2,-3.42 48.61,-5.4 73,-6.46 l 11,-1 h 18 L 722,283 h 46 l 17,1 58,2.91 22,1.26 28,3.68 36,4.42 17,3.31 c 39.12,7.05 78.34,15.58 116,28.5 19.51,6.69 41.48,15.21 60,24.18 l 31,16.44 c 33.74,17.83 65.38,35.96 96,58.93 71.14,53.35 122.69,116.75 149.02,202.37 6.94,22.54 11.35,45.49 13.07,69 l 0.91,10 v 30 l -1,20 c -0.03,18.56 -6.3,58.63 -10.89,77 -13.9,55.6 -42.02,106.05 -82.15,146.99 l -8.96,8.1 c -20.53,19.12 -42.89,36.84 -67,51.31 l -38.82,24.12 c -3.9,3.49 -12.45,16.48 -14.21,21.48 -2.94,8.36 4.48,22.79 7.34,31 5.52,15.85 7.69,32.25 7.69,49 l -43,12.85 c -34.72,9.4 -69.73,18.64 -105,25.75 l -35,6.55 c -2.83,0.34 -10.52,1.46 -13,1.15 -2.49,-0.31 -4.87,-1.77 -7,-3.04 -11.62,-6.9 -13.82,-18.46 -17.29,-30.26 -2.31,-7.81 -8.17,-24.08 -14.09,-29.37 -2.1,-1.88 -6.88,-4.07 -9.62,-4.84 -3.82,-1.09 -10.83,-0.84 -15,-0.79 l -10,0.91 -28,1.09 -16,1 h -34 l -14,-1 h -24 l -17,-1 -31,-1 -13,-1 -21,-1 -11,-0.91 -21,-1.18 -38,-3.08 -22,-2.09 c -14.87,-0.54 -33.28,4.07 -40.56,18.26 l -9.11,31 c -2.18,6.56 -4.86,15 -8.13,21 -1.35,2.48 -3.72,6.36 -6.49,7.39 -2.31,0.86 -13.71,-1.12 -16.71,-1.64 l -41,-8.88 c -35.37,-8.84 -70.41,-19.01 -105,-30.54 l -55.96,-20.77 c -1.39,-0.68 -2.97,-1.46 -3.66,-2.95 -1.33,-2.89 3.33,-13.47 4.63,-16.61 l 15.93,-36 c 2.48,-6.61 4.61,-11.62 0.7,-18 C 365.88,1056.55 344.1,1047.72 323,1033.65 299.44,1017.93 278.02,999.06 259.17,978 231.83,947.46 215.78,909.95 204.71,871 l -11,-44 c -1.28,-4.55 -3.81,-14.22 -7.12,-17.37 -1.42,-1.34 -5.7,-3.58 -7.59,-4.6 -2.7,-1.47 -9.22,-4.68 -12,-5.51 -12.59,-3.77 -39.82,-2.5 -54,-2.52 L 96,796 C 85.39,795.98 74.49,795.95 64,794.25 56.53,793.03 50.17,792.59 44.39,787.13 38.96,782.01 37.09,765.39 37,758 v -21 l -1,-16 v -21 l 1,-16 v -18 c 0.02,-11.65 2.86,-40.06 6,-51 2.57,-8.97 4.63,-15.33 12.04,-21.78 8.87,-7.73 23.71,-8.86 34.96,-9.25 l 23,-0.97 16,1 h 16 l 14,1 c 14.97,0.17 23.07,0.4 38,-2.6 4.26,-0.86 10.46,-1.68 13.67,-4.7 2.73,-2.56 5.36,-8.26 7.08,-11.7 l 10.67,-23 c 8.48,-19.55 17.73,-38.9 29,-57 15.92,-25.56 32.45,-43.68 55.58,-62.92 15.13,-12.58 40.38,-29.59 50.22,-46.08 4,-6.7 7.95,-28 7.77,-36 l -1.03,-9 v -9 c -2.7,-26.59 -13.16,-56.81 -24.27,-81 l -15.41,-29 c -2.03,-3.53 -6.54,-9.03 -7.28,-12 z m 1179,242.32 c 22.63,-2.46 42.83,23.31 41.96,44.68 -0.57,14.02 -13.04,22.2 -23.96,28.8 -2.83,1.71 -13.29,8.15 -15.96,8.25 -2.78,0.11 -4.24,-2.03 -5.68,-4.07 -2.25,-3.17 -7.56,-13.28 -9.13,-16.98 -8.13,-19.18 -15.06,-54.34 12.77,-60.68 z M 391,513.24 c -17.6,3.45 -30.88,10.33 -39.68,26.76 -19.78,36.95 10.68,82.13 52.68,75.56 8.05,-1.26 15.24,-3.85 22,-8.46 4.9,-3.34 9.8,-8.25 13.22,-13.1 3.9,-5.54 6.43,-12.39 7.78,-19 6.45,-31.68 -16.74,-60.71 -49,-61.76 -2.64,-0.3 -4.4,-0.13 -7,0 z"
     inkscape:connector-curvature="0"
     style="fill:none;stroke:#000000;stroke-width:1"
     sodipodi:nodetypes="cccccccccccccccccccccccccccccccccccsccccccccccccccccccccccccccccccccccsccccccccccccccccccccccccccccccccccccccccccccccccccccccccccccccccccccccccccccccccccccccccccccccccccccccccccccccccccccccccccccccccccccccccccccccccccccccccccccccccccccccccccccc" />
  <path
     style="fill:#333333;stroke-width:1.36272204"
     d="m 745.40237,1663.8272 c -58.38112,-9.3136 -131.20129,-29.7484 -227.38612,-63.8092 -51.37695,-18.1935 -63.01783,-23.2166 -71.8781,-31.0157 -12.78139,-11.2507 -19.40301,-37.4172 -13.81362,-54.587 3.7228,-11.436 19.21619,-47.6191 24.52852,-57.2837 2.6557,-4.8314 4.82854,-9.1252 4.82854,-9.5417 0,-0.4164 -2.29959,-1.1769 -5.11021,-1.6899 -17.63348,-3.2184 -70.80476,-38.7942 -111.0846,-74.3244 -39.87714,-35.175 -73.67003,-82.1214 -96.24467,-133.7069 -15.53942,-35.5093 -31.27538,-90.3207 -32.50034,-113.205 -0.55654,-10.3969 -1.17682,-13.4185 -2.91337,-14.192 -1.21346,-0.5405 -30.72126,-1.4394 -65.57287,-1.9976 C 62.987197,1107.1083 55.058381,1105.662 31.061434,1087.0964 19.064306,1077.8146 13.939952,1070.1053 8.5813217,1053.2765 2.9144826,1035.4798 1.1466481,1011.385 1.1116385,951.46798 1.0415846,831.57532 9.1282586,788.78676 37.239146,760.30858 c 7.840046,-7.94248 12.205799,-11.04142 22.553626,-16.00921 23.581388,-11.32094 29.447717,-12.25619 80.967788,-12.90834 39.4576,-0.49945 103.55146,1.3849 109.87896,3.23042 1.75491,0.51185 2.42699,-0.72503 3.18687,-5.86506 1.57039,-10.62264 9.72441,-30.69607 24.00426,-59.09327 36.28325,-72.15368 59.69575,-101.08558 124.71107,-154.11115 18.06412,-14.73284 34.72905,-29.35044 37.03317,-32.48356 18.5733,-25.25576 0.20899,-105.68261 -39.77768,-174.20715 -16.09473,-27.58127 -21.51449,-39.63821 -21.45187,-47.72232 0.0574,-7.40527 2.1439,-16.48902 5.1032,-22.21674 5.8,-11.22594 54.96347,-18.52014 100.71796,-14.94316 40.9968,3.20503 96.16679,20.64515 134.80624,42.6144 20.30971,11.5475 37.40747,23.45745 70.9977,49.45555 17.51855,13.55898 35.3373,26.76506 39.59724,29.34685 9.47551,5.74276 13.45533,5.83063 41.52033,0.9167 30.6938,-5.37421 85.55809,-11.4095 126.66463,-13.93362 43.48284,-2.67004 150.23856,-3.05649 183.28606,-0.66348 11.2425,0.81408 33.3186,2.36935 49.058,3.45616 15.7395,1.08681 48.547,4.46887 72.9057,7.5157 98.1897,12.28174 184.3023,32.78594 261.6426,62.29954 48.0761,18.34618 145.6728,70.2162 198.8774,105.69801 77.8729,51.93296 145.0005,119.29669 188.4101,189.07291 11.2348,18.0589 29.2168,51.27204 30.4408,56.22516 0.5111,2.0682 1.4066,4.05531 1.9898,4.4158 0.5833,0.3605 14.7729,-6.31838 31.5323,-14.84195 16.7596,-8.52358 33.538,-16.59843 37.2854,-17.94413 3.7475,-1.3457 7.0091,-2.58447 7.248,-2.75282 0.2388,-0.16835 -1.6844,-3.27898 -4.2738,-6.9125 -10.2287,-14.35275 -19.6663,-36.99146 -24.9098,-59.75259 -3.3986,-14.75365 -3.4737,-41.56209 -0.1507,-53.82751 8.5172,-31.43688 28.7142,-51.58413 59.5526,-59.40579 12.679,-3.21586 32.8514,-2.11216 46.0168,2.51771 41.0121,14.42277 72.5486,58.07777 72.5486,100.42685 0,21.3427 -7.3382,39.43963 -22.2547,54.88223 -9.7713,10.11578 -13.6188,13.11395 -30.0407,23.40906 -9.893,6.20199 -11.6297,7.77284 -9.5391,8.62759 1.4058,0.57476 17.5801,1.04502 35.9428,1.04502 30.6743,0 34.3278,-0.25664 44.9698,-3.15895 29.3543,-8.00549 49.8324,-18.88364 65.4847,-34.78592 6.9963,-7.10806 11.3538,-10.5303 13.0035,-10.21258 3.4056,0.65585 29.1669,29.75638 29.1669,32.94754 0,4.10517 -18.7024,21.68086 -32.7104,30.73974 -25.585,16.54563 -60.6174,27.95181 -98.3712,32.02864 -17.8871,1.93153 -22.0967,1.9499 -39.519,0.17248 -27.4551,-2.80101 -40.2204,-6.40767 -60.7864,-17.17443 -10.3802,-5.43433 -11.0536,-5.59941 -16.1154,-3.95074 -5.2496,1.70983 -59.7566,28.18442 -76.9688,37.38461 l -9.0011,4.81117 4.6865,13.97586 c 5.0239,14.98134 12.4792,44.85736 15.8997,63.7152 5.1428,28.35249 6.2736,43.58146 6.2736,84.49037 0,81.25462 -8.3235,138.48542 -29.0348,199.63712 -24.1288,71.2419 -60.9812,129.3427 -116.2553,183.2862 -23.7793,23.2067 -40.0225,36.7363 -67.5394,56.2561 -32.6963,23.1939 -56.5809,35.9715 -74.7048,39.9649 -5.6213,1.2386 -10.4333,2.4356 -10.6935,2.66 -0.2601,0.2245 2.916,10.4157 7.058,22.6471 10.129,29.911 13.3049,46.9999 13.2503,71.297 -0.07,30.7161 -3.805,40.5851 -19.1123,50.4874 -19.4484,12.581 -41.4399,19.5402 -136.9952,43.3516 -94.213,23.4768 -115.8037,27.7939 -145.1299,29.0186 l -18.3967,0.7684 -12.724,-6.4183 c -19.3964,-9.7839 -34.1862,-24.6436 -43.775,-43.9818 -5.3808,-10.8516 -11.4287,-33.671 -10.4775,-39.5326 0.7022,-4.3276 0.5333,-4.6111 -2.2442,-3.766 -1.652,0.5026 -6.3763,1.9465 -10.4985,3.2087 -6.6949,2.0498 -16.7321,2.2918 -94.0279,2.267 -83.7904,-0.027 -106.0414,-0.6958 -183.28607,-5.5097 -37.489,-2.3362 -115.8051,-8.495 -120.03876,-9.4398 -1.56456,-0.3491 -3.48806,-2.0279 -4.27445,-3.7305 -1.40831,-3.0492 -1.44431,-3.0344 -2.39676,0.9924 -8.38259,35.4396 -14.6924,54.9259 -22.9457,70.8616 -5.92501,11.4401 -20.07607,25.1563 -31.77186,30.7956 -12.16337,5.8644 -20.70229,6.1948 -47.91653,1.8533 z m 31.11484,-44.2572 c 6.16507,-3.2994 13.77658,-21.2806 23.92837,-56.5278 7.07239,-24.5555 9.8481,-29.7998 18.97064,-35.8423 15.58817,-10.3252 29.23501,-11.2442 90.60092,-6.1009 125.20466,10.4937 238.45466,13.9855 325.20006,10.0267 l 42.4353,-1.9367 7.5658,3.7016 c 5.7211,2.7991 8.5214,5.2648 11.4854,10.113 5.1873,8.4848 11.6079,24.2862 15.3406,37.7539 5.7747,20.8354 13.5935,31.8845 26.6495,37.6598 6.9455,3.0723 12.2434,2.5295 55.0897,-5.6444 50.8923,-9.709 122.963,-27.6188 182.6047,-45.3781 l 29.2985,-8.7241 0.4377,-7.3533 c 1.061,-17.8267 -4.1364,-44.3268 -13.5719,-69.2001 -6.0198,-15.869 -7.9332,-27.7532 -5.3095,-32.9773 0.9093,-1.8106 4.8179,-8.0886 8.6858,-13.9511 l 7.0325,-10.6592 38.2152,-23.8402 c 52.7429,-32.9031 84.0061,-56.8895 117.7675,-90.3563 56.589,-56.0951 97.7163,-134.7671 113.6957,-217.4869 13.3416,-69.0652 15.1239,-143.93014 4.8164,-202.30746 -17.9884,-101.87883 -73.8453,-200.57321 -155.554,-274.85093 -58.6473,-53.31367 -100.8835,-81.44299 -204.7923,-136.39187 -65.9075,-34.85308 -133.0668,-56.98306 -233.0255,-76.78525 -61.2283,-12.12956 -120.6052,-19.23721 -194.1879,-23.24503 -115.30011,-6.28004 -204.40143,-3.12756 -301.84288,10.67948 -47.56033,6.73908 -58.03741,7.04767 -69.35213,2.04262 -8.93061,-3.95043 -30.62351,-19.07999 -58.06238,-40.49518 -42.99803,-33.55863 -72.02263,-51.1186 -104.24824,-63.07047 -34.35227,-12.74061 -57.50849,-17.43518 -94.70918,-19.20084 -14.61519,-0.69368 -27.95283,-1.68105 -29.6392,-2.19416 -4.26647,-1.29815 -3.87252,0.44021 2.24455,9.90451 7.45836,11.53951 27.56614,50.53332 33.39233,64.75574 14.7191,35.93101 22.09407,65.80497 24.19468,98.00604 1.38629,21.25079 1.29174,23.64413 -1.48032,37.47486 -1.62866,8.12585 -4.45937,18.06087 -6.29048,22.0778 -4.75023,10.42061 -19.95499,25.50105 -51.03872,50.62137 -32.26017,26.07107 -47.07057,39.81175 -61.49939,57.05745 -27.20985,32.52193 -41.43857,57.27011 -74.12371,128.92414 -16.27554,35.68008 -16.00574,35.38349 -36.07988,39.66259 -12.67241,2.70129 -22.17601,2.88732 -104.24823,2.04055 -51.17783,-0.52802 -62.514293,0.56513 -76.421142,7.36912 -23.176059,11.33899 -30.4292,38.2618 -33.226484,123.33285 -1.589156,48.32948 0.07913,110.73277 3.340941,124.97017 5.847441,25.5234 15.16284,28.412 95.974525,29.7605 61.36903,1.0241 70.81211,1.9288 84.07045,8.0546 13.79989,6.3759 18.16682,9.7545 21.05141,16.2871 1.35433,3.067 6.52837,21.8269 11.49788,41.6886 24.6686,98.5934 48.8247,145.2149 102.43919,197.7087 27.03426,26.4692 47.82688,42.6163 82.21438,63.8459 24.85646,15.3455 35.11864,23.0836 45.53867,34.3382 10.99936,11.8804 15.06928,19.7832 13.766,26.7302 -0.51788,2.7605 -6.35865,17.3045 -12.97951,32.3198 -6.62084,15.0154 -13.31367,30.5429 -14.87295,34.5055 -3.64145,9.254 -3.72212,16.0722 -0.21238,17.9506 1.44247,0.772 20.60575,8.0744 42.58506,16.2276 67.47521,25.0297 136.56163,45.4283 201.44496,59.4789 41.21441,8.9251 48.52318,9.9487 53.19299,7.4494 z M 2014.2079,697.54591 c 10.9454,-5.50354 28.6046,-17.33049 34.136,-22.86187 10.4554,-10.45543 13.691,-22.71025 9.9016,-37.50197 -6.2437,-24.37174 -23.4318,-42.24936 -44.9614,-46.76524 -15.139,-3.17543 -30.5536,5.94498 -35.7982,21.18074 -3.2922,9.56398 -2.9418,28.07449 0.8047,42.509 3.2043,12.34539 14.1564,35.93659 19.7697,42.58506 4.5267,5.36126 6.9314,5.48847 16.1476,0.85428 z"
     id="path66"
     inkscape:connector-curvature="0"
     transform="matrix(0.75000136,0,0,0.75000136,0,-0.00156507)" />
  <path
     style="stroke-width:1.0660888"
     d="m 380.69468,613.24701 c -8.28258,-2.7045 -15.87314,-7.53984 -22.07956,-14.06515 -20.43594,-21.48596 -20.23726,-55.30992 0.44403,-75.59128 20.64972,-20.25041 52.73443,-19.97849 72.76627,0.61668 15.95967,16.4085 19.53125,39.82767 9.45139,61.9736 -5.7826,12.70463 -19.84452,24.11094 -33.80048,27.41721 -6.42509,1.52216 -21.65633,1.32249 -26.78165,-0.35106 z"
     id="path68"
     inkscape:connector-curvature="0" />
  <path
     style="stroke-width:0.82760245"
     d="m 308.5048,1431.7284 c -3.69946,-1.1001 -17.92983,-11.0879 -27.13294,-19.0431 -10.06036,-8.6957 -26.65001,-26.2076 -28.03047,-29.5878 -0.59323,-1.4527 -0.90841,-3.5581 -0.7004,-4.6788 0.20824,-1.1202 6.67321,-9.6855 14.36706,-19.0338 7.69386,-9.3483 61.89585,-75.0052 120.44886,-145.9034 58.55302,-70.8986 118.29285,-143.2668 132.75514,-160.8184 14.48153,-17.5745 27.47138,-32.589 28.91321,-33.4191 3.51676,-2.0251 6.1298,-1.3879 13.08116,3.1914 3.2785,2.16 6.70259,3.7749 8.00377,3.7749 2.93266,0 6.35946,-3.1269 13.76542,-12.5607 5.48069,-6.9808 6.01195,-7.4279 7.93564,-6.6749 2.82023,1.1044 3.15586,0.4252 1.1128,-2.2478 -0.94833,-1.2416 -1.72415,-2.559 -1.72415,-2.928 0,-0.369 4.63913,-5.89193 10.30927,-12.27343 5.6701,-6.3816 10.6249,-11.9619 11.0106,-12.4006 0.4378,-0.4979 1.069,-0.4204 1.6801,0.2103 1.7663,1.819 2.8917,1.0627 3.8115,-2.5614 0.7226,-2.8467 5.0236,-8.4985 21.2495,-27.9228 11.1889,-13.39412 21.1653,-25.90674 22.1696,-27.8047 l 1.826,-3.45165 -1.6546,-3.26852 c -0.91,-1.79753 -4.1391,-6.81781 -7.1756,-11.1556 -11.5111,-16.44402 -21.8637,-33.10665 -25.3719,-40.83678 -7.5723,-16.68458 -15.3624,-43.87966 -19.2385,-67.1625 -1.5682,-9.4188 -1.8172,-13.97148 -1.8141,-33.17158 0,-24.20076 0.5867,-29.64612 5.2841,-49.36708 9.6035,-40.31778 29.7592,-78.45358 55.6491,-105.29177 33.6054,-34.83598 77.1886,-57.37327 125.9162,-65.1118 12.7498,-2.02502 45.3773,-2.0096 58.1566,0.0467 39.0752,6.22782 75.2073,22.14491 103.581,45.62909 8.7778,7.26531 25.864,24.73329 32.5758,33.30331 23.24983,29.68817 40.25063,71.2616 44.86723,109.71691 1.2976,10.80573 1.0762,46.07194 -0.3583,57.29433 -1.2282,9.60332 -5.7455,29.35791 -8.1228,35.5236 l -1.2952,3.35915 0.4492,-3.35915 c 0.2448,-1.84751 1.2353,-8.46071 2.198,-14.696 2.1028,-13.61787 2.4844,-40.90543 0.7522,-53.74599 -5.6188,-41.6449 -20.3802,-77.74774 -44.14323,-107.96611 -28.2958,-35.98138 -70.4287,-62.46455 -115.4127,-72.54388 -21.998,-4.92872 -50.4217,-5.74574 -73.6593,-2.11658 -16.9161,2.64164 -25.6688,4.72785 -37.6696,8.97923 -29.8569,10.57636 -56.6795,27.85795 -79.1536,50.99831 -31.9178,32.86421 -51.5355,73.92987 -58.3907,122.22908 -1.9158,13.49734 -1.9279,43.9829 -0.023,56.94164 4.675,31.79868 13.8311,57.78294 26.9542,76.49396 13.858,19.75832 34.4919,40.69663 52.4776,53.25129 20.8136,14.52929 47.3092,26.12019 77.0534,33.70879 22.2179,5.6687 25.1079,6.0508 49.2651,6.5142 20.1085,0.3877 22.9096,0.2662 31.0527,-1.3393 24.5905,-4.8437 53.735,-18.2826 81.0072,-37.35243 31.9978,-22.37381 56.365,-49.73331 72.97253,-81.93232 2.2198,-4.30416 4.1525,-7.46618 4.295,-7.02661 0.3766,1.16268 -5.6856,15.92829 -11.1996,27.28149 -8.89583,18.31488 -20.51643,34.44172 -37.11623,51.51076 -49.0689,50.45501 -122.3049,71.37894 -192.0678,54.87411 -26.4526,-6.2581 -56.998,-21.5264 -77.362,-38.6697 -3.2984,-2.77667 -6.2752,-4.72835 -6.6153,-4.33689 -0.3397,0.39241 -8.9615,11.10379 -19.159,23.80559 -21.8127,27.1689 -24.3147,29.9633 -27.4709,30.6771 -2.2091,0.4993 -2.3451,0.7488 -1.8603,3.40963 0.6167,3.3848 0.27,4.0042 -8.6241,15.3999 -6.9022,8.8438 -9.2562,10.8567 -13.5306,11.5709 -1.7026,0.285 -2.7887,0.9459 -2.7887,1.699 0,2.4786 -2.5837,6.7164 -7.8333,12.848 -2.9545,3.4508 -5.8984,7.3167 -6.5422,8.591 -1.3855,2.7426 -0.8542,4.1412 3.7453,9.8598 4.0713,5.0619 5.9373,8.9433 5.2973,11.0193 -0.7499,2.4327 1.6011,-0.4485 -109.5875,134.2629 -159.89962,193.726 -184.3564,223.2207 -186.59985,225.0374 -2.30766,1.869 -2.70077,1.9153 -6.55843,0.7675 z"
     id="path122"
     inkscape:connector-curvature="0" />
  <path
     style="fill:#000000;stroke-width:0.7226938"
     d="m 1001.7814,795.09068 c -34.81357,-29.9272 -33.12246,-22.88052 -72.85246,-15.73921 -0.9239,-3.59191 -0.3121,5.80224 0,0 0.7027,-13.0597 -6.10127,-24.43621 2.21953,-33.295 11.7892,-12.5515 27.7604,-18.50614 46.9751,-17.51403 10.7459,0.55485 18.9279,2.57205 27.46233,6.77063 9.1081,4.48081 17.8452,12.9448 21.8391,21.15657 6.2882,12.92897 7.1765,28.97862 2.3733,42.8808 -5.8563,16.95011 -18.581,22.46221 -18.581,22.46221 -7.773,1.5975 1.4074,-18.88328 -9.4359,-26.72197 z m 0,0 c 12.1042,-3.06083 5.1961,19.13064 10.8433,7.83869 4.3279,-8.65381 5.4809,-14.73715 5.0803,-26.80415 -0.2833,-8.53704 -0.6043,-10.64507 -2.3328,-15.31938 -2.5511,-6.89933 -7.3825,-14.21845 -12.1787,-18.44943 -5.21853,-4.60373 -15.33273,-9.42459 -22.86443,-10.89812 -8.5775,-1.6782 -20.1726,-1.0851 -27.3805,1.40055 -12.0208,4.14534 -21.0059,11.9737 -26.4856,23.07582 -3.8937,7.88882 2.47137,14.5164 2.46597,23.41681 -0.01,7.38362 -3.2224,-6.88628 0,0 8.82839,-0.1223 39.70055,-11.94891 60.3435,6.03432 5.5018,0.77145 7.05327,11.08452 12.50896,9.70489 z"
     id="path304"
     inkscape:connector-curvature="0"
     sodipodi:nodetypes="ccccsscccccccccccscccc" />
  <path
     style="fill:#000000;stroke-width:0.7226938"
     d="m 921.43618,832.89273 c -5.70899,-8.78929 -4.18359,22.97161 -9.22429,3.37325 -0.9239,-3.59191 3.2032,-6.3603 3.5153,-12.16254 0.7027,-13.0597 -5.45114,-23.59655 2.86966,-32.45534 11.7892,-12.5515 27.7604,-18.50614 46.9751,-17.51403 10.7459,0.55485 18.9279,2.57205 27.4623,6.77063 9.10815,4.48081 17.84525,12.9448 21.83915,21.15657 6.2882,12.92897 7.1765,28.97862 2.3733,42.8808 -5.8563,16.95011 -33.8248,33.07744 -35.96654,25.3707 -17.89071,-35.98258 -35.19334,-36.41106 -59.84398,-37.42004 z m 59.84398,37.42004 c 7.04534,-3.78353 13.14569,-10.49981 18.79294,-21.79177 4.3279,-8.65381 5.4809,-14.73715 5.0803,-26.80415 -0.2833,-8.53704 -0.6043,-10.64507 -2.3328,-15.31938 -2.5511,-6.89933 -7.38255,-14.21845 -12.17875,-18.44943 -5.2185,-4.60373 -15.3327,-9.42459 -22.8644,-10.89812 -8.5775,-1.6782 -20.1726,-1.0851 -27.3805,1.40055 -12.0208,4.14534 -21.0059,11.9737 -26.4856,23.07582 -3.8937,7.88882 1.82124,13.67674 1.81584,22.57715 -0.01,7.38362 2.48659,1.90301 5.70899,8.78929 10.27377,-1.56769 28.13745,-9.05813 53.11656,17.59743 5.5018,0.77144 6.33057,12.5299 6.72742,19.82261 z"
     id="path304-8"
     inkscape:connector-curvature="0"
     sodipodi:nodetypes="ccccsccccccccccccscccc" />
  <path
     style="fill:#000000;stroke-width:0.7226938"
     d="m 917.51271,935.07208 c -6.78797,-61.80808 -21.46096,-45.98177 -10.10561,-73.5622 11.7892,-12.5515 7.87431,-31.9978 27.08901,-31.00569 10.7459,0.55485 18.9279,2.57205 27.46233,6.77063 9.10806,4.48081 17.84516,12.9448 21.83906,21.15657 6.2882,12.92897 7.1765,28.97862 2.3733,42.8808 -5.8563,16.95011 -21.4981,30.16895 -40.26179,34.02531 -7.773,1.5975 -21.813,1.46625 -28.3963,-0.26542 z m 21.8512,-6.22112 c 12.1042,-3.06083 23.98613,-12.66789 29.63329,-23.95984 4.3279,-8.65381 5.4809,-14.73715 5.0803,-26.80415 -0.2833,-8.53704 -0.6043,-10.64507 -2.3328,-15.31938 -2.5511,-6.89933 -7.38246,-14.21845 -12.17866,-18.44943 -5.21853,-4.60373 -15.33273,-9.42459 -22.86443,-10.89812 -8.5775,-1.6782 -17.28182,0.36029 -24.48972,2.84594 2.43307,9.20419 -6.62353,21.86995 -11.30903,31.74814 -3.77023,7.94857 -11.98251,4.39869 -0.42481,15.46718 7.95224,9.51086 21.50785,-0.69989 18.42726,46.50517 5.5018,0.77145 15.0029,0.24412 20.4586,-1.13551 z"
     id="path304-5"
     inkscape:connector-curvature="0"
     sodipodi:nodetypes="ccsccccccccccccsccc" />
  <path
     style="fill:#000000;stroke-width:0.7226938"
     d="m 854.63836,978.43371 c -20.3597,-5.35561 -8.75335,-2.84024 -24.63445,-14.48897 -0.9239,-3.59191 14.93943,-25.08593 15.25153,-30.88817 0.7027,-13.0597 14.55133,-8.43548 22.87213,-17.29427 11.7892,-12.5515 12.88921,-39.7284 12.88921,-39.7284 9.20447,1.32043 9.53288,0.40397 18.06731,4.60255 9.1081,4.48081 17.84519,12.9448 21.83909,21.15657 6.28821,12.92897 7.1765,28.97862 2.37331,42.8808 -5.85631,16.95011 -21.4981,30.16895 -40.26184,34.02531 -7.77299,1.5975 -21.81299,1.46625 -28.39629,-0.26542 z m 21.8512,-6.22112 c 12.1042,-3.06083 23.98612,-12.66789 29.63333,-23.95984 4.3279,-8.65381 5.4809,-14.73715 5.0803,-26.80415 -0.2833,-8.53704 -0.6043,-10.64507 -2.33281,-15.31938 -2.5511,-6.89933 -7.38249,-14.21845 -12.17869,-18.44943 -5.21853,-4.60373 -8.33427,-7.22116 -15.86598,-8.69469 -8.5775,-1.6782 -5.49024,34.29155 -12.69814,36.7772 -11.2981,9.92689 -13.77896,11.251 -22.87213,17.29427 -7.32688,4.8694 -1.06953,-0.0544 -1.07493,8.84596 -0.01,7.38362 -11.2446,10.57534 -8.0222,17.46162 5.21492,5.65925 7.90203,12.62268 19.87265,13.98395 5.5018,0.77145 15.0029,0.24412 20.4586,-1.13551 z"
     id="path304-9"
     inkscape:connector-curvature="0"
     sodipodi:nodetypes="ccccsscccccccccccscccc" />
  <path
     style="fill:#000000;stroke-width:0.7226938"
     d="m 778.75551,987.10605 c -20.3597,-5.35563 -37.6611,-22.35299 -42.7018,-41.95135 -0.9239,-3.59191 30.48646,-10.45842 30.79856,-16.26066 0.7027,-13.0597 2.87185,-10.82758 11.19265,-19.68637 11.7892,-12.5515 -1.52071,-27.66164 17.69399,-26.66953 10.7459,0.55485 18.9279,2.57205 27.46233,6.77063 9.1081,4.48081 17.84519,12.9448 21.83909,21.15657 6.28821,12.92897 7.1765,28.97862 2.37331,42.8808 -5.85631,16.95011 -21.4981,30.16891 -40.26183,34.02531 -7.773,1.5975 -21.813,1.4662 -28.3963,-0.2654 z m 21.8512,-6.22114 c 12.1042,-3.06083 23.98613,-12.66789 29.63333,-23.95984 4.3279,-8.65381 5.4809,-14.73715 5.0803,-26.80415 -0.2833,-8.53704 -0.6043,-10.64507 -2.33281,-15.31938 -2.5511,-6.89933 -7.38249,-14.21845 -12.17869,-18.44943 -5.21853,-4.60373 -15.33273,-9.42459 -22.86443,-10.89812 -8.5775,-1.6782 -13.66836,-1.0851 -20.87626,1.40055 -12.0208,4.14534 6.45647,11.25101 0.97677,22.35313 -3.8937,7.88882 -11.18725,10.78596 -11.19265,19.68637 -0.01,7.38362 -27.14386,16.35689 -23.92146,23.24317 7.383,15.77696 22.3559,27.79925 37.2173,29.88324 5.5018,0.7714 15.0029,0.2441 20.4586,-1.13554 z"
     id="path304-7"
     inkscape:connector-curvature="0"
     sodipodi:nodetypes="ccccsscccccccccccscccc" />
  <path
     style="fill:#000000;stroke-width:0.7226938"
     d="m 713.71306,948.80326 c -20.3597,-5.35561 -37.6611,-22.35297 -42.7018,-41.95133 -0.9239,-3.59191 -1.1121,-6.48361 -0.8,-12.28585 0.7027,-13.0597 -2.7506,-2.85562 11.71538,-4.87114 26.96577,-0.9884 34.43523,-12.95811 48.76982,-45.45957 4.34217,-9.84519 18.92791,2.57205 27.46234,6.77063 9.1081,4.48081 17.84519,12.9448 21.83909,21.15657 6.28821,12.92897 7.1765,28.97862 2.37331,42.8808 -5.85631,16.95011 -21.4981,30.16895 -40.26184,34.02531 -7.773,1.5975 -21.813,1.46625 -28.3963,-0.26542 z m 21.8512,-6.22112 c 12.10421,-3.06083 23.98613,-12.66789 29.63334,-23.95984 4.32789,-8.65381 5.4809,-14.73715 5.0803,-26.80415 -0.2833,-8.53704 -0.6043,-10.64507 -2.33281,-15.31938 -2.5511,-6.89933 -7.38249,-14.21845 -12.17869,-18.44943 -5.21854,-4.60373 -15.33274,-9.42459 -22.86444,-10.89812 -8.5775,-1.6782 -9.33219,27.09996 -16.54009,29.58561 -12.0208,4.14534 -22.17289,11.24961 -34.43523,12.95811 -14.46598,2.01552 -8.29648,-3.66792 -8.30188,5.23249 -0.01,7.38362 1.0412,12.02073 4.2636,18.90701 7.383,15.77696 22.3559,27.79925 37.2173,29.88321 5.5018,0.77145 15.0029,0.24412 20.4586,-1.13551 z"
     id="path304-53"
     inkscape:connector-curvature="0"
     sodipodi:nodetypes="ccccsscccccccccccscccc" />
  <path
     style="fill:#000000;stroke-width:0.7226938"
     d="m 667.46066,891.71046 c -20.3597,-5.35561 -37.6611,-22.35298 -42.7018,-41.95134 -0.9239,-3.59191 -1.1121,-6.48361 -0.8,-12.28584 0.7027,-13.0597 0.85314,-21.78982 9.17394,-30.6486 14.67997,15.63356 35.98232,22.62161 54.20204,13.5618 15.93668,-7.92455 19.26053,-5.34831 24.57155,-15.63287 6.84965,-13.26404 17.84519,2.10439 21.83909,10.31615 6.28821,12.92898 7.1765,28.97863 2.37331,42.8808 -5.85631,16.95012 -21.4981,30.16896 -40.26183,34.02532 -7.773,1.5975 -21.813,1.46625 -28.3963,-0.26542 z m 21.8512,-6.22112 c 12.1042,-3.06083 23.98613,-12.66789 29.63333,-23.95985 4.3279,-8.6538 5.4809,-14.73714 5.0803,-26.80414 -0.2833,-8.53705 -0.6043,-10.64507 -2.3328,-15.31938 -2.5511,-6.89933 -9.7863,-14.65236 -12.1787,-18.44943 -5.21853,-4.60373 0,0 -6.24247,11.50539 -8.5775,6.99412 -10.77758,12.64608 -28.1032,11.51826 -32.25622,1.97726 -36.90516,-20.54753 -42.38486,-9.4454 -3.8937,7.88881 -5.4057,14.39943 -5.4111,23.29984 -0.01,7.38361 1.0412,12.02072 4.2636,18.907 7.383,15.77697 22.3559,27.79926 37.2173,29.88322 5.5018,0.77145 15.0029,0.24411 20.4586,-1.13551 z"
     id="path304-88"
     inkscape:connector-curvature="0"
     sodipodi:nodetypes="ccccsscccccccccccscccc" />
  <path
     style="fill:#000000;stroke-width:0.7226938"
     d="m 658.06564,824.49993 c -20.3597,-5.35561 -37.6611,-22.35298 -42.7018,-41.95133 -0.9239,-3.59191 -1.1121,-6.48361 -0.8,-12.28585 0.7027,-13.0597 5.1893,-23.95789 13.5101,-32.81668 11.7892,-12.5515 27.7604,-18.50614 46.9751,-17.51403 10.7459,0.55485 18.9279,2.57205 27.46233,6.77063 9.1081,4.48081 17.8452,12.9448 21.8391,21.15657 6.28821,12.92897 7.1765,28.97862 2.37331,42.8808 -5.85631,16.95011 -21.49811,30.16895 -40.26184,34.02531 -7.773,1.5975 -21.813,1.46625 -28.3963,-0.26542 z m 21.8512,-6.22112 c 12.10421,-3.06083 23.98613,-12.66789 29.63333,-23.95984 4.3279,-8.65381 5.48091,-14.73715 5.08031,-26.80415 -0.2833,-8.53704 -0.6043,-10.64507 -2.33281,-15.31938 -2.5511,-6.89933 -7.3825,-14.21845 -12.1787,-18.44943 -5.21853,-4.60373 -15.33273,-9.42459 -22.86443,-10.89812 -8.5775,-1.6782 -20.1726,-1.0851 -27.3805,1.40055 -12.0208,4.14534 -21.0059,11.9737 -26.4856,23.07582 -3.8937,7.88882 -5.4057,14.39943 -5.4111,23.29984 -0.01,7.38362 1.0412,12.02073 4.2636,18.90701 7.383,15.77696 22.3559,27.79925 37.2173,29.88321 5.5018,0.77145 15.0029,0.24412 20.4586,-1.13551 z"
     id="path304-3"
     inkscape:connector-curvature="0" />
  <path
     style="fill:#000000;stroke-width:0.7226938"
     d="m 842.29977,909.02835 c -20.3597,-5.35561 -6.88231,-8.83946 -29.99036,-21.21088 -0.9239,-3.59191 -34.20614,-2.98706 -33.89404,-8.7893 15.15657,-3.66468 28.63475,-7.16373 36.95555,-16.02252 11.7892,-12.5515 -4.15741,-30.60279 15.05729,-29.61068 10.7459,0.55485 18.9279,2.57205 27.46233,6.77063 9.1081,4.48081 17.84519,12.9448 21.83909,21.15657 6.28821,12.92897 7.1765,28.97862 2.37331,42.8808 -5.85631,16.95011 -21.4981,30.16895 -40.26183,34.02531 -7.773,1.5975 7.04196,-27.46826 0.45866,-29.19993 z m 2.39126,18.37723 c 12.1042,-3.06083 14.59111,-8.33173 20.23831,-19.62368 4.3279,-8.65381 5.4809,-14.73715 5.0803,-26.80415 -0.2833,-8.53704 -0.6043,-10.64507 -2.3328,-15.31938 -2.5511,-6.89933 -7.3825,-14.21845 -12.1787,-18.44943 -5.21853,-4.60373 -15.33273,-9.42459 -22.86443,-10.89812 -8.5775,-1.6782 -10.05489,24.20918 -17.26279,26.69483 -19.87349,1.55547 -18.21915,10.58931 -36.95555,16.02252 -0.01,7.38362 30.67164,1.90302 33.89404,8.7893 14.60994,6.38194 21.63321,11.89999 29.99036,21.21088 1.16564,7.99839 -3.06444,19.75686 2.39126,18.37723 z"
     id="path304-1"
     inkscape:connector-curvature="0"
     sodipodi:nodetypes="ccccssccccccccccccccc" />
  <path
     style="fill:#000000;stroke-width:0.7226938"
     d="m 778.41537,879.02817 c -6.2169,-5.41181 -10.93113,-1.96548 -15.97183,-21.56384 -0.9239,-3.59191 -32.03807,-11.65938 -31.72597,-17.46162 0.7027,-13.0597 -5.07778,-29.61762 -1.09314,-37.75372 31.06373,20.08286 31.00051,17.14538 50.21521,18.13749 10.7459,0.55485 32.65908,-21.99954 40.47082,-30.80945 6.73441,-7.59492 6.28209,4.99517 10.27599,13.20694 6.28821,12.92897 7.1765,28.97862 2.37331,42.8808 -5.85631,16.95011 -21.4981,30.16895 -40.26183,34.02531 -7.773,1.5975 -7.69926,1.06976 -14.28256,-0.66191 z m 7.73746,-5.82463 c 12.1042,-3.06083 23.98613,-12.66789 29.63333,-23.95984 4.3279,-8.65381 5.4809,-14.73715 5.0803,-26.80415 -0.2833,-8.53704 -0.6043,-10.64507 -2.3328,-15.31938 -2.5511,-6.89933 -7.3825,3.8489 -12.1787,-0.38208 -5.94122,4.79128 -24.95623,15.90503 -32.48793,14.4315 -8.5775,-1.6782 -13.17887,1.16226 -24.26124,-5.86173 -14.18889,-5.97237 -7.27472,-4.64826 -19.98136,-13.05887 -7.33596,-4.85572 -6.85109,10.78596 -5.4111,31.97217 -0.01,7.38362 35.00781,16.35689 38.23021,23.24317 7.383,15.77696 9.75493,16.15203 9.75493,16.15203 5.5018,0.77145 8.49866,0.96681 13.95436,-0.41282 z"
     id="path304-89"
     inkscape:connector-curvature="0"
     sodipodi:nodetypes="ccccsscccccccccccscccc" />
  <path
     style="fill:#000000;stroke-width:0.7226938"
     d="m 760.68816,822.33185 c -20.3597,-5.35561 -37.6611,-22.35298 -42.7018,-41.95133 -0.9239,-3.59191 -1.1121,-6.48361 -0.8,-12.28585 0.7027,-13.0597 5.1893,-23.95789 13.5101,-32.81668 11.7892,-12.5515 27.7604,-18.50614 46.9751,-17.51403 10.7459,0.55485 18.9279,2.57205 27.46233,6.77063 9.1081,4.48081 17.84519,12.9448 21.83909,21.15657 6.28821,12.92897 7.1765,28.97862 2.37331,42.8808 -5.85631,16.95011 -21.4981,30.16895 -40.26183,34.02531 -7.773,1.5975 -21.813,1.46625 -28.3963,-0.26542 z m 21.8512,-6.22112 c 12.1042,-3.06083 23.98613,-12.66789 29.63333,-23.95984 4.3279,-8.65381 5.4809,-14.73715 5.0803,-26.80415 -0.2833,-8.53704 -0.6043,-10.64507 -2.3328,-15.31938 -2.5511,-6.89933 -7.3825,-14.21845 -12.1787,-18.44943 -5.21853,-4.60373 -15.33273,-9.42459 -22.86443,-10.89812 -8.5775,-1.6782 -20.1726,-1.0851 -27.3805,1.40055 -12.0208,4.14534 -21.0059,11.9737 -26.4856,23.07582 -3.8937,7.88882 -5.4057,14.39943 -5.4111,23.29984 -0.01,7.38362 1.0412,12.02073 4.2636,18.90701 7.383,15.77696 22.3559,27.79925 37.2173,29.88321 5.5018,0.77145 15.0029,0.24412 20.4586,-1.13551 z"
     id="path304-6"
     inkscape:connector-curvature="0" />
  <path
     style="fill:#000000;stroke-width:0.7226938"
     d="M 879.42118,887.63971 C 860.0072,844.45584 860.0072,844.45584 829.72662,829.1623 c -0.9239,-3.59191 -0.3121,5.80224 0,0 0.7027,-13.0597 -17.01424,-19.98308 -8.69344,-28.84187 11.7892,-12.5515 27.7604,-18.50614 46.9751,-17.51403 10.7459,0.55485 18.9279,2.57205 27.46233,6.77063 9.1081,4.48081 17.84519,12.9448 21.83909,21.15657 6.28821,12.92897 7.1765,28.97862 2.37331,42.8808 -5.85631,16.95011 -21.4981,30.16895 -40.26183,34.02531 -7.76376,1.59196 16.18038,-4.02658 0,0 z m 1.40453,-8.65461 c 12.1042,-3.06083 16.0365,-10.49981 21.6837,-21.79177 4.3279,-8.65381 5.4809,-14.73715 5.0803,-26.80415 -0.2833,-8.53704 -0.6043,-10.64507 -2.3328,-15.31938 -2.5511,-6.89933 -7.3825,-14.21845 -12.1787,-18.44943 -5.21853,-4.60373 -15.33273,-9.42459 -22.86443,-10.89812 -8.5775,-1.6782 -20.1726,-1.0851 -27.3805,1.40055 -12.0208,4.14534 -20.76893,7.71993 -19.98136,14.40349 1.53052,12.9884 6.8801,18.7356 6.8747,27.63601 -0.01,7.38362 21.27663,8.40726 31.72597,16.73893 13.16455,12.16349 9.3474,10.45459 16.98187,19.7655 2.61102,8.72107 0,0 2.39125,13.31837 z"
     id="path304-4"
     inkscape:connector-curvature="0"
     sodipodi:nodetypes="ccccsscccccccccccscccc" />
  <path
     style="fill:#000000;stroke-width:0.7226938"
     d="m 822.06435,794.84273 c -20.3597,-5.35561 3.58523,5.85884 -1.45547,-13.73952 -0.9239,-3.59191 -1.1121,-6.48361 -0.8,-12.28585 0.7027,-13.0597 5.1893,-23.95789 13.5101,-32.81668 11.7892,-12.5515 27.7604,-18.50614 46.9751,-17.51403 10.7459,0.55485 18.9279,2.57205 27.46233,6.77063 9.1081,4.48081 17.8452,12.9448 21.8391,21.15657 6.28821,12.92897 7.1765,28.97862 2.37331,42.8808 -5.85631,16.95011 -21.4718,23.1849 -21.4718,23.1849 -7.05031,-9.2429 -23.31118,-46.25829 -88.43267,-17.63682 z m 71.04716,-1.85821 c 9.21343,4.88881 16.0365,11.18101 21.6837,-0.11094 4.3279,-8.65381 5.48091,-14.73715 5.08031,-26.80415 -0.28331,-8.53704 -0.60431,-10.64507 -2.33281,-15.31938 -2.5511,-6.89933 -7.3825,-14.21845 -12.1787,-18.44943 -5.21853,-4.60373 -15.33273,-9.42459 -22.86443,-10.89812 -8.5775,-1.6782 -20.1726,-1.0851 -27.3805,1.40055 -12.0208,4.14534 -21.0059,11.9737 -26.4856,23.07582 -3.8937,7.88882 -5.4057,14.39943 -5.4111,23.29984 -0.01,7.38362 1.0412,12.02073 4.2636,18.90701 7.383,15.77696 -20.28303,4.67305 -5.42163,6.75701 26.45992,-11.51435 34.51563,-19.26861 71.04716,-1.85821 z"
     id="path304-33"
     inkscape:connector-curvature="0"
     sodipodi:nodetypes="ccccsscccccccccccscccc" />
</svg>
