<?xml version="1.0" encoding="UTF-8" standalone="no"?>
<!-- Created with Inkscape (http://www.inkscape.org/) -->

<svg
   xmlns:osb="http://www.openswatchbook.org/uri/2009/osb"
   xmlns:dc="http://purl.org/dc/elements/1.1/"
   xmlns:cc="http://creativecommons.org/ns#"
   xmlns:rdf="http://www.w3.org/1999/02/22-rdf-syntax-ns#"
   xmlns:svg="http://www.w3.org/2000/svg"
   xmlns="http://www.w3.org/2000/svg"
   xmlns:sodipodi="http://sodipodi.sourceforge.net/DTD/sodipodi-0.dtd"
   xmlns:inkscape="http://www.inkscape.org/namespaces/inkscape"
   width="20mm"
   height="20mm"
   viewBox="0 0 20 20"
   version="1.1"
   id="svg8"
   inkscape:version="0.92.5 (2060ec1f9f, 2020-04-08)"
   sodipodi:docname="flow.svg">
  <defs
     id="defs2">
    <linearGradient
       id="linearGradient2281"
       osb:paint="solid">
      <stop
         style="stop-color:#000003;stop-opacity:1;"
         offset="0"
         id="stop2279" />
    </linearGradient>
    <marker
       inkscape:stockid="Arrow1Lend"
       orient="auto"
       refY="0.0"
       refX="0.0"
       id="Arrow1Lend"
       style="overflow:visible;"
       inkscape:isstock="true">
      <path
         id="path844"
         d="M 0.0,0.0 L 5.0,-5.0 L -12.5,0.0 L 5.0,5.0 L 0.0,0.0 z "
         style="fill-rule:evenodd;stroke:#000000;stroke-width:1pt;stroke-opacity:1;fill:#000000;fill-opacity:1"
         transform="scale(0.8) rotate(180) translate(12.5,0)" />
    </marker>
    <marker
       inkscape:stockid="Arrow1Mend"
       orient="auto"
       refY="0.0"
       refX="0.0"
       id="Arrow1Mend"
       style="overflow:visible;"
       inkscape:isstock="true">
      <path
         id="path850"
         d="M 0.0,0.0 L 5.0,-5.0 L -12.5,0.0 L 5.0,5.0 L 0.0,0.0 z "
         style="fill-rule:evenodd;stroke:#000000;stroke-width:1pt;stroke-opacity:1;fill:#000000;fill-opacity:1"
         transform="scale(0.4) rotate(180) translate(10,0)" />
    </marker>
  </defs>
  <sodipodi:namedview
     id="base"
     pagecolor="#ffffff"
     bordercolor="#666666"
     borderopacity="1.0"
     inkscape:pageopacity="0.0"
     inkscape:pageshadow="2"
     inkscape:zoom="5.6"
     inkscape:cx="58.304725"
     inkscape:cy="42.527186"
     inkscape:document-units="mm"
     inkscape:current-layer="layer1"
     showgrid="false"
     inkscape:snap-text-baseline="false"
     inkscape:window-width="1448"
     inkscape:window-height="802"
     inkscape:window-x="1988"
     inkscape:window-y="0"
     inkscape:window-maximized="0" />
  <metadata
     id="metadata5">
    <rdf:RDF>
      <cc:Work
         rdf:about="">
        <dc:format>image/svg+xml</dc:format>
        <dc:type
           rdf:resource="http://purl.org/dc/dcmitype/StillImage" />
        <dc:title></dc:title>
      </cc:Work>
    </rdf:RDF>
  </metadata>
  <g
     inkscape:label="Layer 1"
     inkscape:groupmode="layer"
     id="layer1"
     transform="translate(0,-277)">
    <path
       d="m 7.7372606,279.00386 -1.326905,-1.31785 c -0.1266577,-0.10731 -0.4668283,-0.30821 -0.5633313,-0.0506 -0.064536,0.17008 0.1013281,0.35042 0.2050676,0.46381 0.316648,0.34681 0.6869733,0.64174 0.9614024,1.02534 H 0.86148657 c -0.12485077,0 -0.34077374,-0.0113 -0.45597169,0.0495 -0.14716709,0.0875 -0.18214943,0.31183 0,0.39687 0.0820276,0.044 0.29191783,0.0362 0.39565606,0.0362 H 7.0134943 l -1.0162872,1.08565 c -0.1097722,0.12967 -0.2472865,0.3263 -0.1121848,0.49034 0.1797356,0.21834 0.4535604,-0.0633 0.5856489,-0.18998 l 1.2665894,-1.26539 c 0.1465615,0.50181 0.2352223,0.8643 0.6139929,1.26117 0.8160475,0.85404 2.2883075,0.90953 3.1755235,0.1369 0.260556,-0.22677 0.485524,-0.53739 0.620629,-0.85524 0.07358,-0.1731 0.118216,-0.50482 0.259951,-0.60193 0.109772,-0.0748 0.325696,-0.0616 0.456577,-0.0616 h 3.196633 c 0.809409,10e-4 1.32268,0.25572 1.326903,1.14596 v 3.98071 c -1.102536,0.0537 -1.842587,0.94391 -1.990356,1.99035 H 5.2040805 c -0.1314854,0 -0.3456002,0.0133 -0.4565761,-0.0616 -0.2110978,-0.14294 -0.1429438,-0.52713 -0.5042245,-1.02412 -0.4234019,-0.58323 -0.9800999,-0.8848 -1.693007,-0.95477 -1.4028999,-0.13812 -2.52473611,1.02353 -2.47045317,2.4023 0.02533204,0.65078 0.3154417,1.307 0.84197997,1.70327 0.1785293,0.13389 0.3938491,0.26476 0.6031375,0.34197 0.176118,0.0651 0.4354648,0.0947 0.5416181,0.26357 0.074187,0.11761 0.061521,0.32811 0.061521,0.46563 v 3.43788 c 0.00427,0.88541 0.4378761,1.5567 1.3872156,1.56816 h 3.6188277 c 0.1399294,0 0.3474084,-0.0126 0.4692421,0.0616 0.265984,0.16164 0.1513891,0.50724 0.5585062,1.08444 0.400485,0.56696 1.0573013,0.89626 1.7466884,0.9047 0.7919217,0.009 1.4185817,-0.19962 1.9276287,-0.8468 0.147769,-0.18758 0.279857,-0.43485 0.358262,-0.66103 0.05308,-0.1526 0.07419,-0.38662 0.212909,-0.48131 0.109772,-0.0748 0.325695,-0.0616 0.456576,-0.0616 h 6.031381 c -0.192402,0.269 -0.372136,0.43245 -0.603138,0.66346 -0.151386,0.15137 -0.504224,0.46923 -0.563933,0.66103 -0.06092,0.19301 0.07539,0.37214 0.267793,0.32087 0.157418,-0.0416 0.36128,-0.26357 0.477082,-0.37877 l 0.96502,-0.96502 c 0.12847,-0.13028 0.370327,-0.34741 0.370327,-0.54283 0,-0.19542 -0.241857,-0.41254 -0.370327,-0.54282 l -0.904707,-0.90471 c -0.127262,-0.12606 -0.311821,-0.3287 -0.48251,-0.38479 -0.198432,-0.0663 -0.389627,0.0368 -0.322076,0.26537 0.05549,0.18999 0.414356,0.51267 0.563331,0.66225 0.231002,0.231 0.410736,0.39445 0.603138,0.66344 h -6.031381 c -0.131482,0 -0.345598,0.0133 -0.456576,-0.0616 -0.211098,-0.14293 -0.142943,-0.52713 -0.504222,-1.02412 -0.419183,-0.5772 -0.933056,-0.85645 -1.632694,-0.94753 -1.2925246,-0.16828 -2.3570648,0.78589 -2.5331803,2.03317 H 3.8771742 c -0.5193018,-6.7e-4 -0.908929,-0.0711 -1.1477714,-0.60313 -0.1628463,-0.36249 -0.1188193,-0.92581 -0.1188193,-1.3269 v -2.59349 c 0,-0.13752 -0.012679,-0.34802 0.061521,-0.46563 0.1043439,-0.16647 0.4209906,-0.22015 0.6019313,-0.29916 0.3021713,-0.13087 0.5862507,-0.32689 0.8069976,-0.57237 0.1984331,-0.21955 0.3564555,-0.49398 0.4535604,-0.77382 0.053077,-0.1526 0.074187,-0.38662 0.2129085,-0.48131 0.1097722,-0.0748 0.3256939,-0.0616 0.4565761,-0.0616 h 9.5898956 c 0.139928,0 0.347408,-0.0126 0.469239,0.0616 0.265985,0.16164 0.151389,0.50723 0.558508,1.08444 0.400483,0.56695 1.0573,0.89626 1.746688,0.9047 1.034985,0.0126 1.881185,-0.43968 2.263576,-1.44753 0.07479,-0.19661 0.145358,-0.69602 0.129676,-0.9047 -0.08746,-1.15742 -0.79192,-2.14355 -2.03137,-2.1713 v -3.86008 c -0.0011,-0.64295 -0.154402,-1.27925 -0.784079,-1.5947 -0.426419,-0.21411 -1.033778,-0.1544 -1.507846,-0.1544 h -2.774435 c -0.133293,0 -0.350423,0.0127 -0.463814,-0.0616 -0.148371,-0.0978 -0.2117,-0.48131 -0.287696,-0.66224 -0.127262,-0.30158 -0.328711,-0.55791 -0.575393,-0.77142 -0.98553,-0.85404 -2.4716604,-0.68878 -3.3045934,0.2889 -0.2858877,0.33535 -0.3757561,0.67732 -0.4951761,1.08565 z m 2.1712966,-1.18818 c 1.7780508,-0.0935 2.3305268,2.31907 0.7237668,3.00062 -0.229194,0.0971 -0.47648,0.12605 -0.7237668,0.11522 -1.1182188,-0.0489 -1.8238895,-1.32268 -1.234623,-2.34983 0.2985514,-0.5199 0.6749106,-0.67672 1.234623,-0.76598 z m -9.10738626,8.66709 c 0.30941156,-0.34619 0.45537106,-0.962 1.44753126,-1.06755 1.1562179,-0.12239 1.9728646,1.10133 1.5609224,2.15321 -0.4246095,1.08504 -1.865505,1.30157 -2.6339026,0.42098 -0.47044716,-0.53859 -0.33474232,-0.8848 -0.37455106,-1.50664 z m 15.31970906,0 c 0.248483,-0.65083 0.455367,-0.962 1.447531,-1.06755 1.156215,-0.12239 1.972864,1.10133 1.560921,2.15321 -0.424609,1.08504 -1.865507,1.30157 -2.633905,0.42098 -0.542055,-0.62043 -0.51887,-1.05172 -0.374547,-1.50664 z m -7.6598543,7.65986 c 0.3094102,-0.3462 0.4553685,-0.96201 1.4475315,-1.06756 1.1562158,-0.12239 1.9728648,1.10134 1.5609198,2.15321 -0.424607,1.08504 -1.8655049,1.30157 -2.6339028,0.42098 -0.4704471,-0.53859 -0.3347423,-0.8848 -0.3745485,-1.50663 z"
       id="Selection #1"
       inkscape:connector-curvature="0"
       style="fill:#000000;fill-opacity:1;stroke:#000000;stroke-width:0.0603138"
       sodipodi:nodetypes="cccccsccscccccccccsccccscccccccsccsccccccsccccccsccccccsccccccsscccccssccccccccssccccccccccccccccccccccccc" />
  </g>
</svg>
