<?xml version="1.0" encoding="UTF-8" standalone="no"?>
<!-- Created with Inkscape (http://www.inkscape.org/) -->

<svg
   xmlns:dc="http://purl.org/dc/elements/1.1/"
   xmlns:cc="http://creativecommons.org/ns#"
   xmlns:rdf="http://www.w3.org/1999/02/22-rdf-syntax-ns#"
   xmlns:svg="http://www.w3.org/2000/svg"
   xmlns="http://www.w3.org/2000/svg"
   xmlns:sodipodi="http://sodipodi.sourceforge.net/DTD/sodipodi-0.dtd"
   xmlns:inkscape="http://www.inkscape.org/namespaces/inkscape"
   width="100mm"
   height="100mm"
   viewBox="0 0 100 100"
   version="1.1"
   id="svg4860"
   inkscape:version="0.92.5 (2060ec1f9f, 2020-04-08)"
   sodipodi:docname="icon2.svg">
  <defs
     id="defs4854" />
  <sodipodi:namedview
     id="base"
     pagecolor="#ffffff"
     bordercolor="#666666"
     borderopacity="1.0"
     inkscape:pageopacity="0.0"
     inkscape:pageshadow="2"
     inkscape:zoom="0.98994949"
     inkscape:cx="451.70079"
     inkscape:cy="108.23774"
     inkscape:document-units="mm"
     inkscape:current-layer="layer1"
     showgrid="false"
     inkscape:window-width="1848"
     inkscape:window-height="1016"
     inkscape:window-x="72"
     inkscape:window-y="27"
     inkscape:window-maximized="1" />
  <metadata
     id="metadata4857">
    <rdf:RDF>
      <cc:Work
         rdf:about="">
        <dc:format>image/svg+xml</dc:format>
        <dc:type
           rdf:resource="http://purl.org/dc/dcmitype/StillImage" />
        <dc:title></dc:title>
      </cc:Work>
    </rdf:RDF>
  </metadata>
  <g
     inkscape:label="Layer 1"
     inkscape:groupmode="layer"
     id="layer1"
     transform="translate(0,-197)">
    <path
       d="m 48.361692,268.36673 c 0,0 0,5.34129 0,5.34129 9.01e-4,0.35952 0.121059,0.94823 0.23854,1.2913 0.175325,0.51154 0.483926,1.04919 0.865887,1.43805 1.592526,1.62 4.437353,1.51552 5.957124,-0.14674 0.243004,-0.26589 0.40879,-0.5309 0.565029,-0.85108 0.488992,-1.00193 0.453814,-1.9443 0.453814,-3.02282 0,0 0,-4.05 0,-4.05 0,0 31.099047,0 31.099047,0 0,0 0,3.96196 0,3.96196 0,0.57316 -0.03129,1.16245 0.03814,1.73151 0.102877,0.83994 0.433845,1.65375 1.010503,2.28912 1.358161,1.49616 3.926292,1.6473 5.511056,0.42526 0.832484,-0.64184 1.290179,-1.55045 1.439259,-2.56764 0.02739,-0.18753 0.05134,-0.30581 0.05154,-0.49892 0,0 0,-5.34129 0,-5.34129 0,0 4.293633,0 4.293633,0 0.0593,0 0.173236,0.007 0.220646,-0.0299 0.0507,-0.0396 0.0465,-0.11826 0.0477,-0.1755 0,0 0,-0.6163 0,-0.6163 0,0 0,-2.61195 0,-2.61195 0,0 0,-11.24019 0,-11.24019 0,0 -0.0299,-0.64566 -0.0299,-0.64566 -0.003,-0.22393 -0.0673,-0.6257 -0.11329,-0.85109 -0.250176,-1.23055 -0.792836,-2.25977 -1.67692,-3.16956 -0.346773,-0.35687 -0.744821,-0.65974 -1.161667,-0.93326 -0.369716,-0.24241 -0.914477,-0.50536 -1.341759,-0.62628 0,0 -0.506888,-0.11915 -0.506888,-0.11915 -0.08668,-0.0164 -0.178894,-0.0197 -0.238827,-0.0912 0,0 -0.208423,-0.48981 -0.208423,-0.48981 0,0 -0.448742,-1.14457 -0.448742,-1.14457 0,0 -1.345933,-3.40434 -1.345933,-3.40434 0,0 -2.176633,-5.51738 -2.176633,-5.51738 -0.586196,-1.48911 -0.973233,-2.75107 -2.230608,-3.86893 -0.920754,-0.8185 -2.139957,-1.31829 -3.369313,-1.44772 0,0 -0.536701,-0.0552 -0.536701,-0.0552 0,0 -0.357799,0 -0.357799,0 0,0 -0.357808,-0.0282 -0.357808,-0.0282 0,0 -24.151703,0 -24.151703,0 0,0 -0.357808,0.0282 -0.357808,0.0282 0,0 -0.357799,0 -0.357799,0 0,0 -0.536703,0.0552 -0.536703,0.0552 -1.229354,0.12943 -2.448576,0.62922 -3.369311,1.44772 -1.276165,1.1343 -1.719547,2.55062 -2.308431,4.07436 0,0 -2.098811,5.3413 -2.098811,5.3413 0,0 -1.364723,3.46303 -1.364723,3.46303 0,0 -0.401631,1.02718 -0.401631,1.02718 -0.03849,0.10125 -0.168176,0.45665 -0.226614,0.51916 -0.07429,0.0799 -0.578751,0.16259 -0.726046,0.20632 -0.436513,0.12942 -0.992302,0.39208 -1.371575,0.63977 -0.40998,0.26736 -0.814894,0.57874 -1.15779,0.92652 -0.878696,0.8907 -1.440462,1.98449 -1.686748,3.19626 -0.04264,0.20983 -0.104652,0.61425 -0.107338,0.82174 0,0 -0.02984,0.64566 -0.02984,0.64566 0,0 0,14.40975 0,14.40975 0,0.0675 -0.01136,0.18812 0.04769,0.23419 0.04742,0.0366 0.161315,0.0299 0.220646,0.0299 0,0 0.805066,0 0.805066,0 0,0 3.48857,0 3.48857,0 z m 42.369849,-21.1304 c 0,0 -37.509679,0 -37.509679,0 0,0 0.21796,-0.6163 0.21796,-0.6163 0,0 0.496151,-1.32065 0.496151,-1.32065 0,0 1.461035,-3.87391 1.461035,-3.87391 0,0 1.181636,-3.14021 1.181636,-3.14021 0.223927,-0.58432 0.446654,-1.29101 0.771366,-1.81956 0.448152,-0.72988 1.096962,-1.14955 1.9545,-1.25902 0,0 0.268356,0 0.268356,0 0,0 0.357799,-0.0323 0.357799,-0.0323 0,0 24.121889,0 24.121889,0 0,0 0.357807,0.0268 0.357807,0.0268 0.631519,0.0428 1.15093,0.16494 1.639931,0.59459 0.271926,0.23889 0.463947,0.50684 0.643149,0.81675 0.239424,0.4141 0.500018,1.19974 0.681311,1.67282 0,0 1.192679,3.16956 1.192679,3.16956 0,0 1.371584,3.63912 1.371584,3.63912 0,0 0.574567,1.52609 0.574567,1.52609 0,0 0.217959,0.6163 0.217959,0.6163 z m -38.195479,4.07757 c 0,0 0.417444,0 0.417444,0 0.605582,0.0643 1.249028,0.28556 1.759197,0.60898 0.731709,0.46398 1.328346,1.14896 1.65633,1.94604 0.653282,1.58744 0.295483,3.52644 -0.970538,4.72382 -0.413857,0.39151 -0.870357,0.66884 -1.401397,0.87574 -0.429365,0.16729 -1.059097,0.28027 -1.520665,0.26971 0,0 -0.238532,-0.0308 -0.238532,-0.0308 0,0 -0.238542,0 -0.238542,0 -0.363766,-0.0508 -0.766589,-0.16259 -1.103218,-0.30433 -0.436522,-0.18372 -0.886757,-0.48013 -1.222494,-0.80912 -0.333061,-0.32635 -0.629446,-0.69995 -0.840544,-1.11522 -0.825036,-1.62264 -0.532835,-3.6491 0.75944,-4.95478 0.331563,-0.33486 0.730211,-0.6119 1.154508,-0.8194 0.58233,-0.28466 1.14616,-0.38357 1.789011,-0.39061 z m 38.911086,0 c 0,0 0.417435,0 0.417435,0 0.574884,0.0617 1.209972,0.27207 1.699569,0.5717 0.372404,0.22833 0.717397,0.50802 1.000655,0.83876 1.448803,1.69044 1.367401,4.21992 -0.19679,5.81087 -0.384942,0.39149 -0.864395,0.68439 -1.370382,0.89716 -0.440994,0.18577 -1.040913,0.30052 -1.520673,0.3061 -0.485116,0.005 -1.037027,-0.0987 -1.490841,-0.2656 -0.442481,-0.16259 -0.899874,-0.4276 -1.252309,-0.73722 -1.838514,-1.61618 -1.955689,-4.46849 -0.233465,-6.2141 0.302046,-0.30639 0.710233,-0.59575 1.098152,-0.78769 0.624965,-0.30962 1.1566,-0.41176 1.848649,-0.41998 z"
       id="Selection #1-7"
       inkscape:connector-curvature="0"
       style="fill:#000000;fill-opacity:1;stroke:#000000;stroke-width:0.02958141" />
    <path
       d="m 17.359633,264.47933 c 0,0 0,0.0587 0,0.0587 0,0 1.938101,0.48042 1.938101,0.48042 0,0 1.759196,0.42937 1.759196,0.42937 0,0 -0.777624,1.40868 -0.777624,1.40868 0,0 -1.587154,2.87609 -1.587154,2.87609 0,0 -1.272891,2.31847 -1.272891,2.31847 0,0 0.954148,-0.78799 0.954148,-0.78799 0,0 1.34176,-1.14456 1.34176,-1.14456 0,0 3.756935,-3.19509 3.756935,-3.19509 0,0 2.444979,-2.07958 2.444979,-2.07958 0,0 0.834872,-0.70847 0.834872,-0.70847 0,0 0.447259,-0.41908 0.447259,-0.41908 0,0 -0.924323,-0.22392 -0.924323,-0.22392 0,0 -1.699569,-0.41792 -1.699569,-0.41792 0,0 -1.162856,-0.26794 -1.162856,-0.26794 0,0 1.213245,-2.28913 1.213245,-2.28913 0,0 1.642616,-3.08151 1.642616,-3.08151 0,0 0.551019,-1.02717 0.551019,-1.02717 0,0 0.260594,-0.49891 0.260594,-0.49891 0,0 -0.345277,0.27175 -0.345277,0.27175 0,0 -0.579039,0.51564 -0.579039,0.51564 0,0 -1.78902,1.58478 -1.78902,1.58478 0,0 -4.651435,4.11866 -4.651435,4.11866 0,0 -1.520663,1.34972 -1.520663,1.34972 0,0 -0.834873,0.72899 -0.834873,0.72899 z"
       id="Selection #2-6"
       inkscape:connector-curvature="0"
       style="fill:#000000;fill-opacity:1;stroke:#000000;stroke-width:0.02958141" />
    <path
       id="Selection #1-73"
       d="m 4.8545619,259.11305 c -0.8812391,-0.0702 -1.7646329,-0.0885 -2.6503888,-0.0782 -0.4487019,0.005 -1.0344486,0.12887 -1.40470659,0.38557 -0.57274633,0.39704 -0.76013367,1.00017 -0.851569,1.6492 -0.14125501,1.00044 -0.11475841,2.28652 -0.10256951,3.31304 l 0.0240711,0.26087 c 0.0247024,0.35556 0.0304728,0.48626 0.15265963,0.83478 0.04588927,0.13069 0.15080247,0.35373 0.25284902,0.4466 0.1158313,0.10487 0.43494425,0.33001 0.5775156,0.38948 0.26373075,0.10956 1.10019875,0.18079 1.40471565,0.17843 h 1.3251989 0.2695456 l 0.2605303,0.029 v 0.2087 c 0.0036,0.28957 0.1934729,0.92635 0.2804184,1.22609 0.3691851,1.27329 1.0304728,2.41799 1.9734688,3.36494 0.243833,0.24469 0.52344,0.47244 0.7940674,0.6887 0.3217549,0.25695 0.6604765,0.4813 1.007141,0.70304 0.2430398,0.15547 0.5311394,0.34199 0.8216108,0.38244 l -0.2051485,0.39129 -0.2902004,0.67825 c -0.035518,0.0973 -0.1195271,0.29765 -0.1248469,0.39131 -0.015059,0.0702 0,0.1153 0,0.18261 0.030207,0.24965 0.0504,0.34487 0.1805001,0.57391 0.1500175,0.264 0.4892623,0.38635 0.7577536,0.49539 l 1.8287509,0.63522 c 1.010864,0.31799 2.114759,0.63703 3.153986,0.84156 l 0.662577,0.0997 c 0.08799,0.0117 0.293392,0.0439 0.37106,0.0324 0.09463,-0.0141 0.312748,-0.108 0.397566,-0.15678 0.09248,-0.053 0.288894,-0.20139 0.357537,-0.28017 0.319095,-0.36652 0.557889,-1.21383 0.649604,-1.69331 l 0.02651,0.0783 0.50357,0.0478 1.351704,0.10643 c 1.340039,0.0902 2.683782,0.15888 4.028589,0.15888 h 1.325182 l 0.503579,-0.026 c 0.195331,-0.003 0.323621,-0.0342 0.503571,-0.10435 -0.04743,0.17008 0.03155,0.35478 0.07636,0.52173 0.132267,0.49253 0.4556,0.89895 0.904338,1.14783 0.156356,0.0866 0.343751,0.18313 0.525559,0.17921 0.657834,-0.0144 1.273261,-0.15965 1.912794,-0.29869 l 2.411847,-0.59245 c 0.50834,-0.14216 1.30531,-0.32528 1.690426,-0.68424 0.209628,-0.1954 0.219167,-0.68269 0.217851,-0.95166 -0.0027,-0.37329 -0.105473,-0.84755 -0.230329,-1.19999 l -0.193734,-0.54782 0.291534,-0.0547 c 0.523991,-0.17088 0.961036,-0.4568 1.404707,-0.76905 0.571963,-0.40252 0.875947,-0.63834 1.37821,-1.13269 l 0.446061,-0.44348 c 0.203281,-0.22148 0.667112,-0.81704 0.834349,-1.06957 0.852092,-1.28817 1.341355,-2.78164 1.506726,-4.30432 l 0.07528,-0.91304 v -1.33043 c 0,-0.68088 -0.273783,-1.94765 -0.530067,-2.5826 0.152659,-0.0555 0.32784,-0.17348 0.477065,-0.25279 l 0.768608,-0.36756 c 0.09225,-0.0427 0.42326,-0.20921 0.50357,-0.21365 0.09754,-0.005 0.252326,0.11113 0.344564,0.15652 0.20486,0.1007 0.464857,0.18183 0.689082,0.22853 0.196151,0.0407 0.359927,0.0467 0.5566,0.0599 l 0.212036,0.0227 c 0.133313,0.005 0.175703,-0.0149 0.291534,-0.0227 0.496412,-0.0336 0.935847,-0.12156 1.404707,-0.29061 0.381392,-0.13773 0.787956,-0.35452 1.086649,-0.62712 0.06176,-0.0563 0.230589,-0.21835 0.266372,-0.2846 0.0559,-0.10331 -0.009,-0.15757 -0.07393,-0.2348 l -0.324936,-0.36521 c -0.04084,-0.0439 -0.124847,-0.1513 -0.18792,-0.1513 -0.09302,0 -0.231112,0.18965 -0.293653,0.25461 -0.160611,0.16695 -0.442625,0.34121 -0.658096,0.43355 -0.332086,0.14218 -0.777624,0.27105 -1.139678,0.29453 h -0.6891 l -0.371042,-0.0488 c 0.373169,-0.21157 0.719563,-0.43226 0.972962,-0.78261 0.951209,-1.31556 -0.685666,-3.47347 -2.324667,-2.87086 -0.21282,0.0783 -0.298954,0.12497 -0.477065,0.26896 -0.186584,0.15104 -0.295528,0.30235 -0.402605,0.51495 -0.103355,0.20453 -0.177561,0.55382 -0.180473,0.78261 -0.0072,0.63156 0.244095,1.40452 0.63608,1.90435 -0.280661,0.0788 -1.173332,0.54312 -1.457718,0.70433 -0.04372,-0.15834 -0.131193,-0.29738 -0.2054,-0.44347 -0.169618,-0.33339 -0.414524,-0.73252 -0.624964,-1.04348 -0.895024,-1.3213 -2.203535,-2.52129 -3.542762,-3.3999 -0.710837,-0.46643 -1.444997,-0.87208 -2.199821,-1.26391 l -1.272205,-0.62086 c -1.36282,-0.56269 -2.761686,-0.93808 -4.214093,-1.19582 l -0.609602,-0.11244 -0.954138,-0.1187 -1.00715,-0.11869 -0.609592,-0.0328 -0.662578,-0.0499 -0.450577,-0.026 h -0.742102 l -0.424063,-0.0261 h -0.450577 l -0.450559,0.0261 h -0.609602 l -0.397548,0.026 -0.37106,0.0237 -0.636081,0.0328 -1.431212,0.17165 c -0.184214,0.0303 -0.719843,0.14034 -0.874631,0.13122 -0.135178,-0.008 -0.392273,-0.20166 -0.503569,-0.28462 l -1.086676,-0.82773 c -0.797233,-0.56243 -1.443392,-0.88408 -2.38535,-1.15147 -0.261856,-0.0743 -0.8258481,-0.20557 -1.0866399,-0.2087 l -0.5300939,-0.026 c -0.3474577,-4.4e-4 -0.6957184,0.018 -1.0336468,0.10095 -0.1200591,0.0295 -0.3752886,0.0863 -0.4635409,0.16279 -0.09172,0.0794 -0.1749467,0.45131 -0.1603499,0.57104 0.034978,0.28826 0.4476376,0.88357 0.6032095,1.17392 0.3466821,0.64669 0.7540575,1.66485 0.7627847,2.39998 0.00275,0.18026 0.00275,0.46461 -0.083758,0.6261 -0.076366,0.1432 -0.3625767,0.36886 -0.4993246,0.47269 l -0.8746399,0.70356 c -0.2721962,0.24835 -0.5462399,0.49721 -0.7829154,0.78025 -0.4598537,0.54992 -0.8115496,1.16504 -1.1319968,1.8 -0.1576902,0.31278 -0.4630185,0.89034 -0.4704383,1.22608 z m 3.5515246,-9.10431 c 0.280139,0.073 0.4579885,0.0516 0.7421034,0.0522 l 0.4505678,0.0336 c 0.6403263,0.0786 1.4781293,0.35817 2.0408143,0.66704 0.549413,0.30183 1.04743,0.68217 1.537216,1.068 0.220501,0.17374 0.778669,0.58851 1.033637,0.66678 0.119537,0.0365 0.323621,0.0442 0.450569,0.0427 l 1.192679,-0.17165 c 0.64139,-0.0892 1.288353,-0.14087 1.934782,-0.16852 l 0.291554,-0.026 h 0.477073 l 0.424045,-0.025 h 1.219176 l 0.450568,0.026 1.537235,0.0758 0.583078,0.0328 0.742103,0.0959 0.954147,0.11531 0.450568,0.0863 c 1.036838,0.18392 2.076326,0.40645 3.074451,0.74348 0.517094,0.17452 1.099379,0.39678 1.590237,0.63078 l 0.821611,0.42888 c 0.894248,0.46512 1.732835,0.93808 2.544384,1.53729 1.885476,1.39174 3.25175,3.04564 3.949614,5.27919 0.183934,0.588 0.300811,1.1867 0.346393,1.8 l 0.02407,0.26087 v 0.7826 l -0.02651,0.52174 c 0,0.48417 -0.166977,1.52948 -0.288632,2.0087 -0.36841,1.45042 -1.113695,2.76651 -2.1773,3.83451 l -0.237459,0.2113 c -0.54415,0.49877 -1.136766,0.96104 -1.775777,1.33851 l -1.028867,0.62922 c -0.103381,0.091 -0.329995,0.42991 -0.376623,0.56035 -0.0779,0.21809 0.118743,0.59451 0.194527,0.80869 0.146313,0.41348 0.203823,0.8413 0.203823,1.27826 l -1.139668,0.33521 c -0.920222,0.24521 -1.848126,0.48627 -2.782917,0.67174 l -0.927615,0.17087 c -0.07501,0.009 -0.278823,0.038 -0.344564,0.03 -0.06599,-0.008 -0.129066,-0.0462 -0.18553,-0.0794 -0.307979,-0.18 -0.366273,-0.48157 -0.45825,-0.78939 -0.06122,-0.20374 -0.216543,-0.62817 -0.373431,-0.76618 -0.05572,-0.0491 -0.182356,-0.10616 -0.254967,-0.12625 -0.101263,-0.0284 -0.287054,-0.0219 -0.397567,-0.0206 l -0.265037,0.0237 -0.742103,0.0284 -0.424072,0.026 h -0.901135 l -0.371043,-0.026 h -0.636098 l -0.450568,-0.026 -0.821611,-0.026 -0.344564,-0.0261 -0.556573,-0.026 -0.291534,-0.0237 -0.5566,-0.0308 -1.00714,-0.0804 -0.583078,-0.0545 c -0.394105,-0.0141 -0.882051,0.10617 -1.075001,0.47634 l -0.241444,0.80869 c -0.05779,0.17114 -0.128814,0.3913 -0.215471,0.54783 -0.03579,0.0647 -0.09861,0.16591 -0.172034,0.19278 -0.06122,0.0224 -0.363361,-0.0292 -0.44286,-0.0427 l -1.086676,-0.23165 c -0.937441,-0.23061 -1.866128,-0.49591 -2.782888,-0.7967 l -1.4831598,-0.54182 c -0.036872,-0.0178 -0.078702,-0.0381 -0.097011,-0.0769 -0.035253,-0.0753 0.088264,-0.35139 0.1227274,-0.43329 l 0.4222058,-0.93913 c 0.065724,-0.17244 0.1221776,-0.30314 0.018574,-0.46957 -0.3646952,-0.58565 -0.9419497,-0.81599 -1.5011724,-1.18305 -0.6244416,-0.41007 -1.1921481,-0.90233 -1.6917427,-1.45172 -0.7246214,-0.7967 -1.1500003,-1.77523 -1.443392,-2.79131 l -0.2915616,-1.14781 c -0.033898,-0.1187 -0.1009736,-0.37096 -0.1887036,-0.45314 -0.037595,-0.035 -0.1510638,-0.0933 -0.201163,-0.11999 -0.071583,-0.0383 -0.2443564,-0.12208 -0.3180402,-0.14375 -0.333682,-0.0984 -1.0553917,-0.0652 -1.4312033,-0.0658 l -0.4505681,-0.026 c -0.2812118,-4.4e-4 -0.5701048,-8.8e-4 -0.8481341,-0.0456 -0.1979897,-0.0319 -0.3665346,-0.0433 -0.5197441,-0.18575 -0.14391464,-0.13356 -0.19348191,-0.56711 -0.19586203,-0.7599 v -0.54782 l -0.0265057,-0.4174 v -0.54783 l 0.0265057,-0.41739 v -0.46955 c 0,-0.30392 0.0758201,-1.04505 0.15902463,-1.33044 0.0680667,-0.234 0.12271,-0.39991 0.3191129,-0.56817 0.2350794,-0.20164 0.6283992,-0.23112 0.9265691,-0.2413 l 0.6096017,-0.0252 0.4240445,0.026 h 0.4240627 l 0.3710694,0.026 c 0.3967545,0.004 0.6114318,0.0105 1.0071406,-0.0678 0.1129013,-0.0224 0.2772269,-0.0439 0.3623063,-0.12261 0.072395,-0.0668 0.1420483,-0.21547 0.1876578,-0.30522 l 0.2827804,-0.6 c 0.2247479,-0.50999 0.4699151,-1.01477 0.7686081,-1.48695 0.4219447,-0.66678 0.8600617,-1.13947 1.4730989,-1.64139 0.4010003,-0.32817 1.0702306,-0.77191 1.3310224,-1.20207 0.1060042,-0.17479 0.2107019,-0.73044 0.2059328,-0.93913 l -0.027321,-0.23478 v -0.23479 c -0.071585,-0.69365 -0.348783,-1.48199 -0.6432567,-2.11303 l -0.4084209,-0.75652 c -0.053826,-0.0921 -0.1733405,-0.23557 -0.1929499,-0.31305 z M 39.65416,256.3301 c 0.599775,-0.0642 1.13517,0.60809 1.112099,1.16557 -0.01506,0.36573 -0.345609,0.57912 -0.635025,0.7513 -0.07501,0.0447 -0.352246,0.2126 -0.422999,0.21521 -0.07366,0.003 -0.112369,-0.053 -0.150541,-0.10617 -0.05959,-0.0827 -0.20037,-0.34643 -0.241994,-0.44295 -0.215462,-0.50035 -0.399135,-1.41756 0.33846,-1.58296 z m -29.445801,1.824 c -0.4664801,0.09 -0.8184546,0.26948 -1.0516765,0.69808 -0.5242519,0.96391 0.2830507,2.14252 1.3962135,1.97112 0.213353,-0.0328 0.403913,-0.10048 0.583078,-0.2207 0.129887,-0.0871 0.259746,-0.21521 0.350388,-0.34173 0.103381,-0.14452 0.170429,-0.32322 0.206211,-0.49564 0.170935,-0.82645 -0.44368,-1.58374 -1.298701,-1.61113 -0.06997,-0.008 -0.116626,-0.004 -0.185513,0 z"
       inkscape:connector-curvature="0"
       style="fill:#333333;fill-opacity:1;stroke:#000000;stroke-width:0.02629454"
       sodipodi:nodetypes="cccccccccccccccccccccccccccccccccccsccccccccccccccccccccccccccccccccccsccccccccccccccccccccccccccccccccccccccccccccccccccccccccccccccccccccccccccccccccccccccccccccccccccccccccccccccccccccccccccccccccccccccccccccccccccccccccccccccccccccccccccccc" />
  </g>
</svg>
