<?xml version="1.0" encoding="UTF-8" standalone="no"?>
<!-- Created with Inkscape (http://www.inkscape.org/) -->

<svg
   xmlns:dc="http://purl.org/dc/elements/1.1/"
   xmlns:cc="http://creativecommons.org/ns#"
   xmlns:rdf="http://www.w3.org/1999/02/22-rdf-syntax-ns#"
   xmlns:svg="http://www.w3.org/2000/svg"
   xmlns="http://www.w3.org/2000/svg"
   xmlns:sodipodi="http://sodipodi.sourceforge.net/DTD/sodipodi-0.dtd"
   xmlns:inkscape="http://www.inkscape.org/namespaces/inkscape"
   width="100mm"
   height="100mm"
   viewBox="0 0 100 100"
   version="1.1"
   id="svg4860"
   inkscape:version="0.92.5 (2060ec1f9f, 2020-04-08)"
   sodipodi:docname="icon.svg">
  <defs
     id="defs4854" />
  <sodipodi:namedview
     id="base"
     pagecolor="#ffffff"
     bordercolor="#666666"
     borderopacity="1.0"
     inkscape:pageopacity="0.0"
     inkscape:pageshadow="2"
     inkscape:zoom="0.7"
     inkscape:cx="-41.563899"
     inkscape:cy="-80.46171"
     inkscape:document-units="mm"
     inkscape:current-layer="layer1"
     showgrid="false"
     inkscape:window-width="1848"
     inkscape:window-height="1016"
     inkscape:window-x="72"
     inkscape:window-y="27"
     inkscape:window-maximized="1" />
  <metadata
     id="metadata4857">
    <rdf:RDF>
      <cc:Work
         rdf:about="">
        <dc:format>image/svg+xml</dc:format>
        <dc:type
           rdf:resource="http://purl.org/dc/dcmitype/StillImage" />
        <dc:title></dc:title>
      </cc:Work>
    </rdf:RDF>
  </metadata>
  <g
     inkscape:label="Layer 1"
     inkscape:groupmode="layer"
     id="layer1"
     transform="translate(0,-197)">
    <path
       id="Selection #1-6"
       d="m 11.47028,245.04354 c -1.9778955,-0.15841 -3.9606058,-0.19965 -5.9486148,-0.17666 -1.0070981,0.0118 -2.3217663,0.29088 -3.1527735,0.87031 -1.2854907,0.89623 -1.70608281,2.25763 -1.91129271,3.72267 -0.31704904,2.25823 -0.25756879,5.16123 -0.23021392,7.47835 l 0.0541304,0.58883 c 0.0553627,0.80262 0.0684212,1.09762 0.34263876,1.88432 0.10290381,0.29501 0.33846432,0.79847 0.56750047,1.00809 0.259978,0.23674 0.9762039,0.7449 1.2961951,0.87915 0.5919171,0.24732 2.4693195,0.40807 3.152779,0.40278 h 2.9743316 0.6049732 l 0.5847414,0.0653 v 0.47109 c 0.00744,0.65362 0.43424,2.091 0.629385,2.76758 0.828603,2.87416 2.312826,5.45801 4.429323,7.5955 0.547262,0.55234 1.17483,1.0664 1.782213,1.55455 0.722169,0.58002 1.482405,1.08642 2.260467,1.58695 0.545493,0.35094 1.192119,0.77198 1.844049,0.86326 l -0.460427,0.88325 -0.651339,1.53101 c -0.07971,0.21964 -0.268273,0.67186 -0.280215,0.88326 -0.03373,0.15841 0,0.26027 0,0.41221 0.06784,0.5635 0.11307,0.77844 0.405121,1.29544 0.336695,0.59591 1.098108,0.87209 1.70073,1.11823 l 4.104512,1.43384 c 2.268816,0.71779 4.746425,1.43794 7.078897,1.89961 l 1.487113,0.22493 c 0.197501,0.0265 0.658514,0.0989 0.83283,0.073 0.212386,-0.0318 0.701932,-0.24378 0.892311,-0.35388 0.207567,-0.11954 0.648396,-0.45459 0.802475,-0.63242 0.716172,-0.82732 1.252138,-2.7399 1.457988,-3.82221 l 0.05948,0.17666 1.130234,0.10777 3.033812,0.24024 c 3.007636,0.20375 6.023567,0.35862 9.041908,0.35862 h 2.974284 l 1.130228,-0.0589 c 0.43842,-0.005 0.726345,-0.0771 1.130234,-0.23553 -0.106433,0.38392 0.07083,0.80082 0.171319,1.17768 0.296871,1.11175 1.02257,2.02917 2.029716,2.59092 0.35094,0.19551 0.771532,0.41337 1.179596,0.40454 1.476461,-0.0324 2.85773,-0.36038 4.293124,-0.67423 l 5.413242,-1.33727 c 1.140933,-0.32091 2.929682,-0.73429 3.794041,-1.54453 0.470493,-0.44105 0.491909,-1.541 0.488961,-2.14812 -0.0054,-0.84263 -0.236745,-1.91315 -0.516961,-2.70867 l -0.434826,-1.23658 0.654335,-0.12366 c 1.176062,-0.38569 2.156972,-1.03108 3.152773,-1.73592 1.283721,-0.90859 1.966008,-1.44091 3.093294,-2.55676 l 1.001154,-1.00105 c 0.45624,-0.49992 1.49728,-1.84427 1.872632,-2.41426 1.912465,-2.90773 3.01058,-6.27886 3.381755,-9.71596 l 0.168961,-2.06094 v -3.00312 c 0,-1.53688 -0.614502,-4.39632 -1.189717,-5.82956 0.34265,-0.12545 0.73583,-0.39159 1.070758,-0.57061 l 1.725084,-0.82967 c 0.20704,-0.0966 0.949975,-0.47225 1.130234,-0.48227 0.218922,-0.0129 0.566317,0.25085 0.773357,0.35331 0.459776,0.22729 1.043336,0.41042 1.546585,0.51583 0.440253,0.0919 0.807836,0.10541 1.249257,0.13542 l 0.475891,0.0512 c 0.299226,0.0118 0.394364,-0.0336 0.654342,-0.0512 1.114167,-0.0759 2.100437,-0.27439 3.152767,-0.65597 0.856021,-0.31091 1.768517,-0.80024 2.43891,-1.41558 0.138611,-0.12718 0.517547,-0.49286 0.597851,-0.64243 0.125497,-0.23318 -0.01928,-0.35565 -0.165968,-0.52995 l -0.729284,-0.82439 c -0.0916,-0.0989 -0.280214,-0.34153 -0.42177,-0.34153 -0.208792,0 -0.518723,0.4281 -0.659103,0.57472 -0.360461,0.37686 -0.993447,0.77021 -1.477044,0.97864 -0.745351,0.32093 -1.745328,0.61182 -2.557924,0.66482 h -1.546642 l -0.832776,-0.11011 c 0.837537,-0.47756 1.615015,-0.97573 2.183748,-1.76654 2.134915,-2.96955 -1.538944,-7.84048 -5.217564,-6.48025 -0.477668,0.17666 -0.670994,0.28206 -1.070759,0.60711 -0.418776,0.34094 -0.663271,0.68246 -0.903605,1.16238 -0.231981,0.46164 -0.398533,1.25013 -0.40507,1.76654 -0.01656,1.42559 0.547857,3.17033 1.427634,4.29856 -0.629921,0.17784 -2.633459,1.22598 -3.271733,1.58988 -0.09813,-0.35743 -0.294449,-0.67128 -0.461009,-1.00104 -0.380705,-0.75254 -0.930379,-1.65348 -1.402686,-2.35537 -2.008835,-2.9825 -4.94569,-5.69118 -7.951502,-7.67442 -1.595423,-1.05285 -3.243202,-1.96851 -4.937348,-2.85296 l -2.855371,-1.40144 c -3.058761,-1.27014 -6.198413,-2.1175 -9.458265,-2.69927 l -1.36821,-0.25379 -2.141506,-0.26794 -2.260462,-0.2679 -1.368205,-0.0742 -1.487118,-0.11248 -1.011267,-0.0589 H 45.97231 l -0.951792,-0.0589 h -1.011273 l -1.011267,0.0589 h -1.36821 l -0.892257,0.0589 -0.832831,0.0536 -1.427632,0.0742 -3.212254,0.38747 c -0.41347,0.0683 -1.615659,0.3168 -1.963064,0.29618 -0.303396,-0.0182 -0.880423,-0.45517 -1.130229,-0.64242 l -2.438958,-1.86841 c -1.789335,-1.26956 -3.239614,-1.99561 -5.35376,-2.59916 -0.587732,-0.16782 -1.853577,-0.46401 -2.438905,-0.47109 l -1.189762,-0.0589 c -0.779833,-0.002 -1.561478,0.0406 -2.319949,0.22788 -0.269451,0.0665 -0.842303,0.1949 -1.040396,0.36744 -0.205851,0.179 -0.392641,1.01869 -0.359875,1.28898 0.07848,0.65067 1.004683,1.99441 1.353858,2.64979 0.778111,1.45977 1.69243,3.75803 1.712021,5.41739 0.0054,0.40689 0.0054,1.04874 -0.187969,1.41322 -0.171319,0.32329 -0.813771,0.83263 -1.120701,1.06699 l -1.963064,1.58812 c -0.610918,0.56058 -1.22601,1.12234 -1.757209,1.76124 -1.032097,1.24127 -1.821456,2.62977 -2.540678,4.06303 -0.353941,0.70603 -1.039218,2.00973 -1.055868,2.76758 z m 7.971155,-20.55071 c 0.628745,0.16489 1.027922,0.11658 1.665607,0.11777 l 1.011273,0.0759 c 1.437164,0.17724 3.317562,0.8085 4.580459,1.50567 1.233131,0.6813 2.350891,1.53984 3.450177,2.41074 0.494898,0.39218 1.747681,1.32844 2.319942,1.50509 0.268279,0.0824 0.726345,0.0995 1.011273,0.0966 l 2.67688,-0.38747 c 1.439568,-0.20139 2.891617,-0.31798 4.342488,-0.38039 l 0.654389,-0.0589 h 1.070753 l 0.951738,-0.0566 h 2.736355 l 1.011273,0.0589 3.45023,0.17135 1.308671,0.0742 1.665607,0.2167 2.141501,0.26026 1.011273,0.1949 c 2.327119,0.41515 4.660177,0.91744 6.900406,1.67822 1.16059,0.39394 2.467496,0.89564 3.569191,1.42382 l 1.844044,0.96807 c 2.007074,1.04992 3.889243,2.11749 5.710698,3.47007 4.231822,3.14149 7.298342,6.87476 8.864636,11.91646 0.412831,1.32725 0.67517,2.67864 0.777477,4.06303 l 0.05417,0.58886 v 1.76653 l -0.05945,1.17768 c 0,1.0929 -0.374768,3.45241 -0.647804,4.53411 -0.826896,3.27398 -2.499618,6.24471 -4.8868,8.65545 l -0.532964,0.47696 c -1.221303,1.12587 -2.551389,2.16931 -3.98561,3.02136 l -2.309238,1.4203 c -0.232032,0.20549 -0.740637,0.97041 -0.845306,1.26484 -0.174907,0.49228 0.266515,1.34198 0.436603,1.82541 0.328399,0.93334 0.457479,1.89905 0.457479,2.88535 l -2.557919,0.75667 c -2.065371,0.55351 -4.147983,1.09762 -6.246067,1.51628 l -2.081965,0.38569 c -0.168376,0.0201 -0.625802,0.086 -0.773355,0.0677 -0.14814,-0.0182 -0.289689,-0.10423 -0.416418,-0.179 -0.691222,-0.40631 -0.822067,-1.08702 -1.028508,-1.78185 -0.137381,-0.45988 -0.486012,-1.41793 -0.838135,-1.72943 -0.124955,-0.11072 -0.409291,-0.23966 -0.572256,-0.285 -0.227271,-0.0642 -0.644275,-0.0494 -0.892316,-0.0466 l -0.594855,0.0536 -1.665608,0.0641 -0.951792,0.0589 h -2.022544 l -0.832773,-0.0589 h -1.42769 l -1.011267,-0.0589 -1.844055,-0.0589 -0.773345,-0.0589 -1.249195,-0.0589 -0.654335,-0.0536 -1.249243,-0.0695 -2.260468,-0.18137 -1.30867,-0.12307 c -0.884549,-0.0318 -1.979714,0.23967 -2.412776,1.07523 l -0.54191,1.82542 c -0.129666,0.38629 -0.289102,0.88327 -0.483602,1.23658 -0.08031,0.14604 -0.221327,0.3745 -0.386116,0.43515 -0.137375,0.0506 -0.815536,-0.0659 -0.993977,-0.0966 l -2.438958,-0.52289 c -2.104028,-0.52054 -4.188404,-1.1194 -6.246018,-1.79833 l -3.328859,-1.22305 c -0.08272,-0.04 -0.176673,-0.0859 -0.217739,-0.1737 -0.07913,-0.17017 0.198092,-0.79317 0.275455,-0.97805 l 0.947612,-2.11985 c 0.147499,-0.38924 0.274223,-0.68425 0.04174,-1.05992 -0.818538,-1.32197 -2.114147,-1.84191 -3.369281,-2.67042 -1.401508,-0.92567 -2.675702,-2.03682 -3.796989,-3.27692 -1.62637,-1.79834 -2.581105,-4.00711 -3.239614,-6.30066 l -0.65439,-2.59092 c -0.07613,-0.26791 -0.226625,-0.83734 -0.42354,-1.02283 -0.08443,-0.0789 -0.33905,-0.2108 -0.451481,-0.27086 -0.160609,-0.0866 -0.548435,-0.27558 -0.713816,-0.32446 -0.7489382,-0.22198 -2.3687667,-0.1472 -3.2122541,-0.14839 l -1.0112725,-0.0589 c -0.6311551,-0.002 -1.279546,-0.003 -1.9035786,-0.10304 -0.4443643,-0.0719 -0.8226586,-0.0978 -1.1665344,-0.41927 -0.3229878,-0.30148 -0.4342404,-1.28014 -0.4395982,-1.7153 v -1.23658 l -0.059476,-0.94215 v -1.23657 l 0.059476,-0.94215 v -1.05992 c 0,-0.68602 0.1701471,-2.35892 0.3569375,-3.00311 0.1528518,-0.5282 0.2753954,-0.9027 0.7162259,-1.28251 0.5276112,-0.45518 1.4103956,-0.52173 2.0796157,-0.54469 l 1.3682046,-0.0571 0.9517382,0.0589 h 0.9517923 l 0.8328307,0.0589 c 0.8904879,0.01 1.3723249,0.0235 2.2604619,-0.1531 0.253394,-0.0507 0.622215,-0.0989 0.813179,-0.27677 0.162384,-0.15073 0.318819,-0.48638 0.421185,-0.68894 l 0.634684,-1.35434 c 0.504431,-1.1512 1.054695,-2.29061 1.725088,-3.35641 0.947026,-1.5051 1.930352,-2.57209 3.30627,-3.70503 0.900021,-0.74077 2.402072,-1.74239 2.987393,-2.7134 0.237923,-0.39452 0.472898,-1.64877 0.462192,-2.11985 l -0.06124,-0.52996 v -0.52996 c -0.160615,-1.56572 -0.782829,-3.34522 -1.443748,-4.76964 l -0.916654,-1.70764 c -0.120786,-0.20776 -0.389058,-0.53161 -0.433068,-0.7065 z m 70.134222,14.26891 c 1.346147,-0.14486 2.547803,1.3726 2.496033,2.63095 -0.03377,0.82556 -0.77571,1.30723 -1.425283,1.69588 -0.16832,0.10069 -0.790592,0.47991 -0.949382,0.48579 -0.165376,0.007 -0.252217,-0.11954 -0.337873,-0.23966 -0.133842,-0.18667 -0.449711,-0.78198 -0.543137,-0.99986 -0.483605,-1.1294 -0.895844,-3.19978 0.759642,-3.5731 z m -66.089138,4.11719 c -1.04698,0.20315 -1.836981,0.60827 -2.360417,1.57575 -1.176648,2.17578 0.635276,4.83619 3.133714,4.44932 0.478841,-0.0742 0.906551,-0.2267 1.308675,-0.49816 0.291513,-0.19669 0.582972,-0.4858 0.786412,-0.77139 0.232032,-0.32623 0.382528,-0.72959 0.462832,-1.11881 0.383651,-1.86546 -0.995796,-3.57488 -2.914852,-3.63671 -0.157026,-0.0177 -0.261748,-0.008 -0.416364,0 z"
       inkscape:connector-curvature="0"
       style="fill:#333333;fill-opacity:1;stroke:#000000;stroke-width:0.0591846"
       sodipodi:nodetypes="cccccccccccccccccccccccccccccccccccsccccccccccccccccccccccccccccccccccsccccccccccccccccccccccccccccccccccccccccccccccccccccccccccccccccccccccccccccccccccccccccccccccccccccccccccccccccccccccccccccccccccccccccccccccccccccccccccccccccccccccccccccc" />
    <path
       d="m 28.951511,256.88773 c 0,0 0,0.0761 0,0.0761 0,0 2.32748,0.62283 2.32748,0.62283 0,0 2.11265,0.55663 2.11265,0.55663 0,0 -0.933872,1.82626 -0.933872,1.82626 0,0 -1.906022,3.7286 -1.906022,3.7286 0,0 -1.528619,3.00572 -1.528619,3.00572 0,0 1.145839,-1.02157 1.145839,-1.02157 0,0 1.611329,-1.48383 1.611329,-1.48383 0,0 4.511742,-4.14217 4.511742,-4.14217 0,0 2.936208,-2.69602 2.936208,-2.69602 0,0 1.002611,-0.91846 1.002611,-0.91846 0,0 0.537106,-0.54331 0.537106,-0.54331 0,0 -1.110023,-0.29029 -1.110023,-0.29029 0,0 -2.041034,-0.5418 -2.041034,-0.5418 0,0 -1.396485,-0.34736 -1.396485,-0.34736 0,0 1.457009,-2.96767 1.457009,-2.96767 0,0 1.972629,-3.99493 1.972629,-3.99493 0,0 0.661721,-1.33166 0.661721,-1.33166 0,0 0.312961,-0.64679 0.312961,-0.64679 0,0 -0.414659,0.35231 -0.414659,0.35231 0,0 -0.695376,0.66849 -0.695376,0.66849 0,0 -2.148451,2.05454 -2.148451,2.05454 0,0 -5.585959,5.33951 -5.585959,5.33951 0,0 -1.826173,1.74979 -1.826173,1.74979 0,0 -1.002612,0.94509 -1.002612,0.94509 z"
       id="Selection #2-6-5"
       inkscape:connector-curvature="0"
       style="fill:#000000;fill-opacity:1;stroke:#000000;stroke-width:0.03691023" />
    <path
       d="m 47.609186,264.09597 c 0,0 0,3.33889 0,3.33889 10e-4,0.22473 0.07281,0.59275 0.143497,0.80721 0.105447,0.31976 0.291065,0.65585 0.520817,0.89893 0.957897,1.01268 2.669037,0.94737 3.583178,-0.0917 0.146165,-0.1662 0.245873,-0.33187 0.339857,-0.53201 0.294133,-0.62632 0.272959,-1.2154 0.272959,-1.88961 0,0 0,-2.53168 0,-2.53168 0,0 18.705921,0 18.705921,0 0,0 0,2.47665 0,2.47665 0,0.3583 -0.01883,0.72667 0.02297,1.08239 0.06188,0.52505 0.260957,1.03377 0.607809,1.43095 0.816939,0.93526 2.36165,1.02974 3.314883,0.26584 0.500735,-0.40122 0.776029,-0.96921 0.865705,-1.60507 0.01651,-0.11722 0.03082,-0.19116 0.03104,-0.31187 0,0 0,-3.33889 0,-3.33889 0,0 2.5826,0 2.5826,0 0.03566,0 0.104206,0.004 0.132722,-0.0188 0.0305,-0.0247 0.02797,-0.0739 0.02867,-0.10969 0,0 0,-0.38526 0,-0.38526 0,0 0,-1.63277 0,-1.63277 0,0 0,-7.02635 0,-7.02635 0,0 -0.01797,-0.40359 -0.01797,-0.40359 -0.0016,-0.13999 -0.0405,-0.39113 -0.06815,-0.53204 -0.150469,-0.76922 -0.476889,-1.4126 -1.008648,-1.98132 -0.208583,-0.22308 -0.448006,-0.4124 -0.698732,-0.58338 -0.222392,-0.15154 -0.550065,-0.31592 -0.807069,-0.3915 0,0 -0.30489,-0.0745 -0.30489,-0.0745 -0.05218,-0.0103 -0.107616,-0.0123 -0.143659,-0.057 0,0 -0.125368,-0.30619 -0.125368,-0.30619 0,0 -0.269919,-0.71548 -0.269919,-0.71548 0,0 -0.809575,-2.12809 -0.809575,-2.12809 0,0 -1.30922,-3.44897 -1.30922,-3.44897 -0.352607,-0.93085 -0.585397,-1.71971 -1.341705,-2.41849 -0.553815,-0.51166 -1.287174,-0.82409 -2.026612,-0.90499 0,0 -0.322837,-0.0345 -0.322837,-0.0345 0,0 -0.21521,0 -0.21521,0 0,0 -0.215216,-0.0177 -0.215216,-0.0177 0,0 -14.527136,0 -14.527136,0 0,0 -0.215215,0.0177 -0.215215,0.0177 0,0 -0.215216,0 -0.215216,0 0,0 -0.322827,0.0345 -0.322827,0.0345 -0.739443,0.0809 -1.472803,0.39333 -2.026617,0.90499 -0.76761,0.70905 -1.034297,1.59442 -1.388507,2.54691 0,0 -1.262428,3.33889 -1.262428,3.33889 0,0 -0.820878,2.16479 -0.820878,2.16479 0,0 -0.241569,0.6421 -0.241569,0.6421 -0.02313,0.0633 -0.101156,0.28545 -0.136305,0.32453 -0.04465,0.0499 -0.348115,0.10164 -0.43672,0.12898 -0.26256,0.0809 -0.596867,0.24508 -0.824993,0.39993 -0.24661,0.16712 -0.490171,0.36176 -0.696402,0.57917 -0.528542,0.55678 -0.866437,1.24052 -1.014576,1.99801 -0.0256,0.13118 -0.06294,0.38397 -0.06456,0.51368 0,0 -0.01792,0.4036 -0.01792,0.4036 0,0 0,9.00768 0,9.00768 0,0.0422 -0.0068,0.1176 0.02867,0.14639 0.02851,0.0229 0.09703,0.0188 0.132717,0.0188 0,0 0.484247,0 0.484247,0 0,0 2.098352,0 2.098352,0 z m 25.485247,-13.20883 c 0,0 -22.561881,0 -22.561881,0 0,0 0.131103,-0.38525 0.131103,-0.38525 0,0 0.298436,-0.82556 0.298436,-0.82556 0,0 0.878792,-2.4216 0.878792,-2.4216 0,0 0.71076,-1.96299 0.71076,-1.96299 0.134702,-0.36525 0.268662,-0.80702 0.463973,-1.13742 0.269554,-0.45626 0.659812,-0.7186 1.175615,-0.78702 0,0 0.161416,0 0.161416,0 0,0 0.215221,-0.0202 0.215221,-0.0202 0,0 14.509195,0 14.509195,0 0,0 0.215216,0.0167 0.215216,0.0167 0.379859,0.0268 0.692276,0.10309 0.986398,0.37168 0.163573,0.14932 0.279075,0.31683 0.386858,0.51055 0.144018,0.25886 0.300765,0.74996 0.409806,1.0457 0,0 0.717394,1.98132 0.717394,1.98132 0,0 0.824992,2.27485 0.824992,2.27485 0,0 0.345608,0.95397 0.345608,0.95397 0,0 0.131098,0.38526 0.131098,0.38526 z m -22.974382,2.54894 c 0,0 0.251101,0 0.251101,0 0.364243,0.0402 0.751268,0.17851 1.058128,0.38067 0.440136,0.29005 0.799005,0.71823 0.996286,1.2165 0.392947,0.99231 0.177726,2.2044 -0.583778,2.9529 -0.248929,0.24473 -0.523524,0.4181 -0.842934,0.54744 -0.258257,0.10456 -0.637051,0.17519 -0.914668,0.16859 0,0 -0.143487,-0.0193 -0.143487,-0.0193 0,0 -0.14348,0 -0.14348,0 -0.218788,-0.0318 -0.461095,-0.10164 -0.663578,-0.19024 -0.262565,-0.11484 -0.533367,-0.30013 -0.735322,-0.50579 -0.200342,-0.204 -0.378601,-0.43755 -0.505583,-0.69714 -0.496249,-1.01432 -0.320486,-2.28108 0.456802,-3.09728 0.199432,-0.20933 0.439216,-0.3825 0.694429,-0.51221 0.350277,-0.17795 0.689419,-0.23978 1.076084,-0.24419 z m 23.404813,0 c 0,0 0.251081,0 0.251081,0 0.345796,0.0386 0.727797,0.17007 1.02229,0.35738 0.224011,0.14271 0.431507,0.31756 0.601885,0.52432 0.871461,1.0567 0.822492,2.6379 -0.118364,3.63241 -0.231542,0.24474 -0.519924,0.42783 -0.824277,0.56084 -0.265261,0.11611 -0.626099,0.18785 -0.914669,0.19134 -0.291808,0.003 -0.623785,-0.0617 -0.896738,-0.16602 -0.266159,-0.10164 -0.54127,-0.26731 -0.753258,-0.46086 -1.105865,-1.01028 -1.176346,-2.7933 -0.140436,-3.88448 0.181686,-0.19154 0.427198,-0.37242 0.660538,-0.49241 0.37591,-0.19354 0.695686,-0.25739 1.111948,-0.26252 z"
       id="Selection #1-7-6"
       inkscape:connector-curvature="0"
       style="fill:#000000;fill-opacity:1;stroke:#000000;stroke-width:0.01813899" />
  </g>
</svg>
