<?xml version="1.0" encoding="UTF-8" standalone="no"?>
<!-- Created with Inkscape (http://www.inkscape.org/) -->

<svg
   xmlns:dc="http://purl.org/dc/elements/1.1/"
   xmlns:cc="http://creativecommons.org/ns#"
   xmlns:rdf="http://www.w3.org/1999/02/22-rdf-syntax-ns#"
   xmlns:svg="http://www.w3.org/2000/svg"
   xmlns="http://www.w3.org/2000/svg"
   xmlns:sodipodi="http://sodipodi.sourceforge.net/DTD/sodipodi-0.dtd"
   xmlns:inkscape="http://www.inkscape.org/namespaces/inkscape"
   width="100mm"
   height="100mm"
   viewBox="0 0 100 100"
   version="1.1"
   id="svg4860"
   inkscape:version="0.92.5 (2060ec1f9f, 2020-04-08)"
   sodipodi:docname="icon1.svg">
  <defs
     id="defs4854" />
  <sodipodi:namedview
     id="base"
     pagecolor="#ffffff"
     bordercolor="#666666"
     borderopacity="1.0"
     inkscape:pageopacity="0.0"
     inkscape:pageshadow="2"
     inkscape:zoom="1.4"
     inkscape:cx="254.13897"
     inkscape:cy="237.42131"
     inkscape:document-units="mm"
     inkscape:current-layer="layer1"
     showgrid="false"
     inkscape:window-width="1848"
     inkscape:window-height="1016"
     inkscape:window-x="72"
     inkscape:window-y="27"
     inkscape:window-maximized="1" />
  <metadata
     id="metadata4857">
    <rdf:RDF>
      <cc:Work
         rdf:about="">
        <dc:format>image/svg+xml</dc:format>
        <dc:type
           rdf:resource="http://purl.org/dc/dcmitype/StillImage" />
        <dc:title></dc:title>
      </cc:Work>
    </rdf:RDF>
  </metadata>
  <g
     inkscape:label="Layer 1"
     inkscape:groupmode="layer"
     id="layer1"
     transform="translate(0,-197)">
    <path
       id="Selection #1-3"
       d="m 41.808362,225.3716 c -0.593524,-0.0455 -1.18849,-0.0572 -1.785032,-0.0507 -0.302196,0.004 -0.696696,0.0835 -0.946062,0.24971 -0.385748,0.25712 -0.511963,0.64774 -0.573526,1.06807 -0.09515,0.6479 -0.07725,1.4808 -0.06911,2.14562 l 0.01628,0.16894 c 0.01663,0.23027 0.02053,0.31492 0.102809,0.54061 0.03088,0.0846 0.101561,0.22912 0.170274,0.28925 0.07805,0.068 0.292939,0.21372 0.38896,0.25222 0.177628,0.071 0.740976,0.1171 0.946062,0.11556 h 0.892516 0.18153 l 0.175459,0.0188 v 0.13516 c 0.0026,0.18752 0.130312,0.59991 0.188866,0.79403 0.248641,0.82464 0.694023,1.56597 1.329137,2.17924 0.164213,0.15846 0.35253,0.30595 0.534784,0.44601 0.216697,0.16641 0.444834,0.31171 0.678299,0.4553 0.163699,0.1007 0.357732,0.2215 0.553358,0.2477 l -0.138169,0.2534 -0.195449,0.43927 c -0.0239,0.063 -0.08053,0.19277 -0.08407,0.25341 -0.01018,0.0455 0,0.0747 0,0.11826 0.02036,0.16169 0.03389,0.22334 0.121569,0.37169 0.10103,0.17098 0.329504,0.25019 0.510343,0.32083 l 1.231657,0.41137 c 0.680793,0.20595 1.424247,0.41257 2.124164,0.54502 l 0.446249,0.0645 c 0.05929,0.008 0.19759,0.0285 0.249906,0.021 0.06371,-0.009 0.210625,-0.0699 0.267755,-0.10154 0.0623,-0.0343 0.194565,-0.13042 0.240792,-0.18145 0.214908,-0.23738 0.375749,-0.78611 0.437506,-1.09663 l 0.01787,0.0507 0.339167,0.0309 0.910347,0.0689 c 0.902507,0.0584 1.807527,0.10291 2.713246,0.10291 h 0.892489 l 0.339141,-0.0169 c 0.131568,-0.002 0.21797,-0.0221 0.339158,-0.0676 -0.03195,0.11015 0.02124,0.22976 0.05141,0.33787 0.08908,0.31899 0.306832,0.5822 0.609063,0.74337 0.105286,0.0561 0.231509,0.1186 0.353945,0.11606 0.443064,-0.009 0.857545,-0.10339 1.288246,-0.19343 l 1.624387,-0.38368 c 0.342343,-0.0921 0.879119,-0.21068 1.138467,-0.44315 0.141196,-0.12654 0.14762,-0.44213 0.146726,-0.61633 -0.0018,-0.24173 -0.07106,-0.54887 -0.155115,-0.77714 l -0.130488,-0.35478 0.196343,-0.0355 c 0.352918,-0.11066 0.647264,-0.29584 0.946079,-0.49806 0.385191,-0.26069 0.589932,-0.41341 0.928196,-0.73356 l 0.300426,-0.28719 c 0.136903,-0.14345 0.449285,-0.52917 0.561915,-0.6927 0.573888,-0.83426 0.9034,-1.80146 1.014775,-2.78761 l 0.05071,-0.59129 v -0.86164 c 0,-0.44095 -0.184388,-1.26135 -0.357006,-1.67257 0.102825,-0.0359 0.220811,-0.11234 0.321318,-0.1637 l 0.517652,-0.23803 c 0.06212,-0.0277 0.285046,-0.1355 0.33914,-0.13837 0.06566,-0.004 0.169929,0.0719 0.232067,0.10135 0.137957,0.0653 0.313071,0.11777 0.464098,0.148 0.13209,0.0263 0.242403,0.0303 0.374855,0.0388 l 0.142797,0.0147 c 0.08979,0.004 0.118338,-0.0101 0.196361,-0.0147 0.334317,-0.0217 0.630275,-0.0787 0.946061,-0.1882 0.256854,-0.0892 0.530679,-0.2296 0.731845,-0.40613 0.04158,-0.0365 0.155292,-0.14142 0.179396,-0.18433 0.03769,-0.0669 -0.0062,-0.10205 -0.04982,-0.15205 l -0.218838,-0.23652 c -0.02752,-0.0285 -0.08407,-0.0979 -0.126568,-0.0979 -0.06265,0 -0.155638,0.12283 -0.197768,0.1649 -0.108171,0.10811 -0.298107,0.22098 -0.443222,0.28077 -0.223643,0.0921 -0.523732,0.17555 -0.767559,0.19075 h -0.464115 l -0.24988,-0.0316 c 0.251322,-0.13703 0.484618,-0.27995 0.655272,-0.50684 0.640628,-0.85199 -0.461788,-2.24952 -1.565637,-1.85926 -0.143346,0.0507 -0.201334,0.0809 -0.321301,0.17419 -0.125674,0.0979 -0.199024,0.19581 -0.271153,0.33351 -0.06964,0.13245 -0.119586,0.35867 -0.12155,0.50683 -0.0053,0.40902 0.164407,0.90961 0.428391,1.2333 -0.189024,0.051 -0.790229,0.35174 -0.98175,0.45616 -0.02947,-0.10254 -0.0884,-0.1926 -0.138329,-0.28721 -0.114259,-0.21591 -0.279178,-0.4744 -0.420905,-0.67579 -0.602825,-0.8557 -1.484085,-1.63285 -2.386035,-2.20186 -0.478751,-0.30209 -0.973201,-0.56479 -1.481562,-0.81855 l -0.85681,-0.4021 c -0.91786,-0.36439 -1.859993,-0.6075 -2.838178,-0.77444 l -0.410551,-0.0728 -0.642628,-0.0769 -0.678289,-0.0769 -0.410544,-0.0212 -0.446258,-0.0323 -0.303452,-0.0169 h -0.499803 l -0.285605,-0.0169 h -0.30346 l -0.303452,0.0169 h -0.410561 l -0.267728,0.0169 -0.249916,0.0153 -0.4284,0.0213 -0.963884,0.11118 c -0.124091,0.0195 -0.484822,0.0909 -0.589082,0.085 -0.09103,-0.005 -0.26418,-0.13061 -0.339141,-0.18433 l -0.731869,-0.53607 c -0.536935,-0.36424 -0.972115,-0.57256 -1.606503,-0.74572 -0.176362,-0.0482 -0.556208,-0.13312 -0.731853,-0.13516 l -0.357016,-0.0169 c -0.234013,0 -0.468548,0.0117 -0.696155,0.0654 -0.08088,0.0191 -0.252756,0.0559 -0.312186,0.10541 -0.06177,0.0514 -0.117825,0.29229 -0.107994,0.36983 0.02354,0.18669 0.301478,0.57224 0.40626,0.76027 0.233474,0.41883 0.507848,1.07823 0.513741,1.55429 0.0018,0.11674 0.0018,0.3009 -0.05646,0.40547 -0.05141,0.0927 -0.244198,0.23889 -0.336291,0.30613 l -0.589081,0.45566 c -0.183309,0.16082 -0.367891,0.32199 -0.527272,0.50531 -0.309708,0.35611 -0.54658,0.7545 -0.762408,1.16572 -0.106207,0.20256 -0.311833,0.57662 -0.316815,0.79404 z m 23.437242,-1.80232 c 0.403942,-0.0416 0.764506,0.39381 0.748985,0.75485 -0.01018,0.23686 -0.232774,0.37507 -0.427693,0.48656 -0.05052,0.029 -0.237234,0.1377 -0.284878,0.13938 -0.04964,0.002 -0.07566,-0.0343 -0.101393,-0.0688 -0.04018,-0.0535 -0.134939,-0.22437 -0.162982,-0.28687 -0.145106,-0.32406 -0.268825,-0.91805 0.227961,-1.02516 z m -19.706593,1.18126 c 0.575871,0.0177 0.989803,0.5082 0.874685,1.04341 -0.02407,0.11167 -0.06929,0.22739 -0.138885,0.32099 -0.06106,0.082 -0.148514,0.1649 -0.235979,0.22134 -0.120674,0.0778 -0.249012,0.12163 -0.392703,0.1429 -0.74971,0.11101 -1.293422,-0.65228 -0.940337,-1.27653 0.157071,-0.2776 0.394138,-0.39382 0.708289,-0.45211 0.04637,-0.003 0.07778,-0.005 0.12493,0 z"
       inkscape:connector-curvature="0"
       style="fill:#000001;fill-opacity:1;stroke:#000000;stroke-width:0.01736579"
       sodipodi:nodetypes="cccccccccccccccccccccccccccccccccccsccccccccccccccccccccccccccccccccccscccccccccccccccccccccccccccccccccccccccccccccccccccccccccccccccccc" />
    <path
       d="m 8.3748498,275.48917 c 0,0 0,9.31624 0,9.31624 0.00177,0.62707 0.2152446,1.6539 0.4241443,2.25228 0.3117525,0.89221 0.8605097,1.82997 1.5396929,2.50821 2.831761,2.8256 7.890327,2.64338 10.592741,-0.25593 0.432091,-0.46376 0.726879,-0.926 1.004704,-1.48446 0.869509,-1.74756 0.806956,-3.3912 0.806956,-5.27235 0,0 0,-7.06399 0,-7.06399 0,0 55.299107,0 55.299107,0 0,0 0,6.91041 0,6.91041 0,0.99971 -0.05566,2.02757 0.06787,3.0201 0.182901,1.46499 0.771425,2.88444 1.79681,3.99267 2.415024,2.60957 6.98159,2.8732 9.799564,0.74173 1.480297,-1.11952 2.294145,-2.70428 2.559245,-4.47846 0.04876,-0.32709 0.09119,-0.53338 0.09172,-0.87021 0,0 0,-9.31624 0,-9.31624 0,0 7.634784,0 7.634784,0 0.105512,0 0.308042,0.0119 0.392342,-0.0522 0.0901,-0.0691 0.0828,-0.20629 0.0849,-0.30611 0,0 0,-1.07495 0,-1.07495 0,0 0,-4.55574 0,-4.55574 0,0 0,-19.60506 0,-19.60506 0,0 -0.053,-1.12614 -0.053,-1.12614 -0.005,-0.39057 -0.11982,-1.09133 -0.20148,-1.48445 -0.444825,-2.14632 -1.409771,-3.94148 -2.981788,-5.52834 -0.61663,-0.62244 -1.32444,-1.1507 -2.065645,-1.62777 -0.657433,-0.42282 -1.626104,-0.88146 -2.385884,-1.09236 0,0 -0.901313,-0.20781 -0.901313,-0.20781 -0.154284,-0.0287 -0.318106,-0.0343 -0.424693,-0.1592 0,0 -0.370589,-0.85433 -0.370589,-0.85433 0,0 -0.797956,-1.99634 -0.797956,-1.99634 0,0 -2.393289,-5.93783 -2.393289,-5.93783 0,0 -3.870402,-9.62337 -3.870402,-9.62337 -1.042357,-2.59729 -1.730575,-4.79838 -3.966387,-6.74812 -1.6372,-1.42765 -3.805159,-2.29938 -5.99116,-2.52512 0,0 -0.954354,-0.0962 -0.954354,-0.0962 0,0 -0.63622,0 -0.63622,0 0,0 -0.636239,-0.0491 -0.636239,-0.0491 0,0 -42.945625,0 -42.945625,0 0,0 -0.636229,0.0491 -0.636229,0.0491 0,0 -0.63623,0 -0.63623,0 0,0 -0.954344,0.0962 -0.954344,0.0962 -2.185993,0.22574 -4.35396,1.09747 -5.991195,2.52512 -2.269226,1.97841 -3.057625,4.44875 -4.104743,7.10645 0,0 -3.732029,9.31623 -3.732029,9.31623 0,0 -2.426696,6.0402 -2.426696,6.0402 0,0 -0.714199,1.7916 -0.714199,1.7916 -0.068407,0.17658 -0.2990188,0.79648 -0.4029333,0.90551 -0.1320191,0.13923 -1.0291104,0.28358 -1.2910161,0.35984 -0.776213,0.22575 -1.7644761,0.68388 -2.4388896,1.11591 -0.729021,0.46632 -1.4490249,1.00943 -2.058734,1.616 -1.5624787,1.55359 -2.56136068,3.46135 -2.99930945,5.57492 -0.0758365,0.36599 -0.18610464,1.07135 -0.19086544,1.43326 0,0 -0.0530058,1.12614 -0.0530058,1.12614 0,0 0,25.13338 0,25.13338 0,0.11772 -0.0201759,0.32811 0.084774,0.40848 0.0843316,0.064 0.28683343,0.0522 0.39234077,0.0522 0,0 1.43153032,0 1.43153032,0 0,0 6.2032625,0 6.2032625,0 z M 83.715266,238.63372 c 0,0 -66.698273,0 -66.698273,0 0,0 0.387589,-1.07495 0.387589,-1.07495 0,0 0.882234,-2.30347 0.882234,-2.30347 0,0 2.597933,-6.75683 2.597933,-6.75683 0,0 2.101157,-5.47714 2.101157,-5.47714 0.398189,-1.01914 0.794238,-2.25175 1.371613,-3.17368 0.796884,-1.27304 1.95059,-2.00503 3.475415,-2.19596 0,0 0.477177,0 0.477177,0 0,0 0.63623,-0.0563 0.63623,-0.0563 0,0 42.892609,0 42.892609,0 0,0 0.636239,0.0466 0.636239,0.0466 1.122937,0.0748 2.04654,0.28769 2.916058,1.03707 0.483531,0.41667 0.824989,0.88402 1.143627,1.42457 0.425745,0.72228 0.889117,2.09258 1.211488,2.91773 0,0 2.120749,5.52832 2.120749,5.52832 0,0 2.43889,6.34734 2.43889,6.34734 0,0 1.021704,2.66178 1.021704,2.66178 0,0 0.387561,1.07495 0.387561,1.07495 z m -24.44191,4.2486 c 0,0 -0.463373,0.87022 -0.463373,0.87022 0,0 -0.979803,1.79158 -0.979803,1.79158 0,0 -2.920818,5.37475 -2.920818,5.37475 0,0 -2.157349,3.99269 -2.157349,3.99269 0,0 2.067725,0.46735 2.067725,0.46735 0,0 3.022105,0.72891 3.022105,0.72891 0,0 1.643615,0.39057 1.643615,0.39057 0,0 -0.7953,0.73096 -0.7953,0.73096 0,0 -1.484536,1.23568 -1.484536,1.23568 0,0 -4.347596,3.62719 -4.347596,3.62719 0,0 -6.680414,5.57287 -6.680414,5.57287 0,0 -2.385866,1.99633 -2.385866,1.99633 0,0 -1.643606,1.3232 -1.643606,1.3232 0,0 0.826033,-1.53563 0.826033,-1.53563 0,0 1.384355,-2.45706 1.384355,-2.45706 0,0 2.822188,-5.01642 2.822188,-5.01642 0,0 1.382745,-2.45702 1.382745,-2.45702 0,0 -3.128116,-0.74889 -3.128116,-0.74889 0,0 -3.446259,-0.83794 -3.446259,-0.83794 0,0 0,-0.10238 0,-0.10238 0,0 1.484545,-1.27152 1.484545,-1.27152 0,0 2.703981,-2.35415 2.703981,-2.35415 0,0 8.271014,-7.18373 8.271014,-7.18373 0,0 3.181131,-2.76416 3.181131,-2.76416 0,0 1.029659,-0.89937 1.029659,-0.89937 0,0 0.61394,-0.47403 0.61394,-0.47403 z m -43.47579,2.86349 c 0,0 0.74226,0 0.74226,0 1.076815,0.1121 2.220989,0.49805 3.128142,1.06214 1.301096,0.8093 2.362009,2.00401 2.945224,3.39429 1.161652,2.76875 0.525422,6.15077 -1.725779,8.23925 -0.735906,0.68284 -1.547639,1.16657 -2.491914,1.52745 -0.763478,0.29178 -1.883247,0.48885 -2.703981,0.47042 0,0 -0.424152,-0.0537 -0.424152,-0.0537 0,0 -0.424163,0 -0.424163,0 -0.64683,-0.0885 -1.363118,-0.28357 -1.961712,-0.53082 -0.776195,-0.32043 -1.576797,-0.83743 -2.17379,-1.41125 -0.592215,-0.56921 -1.1192469,-1.22083 -1.4946239,-1.94514 -1.4670416,-2.83021 -0.9474602,-6.36475 1.3504109,-8.64211 0.589578,-0.58404 1.29844,-1.06727 2.052903,-1.42917 1.035481,-0.49652 2.038062,-0.66903 3.181175,-0.6813 z m 69.190169,0 c 0,0 0.742268,0 0.742268,0 1.022191,0.10749 2.151516,0.47451 3.022103,0.99713 0.662202,0.39826 1.275636,0.88607 1.779316,1.46296 2.576226,2.94844 2.431456,7.36035 -0.349928,10.13525 -0.684465,0.68285 -1.537037,1.19372 -2.436773,1.56483 -0.78415,0.32401 -1.850895,0.52416 -2.703962,0.53389 -0.862642,0.009 -1.844021,-0.17199 -2.650993,-0.46326 -0.786806,-0.28357 -1.600123,-0.74581 -2.226796,-1.28584 -3.269162,-2.81892 -3.477539,-7.79392 -0.415135,-10.83857 0.537076,-0.53441 1.262893,-1.03912 1.952686,-1.37389 1.111292,-0.54005 2.056628,-0.71817 3.287214,-0.7325 z"
       id="Selection-9"
       inkscape:connector-curvature="0"
       style="fill:#000000;fill-opacity:1;stroke:#000000;stroke-width:0.05209567" />
  </g>
</svg>
