<?xml version="1.0" encoding="UTF-8" standalone="no"?>
<!-- Created with Inkscape (http://www.inkscape.org/) -->

<svg
   xmlns:dc="http://purl.org/dc/elements/1.1/"
   xmlns:cc="http://creativecommons.org/ns#"
   xmlns:rdf="http://www.w3.org/1999/02/22-rdf-syntax-ns#"
   xmlns:svg="http://www.w3.org/2000/svg"
   xmlns="http://www.w3.org/2000/svg"
   xmlns:sodipodi="http://sodipodi.sourceforge.net/DTD/sodipodi-0.dtd"
   xmlns:inkscape="http://www.inkscape.org/namespaces/inkscape"
   width="100mm"
   height="100mm"
   viewBox="0 0 100 100"
   version="1.1"
   id="svg4860"
   inkscape:version="0.92.5 (2060ec1f9f, 2020-04-08)"
   sodipodi:docname="icon3.svg">
  <defs
     id="defs4854" />
  <sodipodi:namedview
     id="base"
     pagecolor="#ffffff"
     bordercolor="#666666"
     borderopacity="1.0"
     inkscape:pageopacity="0.0"
     inkscape:pageshadow="2"
     inkscape:zoom="0.98994949"
     inkscape:cx="421.85159"
     inkscape:cy="155.76716"
     inkscape:document-units="mm"
     inkscape:current-layer="layer1"
     showgrid="false"
     inkscape:window-width="1848"
     inkscape:window-height="1016"
     inkscape:window-x="72"
     inkscape:window-y="27"
     inkscape:window-maximized="1" />
  <metadata
     id="metadata4857">
    <rdf:RDF>
      <cc:Work
         rdf:about="">
        <dc:format>image/svg+xml</dc:format>
        <dc:type
           rdf:resource="http://purl.org/dc/dcmitype/StillImage" />
        <dc:title></dc:title>
      </cc:Work>
    </rdf:RDF>
  </metadata>
  <g
     inkscape:label="Layer 1"
     inkscape:groupmode="layer"
     id="layer1"
     transform="translate(0,-197)">
    <path
       id="Selection #1"
       d="m 5.3441472,254.19006 c -0.9236331,-0.0786 -1.8495111,-0.099 -2.7778655,-0.0876 -0.4702901,0.006 -1.0842098,0.14431 -1.4722735,0.43179 -0.60029426,0.44463 -0.79669752,1.12007 -0.89252775,1.84692 -0.14805478,1.12037 -0.12027634,2.56064 -0.10750149,3.71022 l 0.02530207,0.29215 c 0.0258404,0.39819 0.0319237,0.54455 0.16000597,0.93485 0.0480739,0.14637 0.15805178,0.39615 0.26500955,0.50015 0.12140147,0.11744 0.45586255,0.36956 0.60529005,0.43617 0.2764116,0.1227 1.1531121,0.20245 1.4722735,0.19982 h 1.3889435 0.2825111 l 0.2730577,0.0325 v 0.23371 c 0.00323,0.32429 0.2027827,1.0374 0.2939078,1.37308 0.3869386,1.42595 1.0800376,2.70788 2.0683956,3.76835 0.2555562,0.27404 0.5486134,0.52908 0.8322496,0.77126 0.3372335,0.28777 0.6922484,0.539 1.0555861,0.78733 0.2547326,0.17411 0.5566885,0.383 0.8611263,0.42828 l -0.2150084,0.43821 -0.3041578,0.75958 c -0.037253,0.10897 -0.1252829,0.33333 -0.1308547,0.43821 -0.015773,0.0786 0,0.12913 0,0.2045 0.031655,0.27958 0.052811,0.38621 0.1891787,0.64272 0.1572335,0.29565 0.5127921,0.43266 0.7941994,0.55478 l 1.916713,0.71137 c 1.059483,0.35612 2.216471,0.71341 3.305682,0.94245 l 0.694445,0.1116 c 0.09223,0.0131 0.307512,0.0491 0.388915,0.0362 0.09918,-0.0158 0.327785,-0.12095 0.416687,-0.17557 0.09693,-0.0593 0.302785,-0.22554 0.37474,-0.31377 0.334434,-0.41045 0.584714,-1.35934 0.680846,-1.8963 l 0.02778,0.0876 0.527795,0.0535 1.416717,0.11919 c 1.404496,0.10108 2.812868,0.17792 4.22236,0.17792 h 1.388922 l 0.527791,-0.0292 c 0.204731,-0.003 0.339188,-0.0383 0.52779,-0.11685 -0.04969,0.19047 0.03305,0.39732 0.08,0.58428 0.138629,0.55158 0.477515,1.00673 0.947832,1.28544 0.163882,0.097 0.360285,0.20508 0.550842,0.2007 0.689471,-0.0161 1.33449,-0.1788 2.00479,-0.33451 l 2.527855,-0.66346 c 0.532791,-0.15921 1.368093,-0.36429 1.771731,-0.76629 0.219708,-0.21881 0.229711,-0.76453 0.228333,-1.06573 -0.0027,-0.41806 -0.110554,-0.94918 -0.241404,-1.34386 l -0.203062,-0.6135 0.305563,-0.0614 c 0.549194,-0.19135 1.007253,-0.51154 1.472273,-0.86124 0.599471,-0.45077 0.918077,-0.71488 1.444495,-1.26848 l 0.467518,-0.49665 c 0.213054,-0.24803 0.699193,-0.91499 0.874477,-1.19779 0.893077,-1.4426 1.405869,-3.11512 1.579199,-4.82036 l 0.0789,-1.0225 v -1.48993 c 0,-0.76249 -0.286958,-2.18114 -0.555563,-2.89221 0.16,-0.0622 0.343607,-0.19428 0.500012,-0.28309 l 0.80558,-0.41163 c 0.09668,-0.0479 0.44361,-0.2343 0.52779,-0.23927 0.102226,-0.006 0.264455,0.12446 0.361136,0.17529 0.214707,0.11277 0.487216,0.20362 0.722223,0.25592 0.205582,0.0456 0.377238,0.0523 0.583369,0.0672 l 0.222233,0.0255 c 0.139727,0.006 0.184156,-0.0166 0.305557,-0.0255 0.520292,-0.0377 0.980859,-0.13614 1.472274,-0.32545 0.39974,-0.15425 0.825854,-0.39702 1.138911,-0.70231 0.06472,-0.0631 0.241683,-0.24452 0.279184,-0.31873 0.0586,-0.11569 -0.009,-0.17645 -0.07751,-0.26293 l -0.340555,-0.40899 c -0.0428,-0.0491 -0.130855,-0.16945 -0.196958,-0.16945 -0.09751,0 -0.242238,0.21239 -0.307786,0.28514 -0.168329,0.18697 -0.463917,0.38212 -0.689746,0.48553 -0.348064,0.15922 -0.815028,0.30354 -1.194489,0.32983 h -0.72225 l -0.388887,-0.0546 c 0.391111,-0.23693 0.754174,-0.48408 1.019759,-0.87642 0.996956,-1.47329 -0.718648,-3.88989 -2.436481,-3.21504 -0.223051,0.0876 -0.313331,0.13994 -0.500012,0.3012 -0.195558,0.16915 -0.309735,0.33859 -0.421969,0.57669 -0.108325,0.22904 -0.186104,0.62022 -0.189151,0.87643 -0.0078,0.70728 0.25583,1.57289 0.666671,2.13264 -0.29416,0.0882 -1.229766,0.60825 -1.527825,0.78879 -0.04581,-0.17733 -0.137503,-0.33304 -0.215282,-0.49665 -0.177783,-0.37336 -0.434464,-0.82033 -0.655023,-1.16857 -0.938076,-1.4797 -2.309524,-2.82356 -3.71317,-3.80749 -0.745022,-0.52236 -1.514495,-0.97664 -2.305621,-1.41544 l -1.333392,-0.6953 c -1.428372,-0.63015 -2.894519,-1.05055 -4.416788,-1.33919 l -0.638926,-0.12591 -1.000029,-0.13292 -1.055586,-0.13293 -0.63892,-0.0368 -0.694445,-0.0558 -0.472244,-0.0292 H 21.45582 l -0.444466,-0.0292 h -0.472238 l -0.472239,0.0292 h -0.638921 l -0.416665,0.0292 -0.388915,0.0266 -0.666666,0.0368 -1.500052,0.19223 c -0.193082,0.0339 -0.754475,0.15717 -0.916705,0.14695 -0.141675,-0.009 -0.411137,-0.22583 -0.52779,-0.31873 l -1.138938,-0.92697 c -0.835576,-0.62986 -1.512821,-0.99007 -2.500081,-1.28952 -0.274457,-0.0833 -0.865573,-0.23021 -1.138911,-0.23372 l -0.5555899,-0.0292 c -0.3641613,-5e-4 -0.7291733,0.0202 -1.0833591,0.11305 -0.1258321,0.033 -0.3933395,0.0967 -0.4858428,0.1823 -0.096126,0.0888 -0.1833539,0.50541 -0.1680542,0.63951 0.036661,0.32281 0.469165,0.98948 0.6322179,1.31464 0.3633646,0.72422 0.790329,1.86445 0.7994754,2.68771 0.00269,0.20188 0.00269,0.52031 -0.087777,0.70115 -0.080003,0.16039 -0.3800102,0.41309 -0.5233383,0.52936 l -0.9167047,0.78791 c -0.2852889,0.27812 -0.5725212,0.55683 -0.8205784,0.8738 -0.4819667,0.61584 -0.8505747,1.30471 -1.1864354,2.01579 -0.1652818,0.35028 -0.4852937,0.99708 -0.4930674,1.37307 z m 3.7223433,-10.1958 c 0.2936117,0.0818 0.4800126,0.0579 0.7778017,0.0584 l 0.4722388,0.0377 c 0.671119,0.0879 1.549224,0.40111 2.138967,0.74701 0.575843,0.33801 1.097814,0.76396 1.611155,1.19603 0.231105,0.19457 0.816126,0.65908 1.083359,0.74672 0.125278,0.0409 0.339182,0.0494 0.472239,0.0479 l 1.25004,-0.19223 c 0.672244,-0.0999 1.350318,-0.15776 2.027837,-0.18873 l 0.305585,-0.0292 h 0.500017 l 0.444439,-0.0281 h 1.277819 l 0.472239,0.0292 1.611176,0.085 0.611121,0.0368 0.777801,0.10751 1.00003,0.12912 0.472238,0.0967 c 1.086708,0.20596 2.176194,0.45516 3.222326,0.83261 0.541971,0.19545 1.152267,0.44435 1.666734,0.7064 l 0.861126,0.48028 c 0.937253,0.5209 1.816182,1.05055 2.666757,1.72161 1.976167,1.55858 3.408162,3.41076 4.139585,5.91209 0.192781,0.65849 0.315286,1.32896 0.363063,2.01579 l 0.0253,0.29215 v 0.87642 l -0.02778,0.58429 c 0,0.54222 -0.175004,1.71284 -0.30251,2.2495 -0.386137,1.62432 -1.16726,3.09818 -2.282021,4.29422 l -0.248881,0.23663 c -0.570319,0.55858 -1.191442,1.07626 -1.861187,1.49899 l -1.078358,0.70465 c -0.108352,0.10196 -0.345863,0.48145 -0.39474,0.62752 -0.08168,0.24424 0.124454,0.6658 0.203881,0.90564 0.153358,0.46305 0.213631,0.94217 0.213631,1.43151 l -1.194484,0.3754 c -0.964483,0.27461 -1.937013,0.54456 -2.916769,0.75227 l -0.972234,0.19135 c -0.07863,0.01 -0.292234,0.0427 -0.361136,0.0336 -0.06918,-0.009 -0.13528,-0.0517 -0.194455,-0.0888 -0.322784,-0.20158 -0.383886,-0.5393 -0.480292,-0.88402 -0.06415,-0.22816 -0.226954,-0.70348 -0.391385,-0.85803 -0.05835,-0.0549 -0.191133,-0.11889 -0.267233,-0.1414 -0.106129,-0.0319 -0.300863,-0.0245 -0.416693,-0.023 l -0.277779,0.0266 -0.777802,0.0318 -0.44446,0.0292 h -0.944483 l -0.388888,-0.0292 h -0.666699 l -0.472238,-0.0292 -0.861127,-0.0292 -0.361136,-0.0292 -0.583347,-0.0292 -0.305557,-0.0266 -0.583369,-0.0345 -1.055586,-0.09 -0.611115,-0.0611 c -0.413064,-0.0158 -0.924484,0.11891 -1.126712,0.53346 l -0.253058,0.90564 c -0.06055,0.19165 -0.135006,0.43821 -0.225835,0.6135 -0.03752,0.0725 -0.103351,0.1858 -0.180306,0.21589 -0.06415,0.0251 -0.380834,-0.0327 -0.464164,-0.0479 l -1.138938,-0.25942 c -0.982528,-0.25826 -1.955887,-0.55536 -2.916741,-0.89221 l -1.5545,-0.60678 c -0.03865,-0.0199 -0.0825,-0.0427 -0.101677,-0.0862 -0.03693,-0.0844 0.0925,-0.39352 0.128626,-0.48524 l 0.442517,-1.05172 c 0.06888,-0.19311 0.128056,-0.33947 0.01949,-0.52585 -0.382239,-0.65588 -0.9872542,-0.91383 -1.5733739,-1.32488 -0.654473,-0.45925 -1.2494915,-1.01052 -1.7731097,-1.62578 -0.7594712,-0.8922 -1.2053098,-1.98803 -1.5128214,-3.12593 l -0.3055844,-1.28543 c -0.035531,-0.13292 -0.1058272,-0.41543 -0.1977814,-0.50745 -0.039407,-0.0391 -0.1583317,-0.10459 -0.2108308,-0.13439 -0.075002,-0.0429 -0.2561108,-0.13672 -0.3333359,-0.16097 -0.3497392,-0.11014 -1.1061634,-0.073 -1.5000466,-0.0736 l -0.4722442,-0.0292 c -0.2947314,-5e-4 -0.5975164,-0.002 -0.8889263,-0.0511 -0.2075092,-0.0357 -0.3841607,-0.0485 -0.5447427,-0.20801 -0.1508273,-0.14957 -0.2027826,-0.63512 -0.2052805,-0.85101 v -0.6135 l -0.027779,-0.46744 v -0.6135 l 0.027779,-0.46742 v -0.52586 c 0,-0.34035 0.079454,-1.17033 0.1666814,-1.48993 0.071373,-0.26206 0.1286044,-0.44786 0.334461,-0.63629 0.2463829,-0.22582 0.6586182,-0.25884 0.971131,-0.27023 l 0.6389203,-0.0283 0.4444389,0.0292 h 0.4444604 l 0.3889143,0.0292 c 0.4158368,0.005 0.6408476,0.0117 1.0555862,-0.076 0.1183275,-0.0251 0.2905592,-0.0491 0.3797355,-0.1373 0.075825,-0.0748 0.1488785,-0.24132 0.1966832,-0.34181 l 0.2963842,-0.67193 c 0.2355568,-0.57114 0.4925128,-1.13644 0.8055747,-1.66521 0.4422371,-0.74672 0.9014266,-1.27609 1.5439483,-1.83817 0.4202889,-0.36752 1.1217107,-0.86445 1.3950434,-1.3462 0.111103,-0.19573 0.220833,-0.818 0.215832,-1.05171 l -0.02859,-0.26293 v -0.26293 c -0.07501,-0.77681 -0.365567,-1.65966 -0.6741981,-2.36636 l -0.428068,-0.84721 c -0.056397,-0.10313 -0.1816796,-0.26381 -0.2022281,-0.35058 z m 32.7510505,7.07922 c 0.628616,-0.0719 1.189762,0.68098 1.165585,1.30529 -0.01577,0.40959 -0.362234,0.64856 -0.665568,0.84137 -0.0786,0.0499 -0.369189,0.2381 -0.443341,0.24103 -0.07723,0.003 -0.117783,-0.0593 -0.157782,-0.11891 -0.0625,-0.0926 -0.210007,-0.38797 -0.253635,-0.49606 -0.225829,-0.56033 -0.418334,-1.58751 0.354741,-1.77272 z m -30.86209,2.04266 c -0.488916,0.10079 -0.857826,0.30179 -1.10226,0.78178 -0.5494694,1.07946 0.296659,2.39937 1.463369,2.20743 0.223611,-0.0368 0.423342,-0.11247 0.611121,-0.24716 0.13613,-0.0976 0.272234,-0.24101 0.367235,-0.3827 0.108357,-0.16185 0.178633,-0.36196 0.216133,-0.55507 0.179155,-0.92551 -0.465014,-1.7736 -1.361165,-1.80428 -0.07333,-0.009 -0.12223,-0.004 -0.194433,0 z"
       inkscape:connector-curvature="0"
       style="fill:#333333;fill-opacity:1;stroke:#000000;stroke-width:0.02848745"
       sodipodi:nodetypes="cccccccccccccccccccccccccccccccccccsccccccccccccccccccccccccccccccccccsccccccccccccccccccccccccccccccccccccccccccccccccccccccccccccccccccccccccccccccccccccccccccccccccccccccccccccccccccccccccccccccccccccccccccccccccccccccccccccccccccccccccccccc" />
    <path
       d="m 50.45192,265.24989 c 0,0 0,5.86755 0,5.86755 0.0011,0.39493 0.116761,1.04165 0.230082,1.41853 0.169109,0.56193 0.466785,1.15254 0.83521,1.57972 1.53611,1.77961 4.280163,1.66484 5.7461,-0.1612 0.234394,-0.29208 0.394303,-0.58321 0.545012,-0.93494 0.471673,-1.10065 0.437736,-2.13585 0.437736,-3.32063 0,0 0,-4.44903 0,-4.44903 0,0 29.997389,0 29.997389,0 0,0 0,4.35231 0,4.35231 0,0.62963 -0.0302,1.27699 0.03682,1.90211 0.09923,0.92269 0.418464,1.81668 0.97469,2.51466 1.310055,1.64357 3.787219,1.8096 5.315851,0.46715 0.802991,-0.70508 1.244474,-1.7032 1.388276,-2.82061 0.02643,-0.20601 0.04947,-0.33593 0.04974,-0.54807 0,0 0,-5.86755 0,-5.86755 0,0 4.141534,0 4.141534,0 0.0572,0 0.16709,0.007 0.21283,-0.0329 0.0489,-0.0435 0.0448,-0.12992 0.046,-0.19279 0,0 0,-0.67702 0,-0.67702 0,0 0,-2.86929 0,-2.86929 0,0 0,-12.34765 0,-12.34765 0,0 -0.0287,-0.70926 -0.0287,-0.70926 -0.003,-0.24599 -0.065,-0.68734 -0.10929,-0.93494 -0.24129,-1.35179 -0.764735,-2.48242 -1.61749,-3.48185 -0.334494,-0.39202 -0.718455,-0.72473 -1.120521,-1.02521 -0.356625,-0.26629 -0.882095,-0.55515 -1.294239,-0.68798 0,0 -0.488927,-0.13089 -0.488927,-0.13089 -0.08369,-0.0181 -0.172566,-0.0216 -0.230373,-0.10027 0,0 -0.201038,-0.53807 -0.201038,-0.53807 0,0 -0.432854,-1.25733 -0.432854,-1.25733 0,0 -1.298254,-3.73976 -1.298254,-3.73976 0,0 -2.099528,-6.06099 -2.099528,-6.06099 -0.565432,-1.63581 -0.938761,-3.0221 -2.151591,-4.25009 -0.888119,-0.89916 -2.064138,-1.44819 -3.249949,-1.59036 0,0 -0.517691,-0.0606 -0.517691,-0.0606 0,0 -0.345125,0 -0.345125,0 0,0 -0.345126,-0.031 -0.345126,-0.031 0,0 -23.296157,0 -23.296157,0 0,0 -0.345126,0.031 -0.345126,0.031 0,0 -0.345131,0 -0.345131,0 0,0 -0.517686,0.0606 -0.517686,0.0606 -1.185805,0.14217 -2.36184,0.6912 -3.249964,1.59036 -1.230956,1.24604 -1.658631,2.80191 -2.226647,4.47578 0,0 -2.024466,5.86754 -2.024466,5.86754 0,0 -1.316376,3.80424 -1.316376,3.80424 0,0 -0.387412,1.12838 -0.387412,1.12838 -0.03709,0.11122 -0.162208,0.50164 -0.218572,0.5703 -0.07162,0.0877 -0.558255,0.17861 -0.700324,0.22665 -0.421064,0.14217 -0.957155,0.43071 -1.322996,0.70281 -0.395461,0.2937 -0.786033,0.63576 -1.116774,1.01779 -0.847577,0.97848 -1.389428,2.18004 -1.626993,3.51119 -0.04113,0.23051 -0.100956,0.67477 -0.10354,0.9027 0,0 -0.02875,0.70926 -0.02875,0.70926 0,0 0,15.82949 0,15.82949 0,0.0741 -0.01093,0.20665 0.04603,0.25726 0.0457,0.0403 0.155597,0.0329 0.212828,0.0329 0,0 0.776542,0 0.776542,0 0,0 3.365003,0 3.365003,0 z m 40.868928,-23.21228 c 0,0 -36.180945,0 -36.180945,0 0,0 0.210249,-0.67702 0.210249,-0.67702 0,0 0.47857,-1.45077 0.47857,-1.45077 0,0 1.409272,-4.25559 1.409272,-4.25559 0,0 1.139788,-3.44959 1.139788,-3.44959 0.215999,-0.64188 0.43084,-1.4182 0.744042,-1.99885 0.432272,-0.80179 1.058106,-1.26281 1.885257,-1.38306 0,0 0.258851,0 0.258851,0 0,0 0.345131,-0.0354 0.345131,-0.0354 0,0 23.267394,0 23.267394,0 0,0 0.345125,0.0293 0.345125,0.0293 0.60915,0.0471 1.110158,0.18118 1.581837,0.65316 0.262297,0.26244 0.447513,0.55678 0.620364,0.89722 0.230954,0.45491 0.482317,1.31796 0.657186,1.83765 0,0 1.150421,3.48184 1.150421,3.48184 0,0 1.32298,3.99768 1.32298,3.99768 0,0 0.554234,1.67643 0.554234,1.67643 0,0 0.210244,0.67703 0.210244,0.67703 z m -13.258687,2.67585 c 0,0 -0.251363,0.54809 -0.251363,0.54809 0,0 -0.531494,1.12837 -0.531494,1.12837 0,0 -1.584421,3.38512 -1.584421,3.38512 0,0 -1.170274,2.51467 -1.170274,2.51467 0,0 1.121656,0.29434 1.121656,0.29434 0,0 1.639364,0.45909 1.639364,0.45909 0,0 0.891581,0.24599 0.891581,0.24599 0,0 -0.431411,0.46037 -0.431411,0.46037 0,0 -0.805295,0.77826 -0.805295,0.77826 0,0 -2.358379,2.28447 -2.358379,2.28447 0,0 -3.623848,3.5099 -3.623848,3.5099 0,0 -1.294228,1.25733 -1.294228,1.25733 0,0 -0.891586,0.83338 -0.891586,0.83338 0,0 0.4481,-0.96718 0.4481,-0.96718 0,0 0.750944,-1.54749 0.750944,-1.54749 0,0 1.53092,-3.15945 1.53092,-3.15945 0,0 0.750083,-1.54748 0.750083,-1.54748 0,0 -1.696881,-0.47166 -1.696881,-0.47166 0,0 -1.86944,-0.52775 -1.86944,-0.52775 0,0 0,-0.0645 0,-0.0645 0,0 0.8053,-0.80082 0.8053,-0.80082 0,0 1.466788,-1.48269 1.466788,-1.48269 0,0 4.48667,-4.52446 4.48667,-4.52446 0,0 1.725633,-1.74091 1.725633,-1.74091 0,0 0.558535,-0.56645 0.558535,-0.56645 0,0 0.333046,-0.29855 0.333046,-0.29855 z m -23.583745,1.80348 c 0,0 0.402647,0 0.402647,0 0.584122,0.0706 1.204787,0.31369 1.69688,0.66896 0.705788,0.50971 1.281292,1.26217 1.597654,2.13779 0.63015,1.74381 0.285019,3.87388 -0.936161,5.18924 -0.399196,0.43007 -0.839528,0.73473 -1.351755,0.96201 -0.414151,0.18377 -1.021579,0.30789 -1.466793,0.29628 0,0 -0.230082,-0.0338 -0.230082,-0.0338 0,0 -0.230087,0 -0.230087,0 -0.35088,-0.0558 -0.739434,-0.1786 -1.064146,-0.33432 -0.421053,-0.20181 -0.855344,-0.52743 -1.179189,-0.88883 -0.32125,-0.3585 -0.607137,-0.76891 -0.810759,-1.22509 -0.795809,-1.78252 -0.513961,-4.00865 0.732532,-5.44297 0.319819,-0.36784 0.704351,-0.67218 1.113614,-0.90011 0.561701,-0.31273 1.105555,-0.42137 1.725645,-0.42911 z m 37.532683,0 c 0,0 0.402647,0 0.402647,0 0.554503,0.0677 1.167104,0.29886 1.639359,0.62802 0.359219,0.25082 0.691979,0.55806 0.965209,0.9214 1.397482,1.85698 1.318959,4.63569 -0.189824,6.38337 -0.371295,0.43008 -0.833779,0.75182 -1.321845,0.98556 -0.425371,0.20407 -1.004029,0.33013 -1.466788,0.33625 -0.467937,0.006 -1.000293,-0.10832 -1.43804,-0.29176 -0.426808,-0.1786 -0.868001,-0.46972 -1.207942,-0.80985 -1.773385,-1.77541 -1.886415,-4.90875 -0.2252,-6.82634 0.291346,-0.33658 0.685073,-0.65446 1.059253,-0.86531 0.602819,-0.34012 1.115632,-0.45231 1.783171,-0.46134 z"
       id="Selection"
       inkscape:connector-curvature="0"
       style="fill:#000000;fill-opacity:1;stroke:#000000;stroke-width:0.03045034" />
  </g>
</svg>
