<?xml version="1.0" encoding="UTF-8" standalone="no"?>
<!-- Created with Inkscape (http://www.inkscape.org/) -->

<svg
   xmlns:dc="http://purl.org/dc/elements/1.1/"
   xmlns:cc="http://creativecommons.org/ns#"
   xmlns:rdf="http://www.w3.org/1999/02/22-rdf-syntax-ns#"
   xmlns:svg="http://www.w3.org/2000/svg"
   xmlns="http://www.w3.org/2000/svg"
   xmlns:sodipodi="http://sodipodi.sourceforge.net/DTD/sodipodi-0.dtd"
   xmlns:inkscape="http://www.inkscape.org/namespaces/inkscape"
   width="100mm"
   height="100mm"
   viewBox="0 0 100 100"
   version="1.1"
   id="svg4860"
   inkscape:version="0.92.5 (2060ec1f9f, 2020-04-08)"
   sodipodi:docname="icon5.svg">
  <defs
     id="defs4854" />
  <sodipodi:namedview
     id="base"
     pagecolor="#ffffff"
     bordercolor="#666666"
     borderopacity="1.0"
     inkscape:pageopacity="0.0"
     inkscape:pageshadow="2"
     inkscape:zoom="1.4"
     inkscape:cx="29.710336"
     inkscape:cy="230.68096"
     inkscape:document-units="mm"
     inkscape:current-layer="layer1"
     showgrid="false"
     inkscape:window-width="1848"
     inkscape:window-height="1016"
     inkscape:window-x="72"
     inkscape:window-y="27"
     inkscape:window-maximized="1" />
  <metadata
     id="metadata4857">
    <rdf:RDF>
      <cc:Work
         rdf:about="">
        <dc:format>image/svg+xml</dc:format>
        <dc:type
           rdf:resource="http://purl.org/dc/dcmitype/StillImage" />
        <dc:title></dc:title>
      </cc:Work>
    </rdf:RDF>
  </metadata>
  <g
     inkscape:label="Layer 1"
     inkscape:groupmode="layer"
     id="layer1"
     transform="translate(0,-197)">
    <path
       d="m 48.361692,268.36673 c 0,0 0,5.34129 0,5.34129 9.01e-4,0.35952 0.121059,0.94823 0.23854,1.2913 0.175325,0.51154 0.483926,1.04919 0.865887,1.43805 1.592526,1.62 4.437353,1.51552 5.957124,-0.14674 0.243004,-0.26589 0.40879,-0.5309 0.565029,-0.85108 0.488992,-1.00193 0.453814,-1.9443 0.453814,-3.02282 0,0 0,-4.05 0,-4.05 0,0 31.099047,0 31.099047,0 0,0 0,3.96196 0,3.96196 0,0.57316 -0.03129,1.16245 0.03814,1.73151 0.102877,0.83994 0.433845,1.65375 1.010503,2.28912 1.358161,1.49616 3.926292,1.6473 5.511056,0.42526 0.832484,-0.64184 1.290179,-1.55045 1.439259,-2.56764 0.02739,-0.18753 0.05134,-0.30581 0.05154,-0.49892 0,0 0,-5.34129 0,-5.34129 0,0 4.293633,0 4.293633,0 0.0593,0 0.173236,0.007 0.220646,-0.0299 0.0507,-0.0396 0.0465,-0.11826 0.0477,-0.1755 0,0 0,-0.6163 0,-0.6163 0,0 0,-2.61195 0,-2.61195 0,0 0,-11.24019 0,-11.24019 0,0 -0.0299,-0.64566 -0.0299,-0.64566 -0.003,-0.22393 -0.0673,-0.6257 -0.11329,-0.85109 -0.250176,-1.23055 -0.792836,-2.25977 -1.67692,-3.16956 -0.346773,-0.35687 -0.744821,-0.65974 -1.161667,-0.93326 -0.369716,-0.24241 -0.914477,-0.50536 -1.341759,-0.62628 0,0 -0.506888,-0.11915 -0.506888,-0.11915 -0.08668,-0.0164 -0.178894,-0.0197 -0.238827,-0.0912 0,0 -0.208423,-0.48981 -0.208423,-0.48981 0,0 -0.448742,-1.14457 -0.448742,-1.14457 0,0 -1.345933,-3.40434 -1.345933,-3.40434 0,0 -2.176633,-5.51738 -2.176633,-5.51738 -0.586196,-1.48911 -0.973233,-2.75107 -2.230608,-3.86893 -0.920754,-0.8185 -2.139957,-1.31829 -3.369313,-1.44772 0,0 -0.536701,-0.0552 -0.536701,-0.0552 0,0 -0.357799,0 -0.357799,0 0,0 -0.357808,-0.0282 -0.357808,-0.0282 0,0 -24.151703,0 -24.151703,0 0,0 -0.357808,0.0282 -0.357808,0.0282 0,0 -0.357799,0 -0.357799,0 0,0 -0.536703,0.0552 -0.536703,0.0552 -1.229354,0.12943 -2.448576,0.62922 -3.369311,1.44772 -1.276165,1.1343 -1.719547,2.55062 -2.308431,4.07436 0,0 -2.098811,5.3413 -2.098811,5.3413 0,0 -1.364723,3.46303 -1.364723,3.46303 0,0 -0.401631,1.02718 -0.401631,1.02718 -0.03849,0.10125 -0.168176,0.45665 -0.226614,0.51916 -0.07429,0.0799 -0.578751,0.16259 -0.726046,0.20632 -0.436513,0.12942 -0.992302,0.39208 -1.371575,0.63977 -0.40998,0.26736 -0.814894,0.57874 -1.15779,0.92652 -0.878696,0.8907 -1.440462,1.98449 -1.686748,3.19626 -0.04264,0.20983 -0.104652,0.61425 -0.107338,0.82174 0,0 -0.02984,0.64566 -0.02984,0.64566 0,0 0,14.40975 0,14.40975 0,0.0675 -0.01136,0.18812 0.04769,0.23419 0.04742,0.0366 0.161315,0.0299 0.220646,0.0299 0,0 0.805066,0 0.805066,0 0,0 3.48857,0 3.48857,0 z m 42.369849,-21.1304 c 0,0 -37.509679,0 -37.509679,0 0,0 0.21796,-0.6163 0.21796,-0.6163 0,0 0.496151,-1.32065 0.496151,-1.32065 0,0 1.461035,-3.87391 1.461035,-3.87391 0,0 1.181636,-3.14021 1.181636,-3.14021 0.223927,-0.58432 0.446654,-1.29101 0.771366,-1.81956 0.448152,-0.72988 1.096962,-1.14955 1.9545,-1.25902 0,0 0.268356,0 0.268356,0 0,0 0.357799,-0.0323 0.357799,-0.0323 0,0 24.121889,0 24.121889,0 0,0 0.357807,0.0268 0.357807,0.0268 0.631519,0.0428 1.15093,0.16494 1.639931,0.59459 0.271926,0.23889 0.463947,0.50684 0.643149,0.81675 0.239424,0.4141 0.500018,1.19974 0.681311,1.67282 0,0 1.192679,3.16956 1.192679,3.16956 0,0 1.371584,3.63912 1.371584,3.63912 0,0 0.574567,1.52609 0.574567,1.52609 0,0 0.217959,0.6163 0.217959,0.6163 z m -38.195479,4.07757 c 0,0 0.417444,0 0.417444,0 0.605582,0.0643 1.249028,0.28556 1.759197,0.60898 0.731709,0.46398 1.328346,1.14896 1.65633,1.94604 0.653282,1.58744 0.295483,3.52644 -0.970538,4.72382 -0.413857,0.39151 -0.870357,0.66884 -1.401397,0.87574 -0.429365,0.16729 -1.059097,0.28027 -1.520665,0.26971 0,0 -0.238532,-0.0308 -0.238532,-0.0308 0,0 -0.238542,0 -0.238542,0 -0.363766,-0.0508 -0.766589,-0.16259 -1.103218,-0.30433 -0.436522,-0.18372 -0.886757,-0.48013 -1.222494,-0.80912 -0.333061,-0.32635 -0.629446,-0.69995 -0.840544,-1.11522 -0.825036,-1.62264 -0.532835,-3.6491 0.75944,-4.95478 0.331563,-0.33486 0.730211,-0.6119 1.154508,-0.8194 0.58233,-0.28466 1.14616,-0.38357 1.789011,-0.39061 z m 38.911086,0 c 0,0 0.417435,0 0.417435,0 0.574884,0.0617 1.209972,0.27207 1.699569,0.5717 0.372404,0.22833 0.717397,0.50802 1.000655,0.83876 1.448803,1.69044 1.367401,4.21992 -0.19679,5.81087 -0.384942,0.39149 -0.864395,0.68439 -1.370382,0.89716 -0.440994,0.18577 -1.040913,0.30052 -1.520673,0.3061 -0.485116,0.005 -1.037027,-0.0987 -1.490841,-0.2656 -0.442481,-0.16259 -0.899874,-0.4276 -1.252309,-0.73722 -1.838514,-1.61618 -1.955689,-4.46849 -0.233465,-6.2141 0.302046,-0.30639 0.710233,-0.59575 1.098152,-0.78769 0.624965,-0.30962 1.1566,-0.41176 1.848649,-0.41998 z"
       id="Selection #1-7"
       inkscape:connector-curvature="0"
       style="fill:#000000;fill-opacity:1;stroke:#000000;stroke-width:0.02958141" />
    <path
       style="fill:#000001;fill-opacity:1;stroke:#000000;stroke-width:0.0262644"
       d="m 9.286238,248.19423 c -0.3448338,0 -0.6903277,0.0185 -1.0257219,0.10183 -0.119182,0.0296 -0.3723644,0.0868 -0.4599385,0.16365 -0.091022,0.0798 -0.1736377,0.45398 -0.1591511,0.57435 0.034688,0.2898 0.4441257,0.88812 0.598529,1.18 0.3440395,0.65015 0.7482345,1.67395 0.7569182,2.41294 0.00265,0.18122 0.0028,0.46657 -0.083006,0.6289 -0.075756,0.1439 -0.3600219,0.37131 -0.4957271,0.47569 l -0.8680944,0.70671 c -0.270118,0.24964 -0.5418585,0.49997 -0.7767171,0.78454 -0.4563754,0.55279 -0.8059172,1.17136 -1.1239542,1.8097 -0.1565031,0.31443 -0.4594508,0.89544 -0.4667921,1.23295 -0.8745973,-0.0706 -1.7511308,-0.0886 -2.6301753,-0.0787 -0.445306,0.006 -1.0268241,0.12947 -1.3942815,0.38746 -0.56842549,0.39913 -0.75453403,1.00561 -0.84525122,1.65809 -0.14020989,1.00573 -0.11327308,2.29863 -0.10127825,3.33063 l 0.0236065,0.26231 c 0.0245054,0.35745 0.0302965,0.48874 0.15153572,0.83906 0.0455037,0.13133 0.1500371,0.35589 0.25129029,0.44922 0.11501189,0.10556 0.43114506,0.3317 0.57263846,0.39146 0.2617467,0.11022 1.0920736,0.18128 1.3942815,0.17889 h 1.3150877 0.2672814 l 0.2589057,0.0297 v 0.20937 c 0.00383,0.29109 0.1916595,0.9316 0.2779427,1.23295 0.3663891,1.28009 1.0234231,2.43078 1.959306,3.38276 0.2419788,0.24598 0.5188134,0.47486 0.7873769,0.69228 0.3193175,0.25832 0.6558065,0.48382 0.9998327,0.70672 0.2412215,0.15631 0.5272835,0.34357 0.8155515,0.38424 l -0.2040787,0.39386 -0.2878406,0.68185 c -0.035218,0.0978 -0.1181506,0.29893 -0.1233671,0.39306 -0.015001,0.0706 0,0.11611 0,0.1837 0.030002,0.25099 0.049748,0.34647 0.1789485,0.57677 0.1488745,0.26541 0.48511,0.3885 0.7515884,0.49815 l 1.8153839,0.63852 c 1.003194,0.3197 2.098336,0.6407 3.12971,0.8463 l 0.657926,0.10028 c 0.08737,0.0124 0.290706,0.0438 0.367798,0.0321 0.09388,-0.014 0.311025,-0.10804 0.39521,-0.15721 0.0918,-0.0533 0.285974,-0.20236 0.354092,-0.28157 0.316682,-0.36849 0.553976,-1.221 0.644979,-1.70302 l 0.02666,0.0795 0.499535,0.0473 1.34174,0.10742 c 1.329904,0.0907 2.663168,0.15963 3.997806,0.15963 h 1.315087 l 0.499535,-0.0265 c 0.193874,-0.003 0.321718,-0.0345 0.500297,-0.10509 -0.04708,0.17099 0.03093,0.35681 0.07539,0.52463 0.131266,0.49517 0.452435,0.90414 0.897793,1.15432 0.155146,0.0871 0.341201,0.18364 0.521618,0.1797 0.652885,-0.014 1.26372,-0.16024 1.898387,-0.30001 l 2.393352,-0.59603 c 0.504466,-0.14296 1.295389,-0.3266 1.677556,-0.68746 0.208062,-0.19643 0.217579,-0.68659 0.216262,-0.957 -0.0027,-0.37523 -0.104579,-0.85212 -0.228445,-1.20646 l -0.192658,-0.55029 0.289366,-0.0554 c 0.520048,-0.17178 0.953958,-0.45939 1.394282,-0.77329 0.567604,-0.40467 0.869176,-0.64132 1.36763,-1.13829 l 0.443186,-0.44601 c 0.201736,-0.22267 0.661769,-0.82106 0.827736,-1.0749 0.845663,-1.29503 1.331442,-2.79692 1.49556,-4.32773 l 0.07462,-0.91769 v -1.33723 c 0,-0.68448 -0.271823,-1.9583 -0.526188,-2.59662 0.15152,-0.0557 0.325541,-0.17457 0.473645,-0.2543 l 0.76301,-0.369 c 0.09154,-0.043 0.419823,-0.21052 0.499534,-0.21498 0.09676,-0.006 0.250345,0.11146 0.341909,0.15722 0.20329,0.10137 0.461268,0.1825 0.683815,0.22943 0.19464,0.0408 0.356899,0.047 0.552077,0.0601 l 0.210933,0.0233 c 0.132311,0.006 0.174392,-0.0161 0.289364,-0.0233 0.492638,-0.0337 0.928189,-0.12201 1.393521,-0.29198 0.378493,-0.13847 0.782597,-0.35647 1.079027,-0.6305 0.06127,-0.0567 0.228716,-0.21897 0.264235,-0.28558 0.05554,-0.10385 -0.0096,-0.15903 -0.07387,-0.23665 l -0.322108,-0.36659 c -0.04055,-0.0442 -0.123942,-0.15243 -0.186565,-0.15243 -0.09232,0 -0.229566,0.19059 -0.29165,0.25589 -0.159394,0.16782 -0.438759,0.34357 -0.652594,0.43639 -0.329555,0.14296 -0.77227,0.27241 -1.131568,0.296 h -0.683817 l -0.367797,-0.0489 c 0.370339,-0.21271 0.714096,-0.43474 0.965565,-0.78694 0.944009,-1.32255 -0.680709,-3.49203 -2.307304,-2.88623 -0.211231,0.0787 -0.296866,0.12558 -0.473646,0.27034 -0.185189,0.15197 -0.293493,0.30364 -0.39978,0.51739 -0.102619,0.20561 -0.176056,0.55695 -0.17895,0.78694 -0.0078,0.63493 0.242275,1.41233 0.631273,1.9148 -0.278539,0.0792 -1.164605,0.54622 -1.446824,0.70831 -0.04343,-0.15917 -0.129748,-0.29914 -0.203317,-0.446 -0.168368,-0.33516 -0.411768,-0.73663 -0.620612,-1.04925 -0.888303,-1.32831 -2.186701,-2.53479 -3.515784,-3.41806 -0.705472,-0.46893 -1.434079,-0.87674 -2.183184,-1.27065 l -1.262545,-0.62409 c -1.352528,-0.56564 -2.740663,-0.94332 -4.182084,-1.20246 l -0.605382,-0.11223 -0.946528,-0.11953 -0.999832,-0.11952 -0.604622,-0.0329 -0.657924,-0.0506 -0.446992,-0.0256 h -0.736363 l -0.421101,-0.0265 h -0.446993 l -0.446993,0.0265 h -0.605381 l -0.394451,0.0256 -0.368559,0.0241 -0.631273,0.0329 -1.420172,0.17246 c -0.182857,0.0303 -0.714461,0.14157 -0.868095,0.13241 -0.134139,-0.008 -0.389076,-0.20299 -0.499536,-0.28638 l -1.078265,-0.83185 c -0.79121,-0.56541 -1.432649,-0.88875 -2.367462,-1.15753 -0.259881,-0.0748 -0.819442,-0.20702 -1.0782661,-0.21018 z m 16.674275,6.55456 -0.252052,0.4805 -0.531517,0.98829 -1.584653,2.96483 -1.171168,2.20277 1.122432,0.25749 1.63948,0.4027 0.892463,0.21498 -0.431764,0.4035 -0.805652,0.68184 -2.359086,2.00063 -3.625438,3.07472 -1.294527,1.10139 -0.920638,0.75805 1.228279,-2.23084 1.531349,-2.76751 0.750825,-1.35567 -1.697353,-0.41311 -1.870212,-0.46206 v -0.0562 l 0.805653,-0.70191 1.466624,-1.29871 4.488203,-3.96275 1.726291,-1.52493 0.558931,-0.49654 z m 13.758543,0.71875 c 0.595236,-0.0646 1.126269,0.61154 1.103395,1.17199 -0.01502,0.36768 -0.342525,0.58177 -0.629749,0.75483 -0.07444,0.045 -0.349376,0.21399 -0.419581,0.2166 -0.07315,0.003 -0.112094,-0.0531 -0.150012,-0.10665 -0.05921,-0.083 -0.198544,-0.34819 -0.239869,-0.44521 -0.213823,-0.50304 -0.39623,-1.42525 0.335816,-1.59151 z m -29.222815,1.83378 c 0.06833,-0.005 0.114039,-0.008 0.183518,0 0.848585,0.0275 1.458831,0.78877 1.289197,1.61958 -0.03547,0.17334 -0.10228,0.35285 -0.20484,0.49815 -0.08998,0.12729 -0.218352,0.25651 -0.347238,0.34414 -0.177821,0.12077 -0.366991,0.18837 -0.57873,0.22139 -1.1047473,0.17232 -1.9061997,-1.01235 -1.3859053,-1.98137 0.2314546,-0.43092 0.5810763,-0.61142 1.0439983,-0.70189 z"
       id="Selection #1-3"
       inkscape:connector-curvature="0" />
  </g>
</svg>
