<?xml version="1.0" encoding="UTF-8" standalone="no"?>
<!-- Uploaded to: SVG Repo, www.svgrepo.com, Generator: SVG Repo Mixer Tools -->

<svg
   xmlns:dc="http://purl.org/dc/elements/1.1/"
   xmlns:cc="http://creativecommons.org/ns#"
   xmlns:rdf="http://www.w3.org/1999/02/22-rdf-syntax-ns#"
   xmlns:svg="http://www.w3.org/2000/svg"
   xmlns="http://www.w3.org/2000/svg"
   xmlns:sodipodi="http://sodipodi.sourceforge.net/DTD/sodipodi-0.dtd"
   xmlns:inkscape="http://www.inkscape.org/namespaces/inkscape"
   fill="#000000"
   width="800px"
   height="800px"
   viewBox="0 0 32 32"
   version="1.1"
   id="svg865"
   sodipodi:docname="tesla.svg"
   inkscape:version="0.92.5 (2060ec1f9f, 2020-04-08)">
  <metadata
     id="metadata871">
    <rdf:RDF>
      <cc:Work
         rdf:about="">
        <dc:format>image/svg+xml</dc:format>
        <dc:type
           rdf:resource="http://purl.org/dc/dcmitype/StillImage" />
      </cc:Work>
    </rdf:RDF>
  </metadata>
  <defs
     id="defs869" />
  <sodipodi:namedview
     pagecolor="#ffffff"
     bordercolor="#666666"
     borderopacity="1"
     objecttolerance="10"
     gridtolerance="10"
     guidetolerance="10"
     inkscape:pageopacity="0"
     inkscape:pageshadow="2"
     inkscape:window-width="1929"
     inkscape:window-height="1225"
     id="namedview867"
     showgrid="false"
     inkscape:zoom="1.9180271"
     inkscape:cx="258.73659"
     inkscape:cy="609.39208"
     inkscape:window-x="507"
     inkscape:window-y="108"
     inkscape:window-maximized="0"
     inkscape:current-layer="svg865" />
  <path
     d="m 16.010427,7.167195 3.299848,-4.0333697 c 0,0 5.652314,0.1199218 11.284641,2.7382143 -1.442059,2.180578 -4.304193,3.247882 -4.304193,3.247882 C 26.097849,7.2041709 24.755724,6.7364759 20.487508,6.7364759 L 16.011427,32.001 11.504366,6.7314792 c -4.2372368,0 -5.5793615,0.4686943 -5.7722358,2.3834456 0,0 -2.8631328,-1.0563111 -4.304193,-3.2378884 C 7.0592648,3.2587439 12.712578,3.1388221 12.712578,3.1388221 l 3.299848,4.0283729 h -0.005 z m 0,-5.1946124 C 20.559461,1.93061 25.770063,2.6751245 31.104584,5.006604 31.818119,3.715446 32,3.1488156 32,3.1488156 26.170801,0.83732297 20.710362,0.04184173 16.010427,0.02085541 11.310492,0.04184173 5.8500533,0.83332557 0.02085476,3.1488156 c 0,0 0.25983056,0.7025418 0.89541607,1.8637845 C 6.2517913,2.6701277 11.461394,1.9316093 16.010427,1.9675859 Z"
     id="path863"
     inkscape:connector-curvature="0"
     style="stroke-width:0.99934828" />
</svg>
