<?xml version="1.0" encoding="UTF-8" standalone="no"?>
<svg
   xmlns:dc="http://purl.org/dc/elements/1.1/"
   xmlns:cc="http://creativecommons.org/ns#"
   xmlns:rdf="http://www.w3.org/1999/02/22-rdf-syntax-ns#"
   xmlns:svg="http://www.w3.org/2000/svg"
   xmlns="http://www.w3.org/2000/svg"
   xmlns:sodipodi="http://sodipodi.sourceforge.net/DTD/sodipodi-0.dtd"
   xmlns:inkscape="http://www.inkscape.org/namespaces/inkscape"
   width="3.5999999in"
   height="3.5999999in"
   viewBox="0 0 1080 1080"
   version="1.1"
   id="svg83"
   sodipodi:docname="mode.svg"
   inkscape:version="0.92.5 (2060ec1f9f, 2020-04-08)">
  <metadata
     id="metadata89">
    <rdf:RDF>
      <cc:Work
         rdf:about="">
        <dc:format>image/svg+xml</dc:format>
        <dc:type
           rdf:resource="http://purl.org/dc/dcmitype/StillImage" />
        <dc:title></dc:title>
      </cc:Work>
    </rdf:RDF>
  </metadata>
  <defs
     id="defs87" />
  <sodipodi:namedview
     pagecolor="#ffffff"
     bordercolor="#666666"
     borderopacity="1"
     objecttolerance="10"
     gridtolerance="10"
     guidetolerance="10"
     inkscape:pageopacity="0"
     inkscape:pageshadow="2"
     inkscape:window-width="2442"
     inkscape:window-height="1276"
     id="namedview85"
     showgrid="false"
     inkscape:zoom="1.7722801"
     inkscape:cx="156.17175"
     inkscape:cy="201.21188"
     inkscape:window-x="122"
     inkscape:window-y="50"
     inkscape:window-maximized="0"
     inkscape:current-layer="svg83" />
  <rect
     style="fill:#000000;stroke-width:7.35504389"
     id="rect115"
     width="1366.4056"
     height="35.472389"
     x="-688.22522"
     y="743.0462"
     transform="matrix(0.71742865,-0.696632,0.71742865,0.696632,0,0)"
     ry="15.694502" />
  <path
     style="fill:#000000;stroke-width:1.1491586"
     d="m 278.02399,515.18055 v -50.41603 h 14.14443 14.14441 v 50.41603 50.41601 h -14.14441 -14.14443 z"
     id="path3852"
     inkscape:connector-curvature="0" />
  <path
     style="fill:#000000;stroke-width:1.1491586"
     d="m 461.90378,466.9418 -40.10874,-34.79447 8.41926,-9.7397 c 4.63058,-5.35678 8.86977,-9.9042 9.42039,-10.10534 0.55061,-0.20094 19.02239,15.36889 41.04839,34.60008 l 40.04732,34.9657 -8.86718,9.93412 c -4.87696,5.46374 -9.08848,9.93408 -9.35897,9.93408 -0.27031,0 -18.54069,-15.65748 -40.60047,-34.79447 z"
     id="path3854"
     inkscape:connector-curvature="0" />
  <path
     style="fill:#000000;stroke-width:1.1491586"
     d="m 480.75047,296.99126 c -0.004,-3.54316 -0.34467,-9.08889 -0.75354,-12.32393 l -0.74329,-5.88186 h 53.79512 53.79513 v 12.32389 12.32394 H 533.8023 480.76071 l -0.009,-6.44204 z"
     id="path3856"
     inkscape:connector-curvature="0" />
  <path
     style="fill:#000000;stroke-width:1.1491586"
     d="m 437.98721,150.72986 -8.9323,-9.35172 34.10342,-32.40085 34.1034,-32.40082 10.08109,9.582072 10.08109,9.58207 -32.7832,30.182948 c -18.03078,16.6006 -33.89426,31.07732 -35.2522,32.17047 -2.4274,1.95406 -2.61954,1.82997 -11.4013,-7.36417 z"
     id="path3858"
     inkscape:connector-curvature="0" />
  <path
     style="fill:#000000;stroke-width:1.1491586"
     d="m 288.2394,111.10553 c -0.4322,-0.4108 -0.78579,-23.098 -0.78579,-50.416009 V 11.020404 h 14.14443 14.14442 v 50.416013 50.416013 h -13.35864 c -7.34722,0 -13.71225,-0.33612 -14.14442,-0.7469 z"
     id="path3860"
     inkscape:connector-curvature="0" />
  <path
     style="fill:#000000;stroke-width:1.1491586"
     d="M 107.43366,131.73877 C 88.603831,113.09884 73.111847,97.447177 73.007037,96.957307 c -0.10486,-0.489869 4.046585,-5.19526 9.225315,-10.456428 6.865411,-6.97467 9.873683,-9.312916 11.105978,-8.632334 0.92957,0.513366 17.49745,15.707594 36.81754,33.764955 l 35.1274,32.83154 -11.08704,10.58224 c -6.09788,5.82023 -11.41093,10.58224 -11.80678,10.58224 -0.39586,0 -16.12595,-15.25084 -34.95579,-33.89075 z"
     id="path3862"
     inkscape:connector-curvature="0" />
  <path
     style="fill:#000000;stroke-width:1.1491586"
     d="M 8.1012524,281.02617 V 267.58189 H 60.553491 113.00572 v 13.44428 13.44426 H 60.553491 8.1012524 Z"
     id="path3864"
     inkscape:connector-curvature="0" />
  <path
     style="fill:#000000;stroke-width:1.1491586"
     d="m 87.266689,486.7953 -9.774504,-9.33916 36.208645,-32.95427 c 19.91475,-18.1248 36.62017,-32.95423 37.12318,-32.95423 0.50301,0 4.34767,3.76174 8.54372,8.3594 l 7.62918,8.35938 -34.81444,33.93404 c -19.14793,18.66373 -34.887984,33.93403 -34.977854,33.93403 -0.08987,0 -4.561945,-4.20264 -9.937927,-9.33919 z"
     id="path3866"
     inkscape:connector-curvature="0" />
  <path
     style="fill:#000000;stroke-width:1.1491586"
     d="m 275.07722,411.50845 c -19.30231,-3.39075 -37.77391,-10.19105 -52.08858,-19.17642 -15.1024,-9.47977 -32.63358,-28.20793 -40.74263,-43.52432 -4.55173,-8.59735 -9.99437,-24.09006 -12.28973,-34.98326 -2.88623,-13.69736 -2.87728,-45.36016 0.0164,-58.36747 3.25181,-14.61658 8.58982,-27.16452 16.26996,-38.24534 16.395,-23.6546 40.37149,-39.90262 74.52793,-50.50504 12.17787,-3.99965 25.1128,-5.64045 37.71843,-5.23035 30.98599,1.00808 39.00428,4.91578 59.96793,14.91821 13.18638,6.29165 24.63482,14.31676 34.72983,24.34486 15.10168,15.00163 24.66854,31.0561 30.48489,51.15759 4.16056,14.37915 5.25313,40.21609 2.36698,55.974 -9.204,50.25289 -44.18246,88.97054 -91.76485,101.57457 -9.15935,2.42618 -13.93039,2.94537 -30.31848,3.29936 -13.81348,0.29823 -22.18072,-0.06 -28.87819,-1.23639 z m 44.7907,-36.91288 c 10.70294,-2.76652 29.75111,-12.06143 37.95687,-18.52186 13.35298,-10.51287 24.3049,-26.47114 30.00232,-43.71704 2.4178,-7.31859 2.75482,-10.53222 2.69838,-25.72873 -0.0585,-15.78559 -0.35303,-18.18093 -3.23337,-26.32834 -10.54924,-29.83791 -35.49123,-52.32629 -65.3538,-58.9248 -9.3847,-2.07367 -13.3886,-2.33664 -28.87819,-1.89673 -17.06008,0.48449 -18.53795,0.71188 -28.79877,4.4309 -14.47078,5.24491 -22.69183,10.0474 -33.04278,19.3026 -10.31548,9.22346 -18.30779,20.94836 -22.84206,33.50971 -5.97472,16.55189 -7.02707,28.46924 -3.98035,45.07564 3.41241,18.59953 11.89261,34.56094 25.70509,48.38214 13.03254,13.04074 28.75528,21.7746 45.95386,25.52704 9.38595,2.04781 34.00834,1.42371 43.8128,-1.11053 z"
     id="path3868"
     inkscape:connector-curvature="0"
     sodipodi:nodetypes="ccsscsccssccccccccsccssscssccc" />
  <path
     style="fill:#000000;stroke-width:0.98658979"
     d="m 782.90274,998.30962 c -51.65458,-4.99373 -100.66632,-22.93831 -142.57444,-52.20054 -15.94664,-11.13466 -40.25324,-33.81 -52.18761,-48.6851 -30.35703,-37.83732 -48.36162,-77.85459 -55.73524,-123.87761 -0.93994,-5.86678 -1.35994,-18.20939 -1.32959,-39.06907 0.0425,-29.1277 0.16692,-31.0689 2.77704,-43.35717 10.13835,-47.72856 28.48,-84.76518 60.40407,-121.97179 8.24682,-9.61142 29.75883,-29.56441 40.45328,-37.52154 56.14966,-41.77777 126.76782,-62.05749 197.76066,-56.79192 15.38063,1.1408 23.15573,2.95395 25.38204,5.91908 0.86888,1.15727 1.57979,4.06879 1.57979,6.47006 0,4.91299 -2.51251,9.18884 -11.73673,19.97375 -23.514,27.49235 -42.14833,65.93521 -49.42887,101.97258 -4.70409,23.28435 -5.37985,55.29733 -1.6494,78.13817 12.66699,77.55753 65.49637,145.03163 141.33388,180.5127 22.07931,10.32994 40.48001,16.12025 68.50618,21.55729 16.0076,3.10553 18.7523,4.44113 19.8735,9.67057 1.3503,6.29884 -0.9562,10.12288 -13.0167,21.58081 -25.18759,23.92892 -53.79653,42.55569 -86.59966,56.38378 -42.85698,18.06623 -95.92844,25.92513 -143.8122,21.29595 z m 56.61145,-22.36805 c 29.29497,-2.7794 60.48439,-11.54479 88.86753,-24.97494 27.02649,-12.78816 65.70647,-40.12786 59.53601,-42.08115 -0.72186,-0.22865 -5.90905,-1.55196 -11.52715,-2.94099 -21.00635,-5.19382 -49.27025,-16.51583 -68.77148,-27.54865 -74.78711,-42.31078 -125.33204,-114.20509 -135.58404,-192.85252 -2.43618,-18.68941 -1.64729,-61.15105 1.41095,-75.94083 8.0032,-38.70376 21.7055,-70.51929 44.79842,-104.01782 2.96451,-4.30035 5.05582,-8.00292 4.64743,-8.22801 -4.26143,-2.34831 -40.04423,-0.17632 -61.73704,3.74737 -36.77134,6.65102 -73.59364,22.02355 -104.17173,43.4895 -56.88435,39.93301 -92.15707,97.80519 -101.50345,166.53759 -3.17594,23.35539 -0.54769,59.08668 6.18027,84.02242 18.08951,67.04485 65.27726,122.72167 131.46372,155.11392 44.66482,21.85941 94.49235,30.59819 146.39056,25.67411 z"
     id="path3870"
     inkscape:connector-curvature="0" />
</svg>
