<?xml version="1.0" encoding="UTF-8" standalone="no"?>
<!-- Created with Inkscape (http://www.inkscape.org/) -->

<svg
   xmlns:dc="http://purl.org/dc/elements/1.1/"
   xmlns:cc="http://creativecommons.org/ns#"
   xmlns:rdf="http://www.w3.org/1999/02/22-rdf-syntax-ns#"
   xmlns:svg="http://www.w3.org/2000/svg"
   xmlns="http://www.w3.org/2000/svg"
   xmlns:sodipodi="http://sodipodi.sourceforge.net/DTD/sodipodi-0.dtd"
   xmlns:inkscape="http://www.inkscape.org/namespaces/inkscape"
   width="210mm"
   height="210mm"
   viewBox="0 0 210 210"
   version="1.1"
   id="svg3915"
   inkscape:version="0.92.5 (2060ec1f9f, 2020-04-08)"
   sodipodi:docname="money.svg">
  <defs
     id="defs3909" />
  <sodipodi:namedview
     id="base"
     pagecolor="#ffffff"
     bordercolor="#666666"
     borderopacity="1.0"
     inkscape:pageopacity="0.0"
     inkscape:pageshadow="2"
     inkscape:zoom="0.1767767"
     inkscape:cx="-1318.4355"
     inkscape:cy="189.65208"
     inkscape:document-units="mm"
     inkscape:current-layer="layer1"
     showgrid="false"
     inkscape:snap-to-guides="false"
     inkscape:snap-center="true"
     inkscape:snap-object-midpoints="true"
     inkscape:snap-text-baseline="true"
     inkscape:window-width="1633"
     inkscape:window-height="1021"
     inkscape:window-x="175"
     inkscape:window-y="25"
     inkscape:window-maximized="0"
     inkscape:snap-grids="false"
     inkscape:snap-others="false"
     inkscape:snap-nodes="false"
     inkscape:snap-global="false" />
  <metadata
     id="metadata3912">
    <rdf:RDF>
      <cc:Work
         rdf:about="">
        <dc:format>image/svg+xml</dc:format>
        <dc:type
           rdf:resource="http://purl.org/dc/dcmitype/StillImage" />
        <dc:title />
      </cc:Work>
    </rdf:RDF>
  </metadata>
  <g
     inkscape:label="Layer 1"
     inkscape:groupmode="layer"
     id="layer1"
     transform="translate(0,-87)">
    <path
       d="m 1.9809172,169.58013 c 0,0 -0.4484953,0 -0.4484953,0 0,0 0,6.27896 0,6.27896 0,0 0.1121227,1.90611 0.1121227,1.90611 0,0 0,5.71833 0,5.71833 0,0 0.1121271,1.68187 0.1121271,1.68187 0,0 0,6.27895 0,6.27895 0,0 0.1121227,3.47585 0.1121227,3.47585 0,0 0,5.38196 0,5.38196 0,0.43168 -0.040344,1.77269 0.2007006,2.08663 0.1917334,0.24892 1.7603505,0.94073 2.1539075,1.13694 0,0 5.4940841,2.60689 5.4940841,2.60689 0,0 2.0182354,0.91269 2.0182354,0.91269 0.812901,0.36216 1.326429,0.34198 1.34549,1.32979 0,0 0,1.68187 0,1.68187 0,0 0.112127,1.68186 0.112127,1.68186 0,0 0,6.05471 0,6.05471 0,0 0.112123,2.3546 0.112123,2.3546 0,0 0,5.94259 0,5.94259 0,0 0.112123,3.02735 0.112123,3.02735 0,0 0,1.90611 0,1.90611 0,0.25452 -0.02466,0.63463 0.114369,0.85327 0.148004,0.23209 0.539315,0.39804 0.782626,0.52025 0,0 1.793986,0.897 1.793986,0.897 0,0 8.633564,3.92771 8.633564,3.92771 5.078105,2.19203 10.306456,4.0488 15.585261,5.68918 0,0 3.924349,1.26252 3.924349,1.26252 0,0 3.812221,1.02481 3.812221,1.02481 3.639553,1.01248 7.28359,1.95321 10.988172,2.69435 0,0 9.979055,2.03169 9.979055,2.03169 0,0 4.372843,0.65705 4.372843,0.65705 0,0 14.015521,1.83883 14.015521,1.83883 0,0 4.484971,0.3745 4.484971,0.3745 0,0 4.260716,0.3274 4.260716,0.3274 0,0 1.345491,0.10203 1.345491,0.10203 0,0 1.79399,0.11213 1.79399,0.11213 0,0 3.58797,0.11212 3.58797,0.11212 0,0 1.90611,0.11213 1.90611,0.11213 0,0 18.83687,0 18.83687,0 0,0 1.34549,-0.10764 1.34549,-0.10764 0,0 1.68186,0 1.68186,0 0,0 1.45762,-0.11661 1.45762,-0.11661 0,0 4.03647,-0.22425 4.03647,-0.22425 0,0 1.00911,0 1.00911,0 0,0 5.94259,-0.54156 5.94259,-0.54156 6.78912,-0.65817 13.57487,-1.54507 20.29448,-2.75714 0,0 10.65179,-2.26042 10.65179,-2.26042 0,0 7.62445,-2.01824 7.62445,-2.01824 0,0 4.48497,-1.28269 4.48497,-1.28269 0,0 2.57886,-0.89476 2.57886,-0.89476 4.84824,-1.6157 9.59446,-3.43885 14.23977,-5.57145 0,0 6.39108,-3.20787 6.39108,-3.20787 0.41486,-0.22873 2.17857,-1.10106 2.35573,-1.37128 0.14575,-0.22313 0.21976,-1.21318 0.22312,-1.51031 0,0 0,-2.57886 0,-2.57886 0,0 0.11213,-1.68186 0.11213,-1.68186 0,0 0,-2.13036 0,-2.13036 0,0 0.11212,-1.68186 0.11212,-1.68186 0,0 0,-2.24249 0,-2.24249 0,0 0.11213,-1.90611 0.11213,-1.90611 0,0 0,-2.24248 0,-2.24248 0,0 0.11212,-1.90611 0.11212,-1.90611 0,0 0,-2.46674 0,-2.46674 0,0 0.11212,-1.90611 0.11212,-1.90611 0,0 0,-2.35461 0,-2.35461 0,0 0.11213,-1.68186 0.11213,-1.68186 0,0 0,-2.01823 0,-2.01823 0,0 0.11212,-1.68187 0.11212,-1.68187 0,0 0,-2.69098 0,-2.69098 0,0 -0.44849,0 -0.44849,0 0,-0.90148 -0.046,-1.80856 -0.25004,-2.69098 -0.71199,-3.06884 -3.07669,-5.87307 -5.4683,-7.81954 -1.20758,-0.98221 -2.497,-1.88144 -3.81222,-2.71453 -0.36665,-0.23209 -1.61459,-0.88466 -1.79287,-1.16945 -0.17043,-0.27695 -0.002,-1.65832 0,-2.08775 0,0 0.22313,-9.97906 0.22313,-9.97906 0,0 0.10764,-1.34549 0.10764,-1.34549 0,0 0,-1.79399 0,-1.79399 0,0 -0.55614,0 -0.55614,0 0,-1.27036 0.0437,-1.87247 -0.30722,-3.13947 -1.04275,-3.75953 -4.62512,-7.0257 -7.76572,-9.11907 -7.62893,-5.08595 -18.24597,-8.49004 -27.13405,-10.71234 -6.7353,-1.68411 -13.54237,-2.96905 -20.40661,-3.98714 0,0 -11.10029,-1.42846 -11.10029,-1.42846 0,0 -10.09118,-0.88802 -10.09118,-0.88802 0,0 -2.8031,-0.21416 -2.8031,-0.21416 0,0 -3.02736,-0.11212 -3.02736,-0.11212 0,0 -1.68186,-0.11213 -1.68186,-0.11213 0,0 -1.34549,0 -1.34549,0 0,0 -1.56974,-0.11212 -1.56974,-0.11212 0,0 -1.79399,0 -1.79399,0 0,0 -1.68186,-0.11213 -1.68186,-0.11213 0,0 -13.118529,0 -13.118529,0 0,0 -1.79399,0.11213 -1.79399,0.11213 0,0 -1.793986,0 -1.793986,0 0,0 -1.681863,0.11212 -1.681863,0.11212 0,0 -1.457613,0 -1.457613,0 0,0 -1.457617,0.11213 -1.457617,0.11213 0,0 -5.942579,0.32628 -5.942579,0.32628 -4.648671,0.31843 -9.272675,0.75235 -13.903403,1.32419 -5.713846,0.70526 -11.388455,1.54058 -17.042875,2.63267 0,0 -5.494088,1.1403 -5.494088,1.1403 0,0 -5.606207,1.29055 -5.606207,1.29055 -8.980027,2.36022 -17.943234,5.1992 -25.900689,10.08333 -2.7347098,1.6785 -5.3057193,3.8481 -7.100828,6.52451 -0.9541751,1.42397 -1.7412891,3.19554 -1.7569858,4.93346 z M 94.707626,146.26839 c 0,0 4.597094,0 4.597094,0 0,0 3.92434,0 3.92434,0 0,0 1.90612,0.10203 1.90612,0.10203 0,0 3.02735,0 3.02735,0 0,0 1.34549,0.10764 1.34549,0.10764 0,0 1.68186,0 1.68186,0 0,0 1.45762,0.11661 1.45762,0.11661 0,0 5.83046,0.32628 5.83046,0.32628 5.0624,0.34647 10.09453,0.8129 15.13676,1.43632 12.16884,1.50134 24.78954,3.73485 36.44036,7.61883 5.30684,1.7682 12.53997,4.63634 16.93076,8.04492 1.93974,1.50582 4.32239,3.72588 4.47487,6.34398 0.13792,2.3804 -2.10681,4.7294 -3.80213,6.11974 -3.44221,2.82105 -8.39922,5.18462 -12.55791,6.79585 0,0 -2.57885,0.92278 -2.57885,0.92278 -6.27784,2.34788 -12.95371,3.97817 -19.50961,5.33487 -5.29002,1.09545 -10.56546,2.01712 -15.92164,2.72238 -5.18238,0.68171 -10.37485,1.30288 -15.58526,1.66056 0,0 -3.92435,0.32628 -3.92435,0.32628 0,0 -1.00912,0 -1.00912,0 0,0 -1.12124,0.11212 -1.12124,0.11212 0,0 -2.91523,0.11213 -2.91523,0.11213 0,0 -1.68186,0.11661 -1.68186,0.11661 0,0 -1.45761,0 -1.45761,0 0,0 -1.34549,0.10764 -1.34549,0.10764 0,0 -2.69098,0 -2.69098,0 0,0 -1.90612,0.11212 -1.90612,0.11212 0,0 -8.297188,0 -8.297188,0 0,0 -1.681863,-0.11212 -1.681863,-0.11212 0,0 -2.803104,0 -2.803104,0 0,0 -1.906112,-0.11213 -1.906112,-0.11213 0,0 -3.475849,-0.11212 -3.475849,-0.11212 0,0 -1.457613,-0.11213 -1.457613,-0.11213 0,0 -6.615328,-0.4384 -6.615328,-0.4384 -5.212655,-0.3588 -10.400641,-0.97773 -15.585262,-1.66056 -10.935476,-1.43968 -22.610967,-3.71916 -33.07664,-7.20735 -5.379719,-1.79286 -12.629666,-4.6453 -17.042874,-8.16264 -1.799597,-1.43407 -4.2315697,-3.7057 -4.2607213,-6.18926 -0.030258,-2.68088 2.0754199,-4.77761 4.0364713,-6.34622 4.305569,-3.44446 10.078845,-5.79458 15.248889,-7.63454 11.410881,-4.06114 23.886941,-6.44826 35.879743,-8.02697 0,0 10.091177,-1.18291 10.091177,-1.18291 0,0 2.018236,-0.15025 2.018236,-0.15025 0,0 4.036471,-0.3274 4.036471,-0.3274 0,0 3.139476,-0.21416 3.139476,-0.21416 0,0 1.906112,-0.11212 1.906112,-0.11212 0,0 1.681863,-0.11213 1.681863,-0.11213 0,0 3.251603,-0.11212 3.251603,-0.11212 0,0 1.906109,-0.11213 1.906109,-0.11213 0,0 4.26072,-0.10203 4.26072,-0.10203 z M 8.0356237,180.79255 c 1.2557938,1.19749 2.7806813,2.07206 4.2607203,2.96008 3.420911,2.05299 7.562779,3.84698 11.324545,5.19023 0,0 5.606207,1.93863 5.606207,1.93863 8.393618,2.60801 19.645282,5.02541 28.367424,6.20047 0,0 9.642678,1.29615 9.642678,1.29615 0,0 7.400197,0.70975 7.400197,0.70975 0,0 4.26072,0.3274 4.26072,0.3274 0,0 2.803104,0.21416 2.803104,0.21416 0,0 5.83046,0.22425 5.83046,0.22425 0,0 1.681863,0.11212 1.681863,0.11212 0,0 2.242481,0 2.242481,0 0,0 1.56974,0.11213 1.56974,0.11213 0,0 12.445787,0 12.445787,0 0,0 1.79398,-0.11213 1.79398,-0.11213 0,0 2.13037,0 2.13037,0 0,0 1.79398,-0.11212 1.79398,-0.11212 0,0 1.56974,0 1.56974,0 0,0 1.45762,-0.11213 1.45762,-0.11213 0,0 7.06382,-0.4384 7.06382,-0.4384 5.02316,-0.34423 10.02727,-0.89027 15.02464,-1.54844 9.41844,-1.24009 18.74268,-2.91186 27.91893,-5.39654 5.76542,-1.56077 11.49385,-3.38503 16.93075,-5.88203 2.27949,-1.04612 4.49394,-2.21557 6.61533,-3.55882 0,0 1.68186,-1.13246 1.68186,-1.13246 0.45522,-0.33413 0.72993,-0.58753 1.23337,-0.88017 0,0 0,1.90611 0,1.90611 0,0 -0.11213,1.68186 -0.11213,1.68186 0,0 0,2.01824 0,2.01824 0,0 -0.11212,1.68186 -0.11212,1.68186 0,0 -0.11213,5.71833 -0.11213,5.71833 0,0 -0.11212,1.68187 -0.11212,1.68187 0,0 -0.0807,3.13948 -0.0807,3.13948 -0.037,0.31507 0.003,0.84541 -0.14576,1.09769 -0.22761,0.38459 -1.87135,1.10106 -2.35237,1.341 0,0 -6.5032,2.92645 -6.5032,2.92645 -7.24434,3.08678 -14.79479,5.44363 -22.42484,7.37553 0,0 -5.60621,1.26139 -5.60621,1.26139 -5.66003,1.34213 -14.80376,2.77171 -20.63085,3.39513 0,0 -3.36373,0.41149 -3.36373,0.41149 0,0 -6.83957,0.58978 -6.83957,0.58978 0,0 -2.91523,0.21415 -2.91523,0.21415 0,0 -1.68187,0.11212 -1.68187,0.11212 0,0 -1.12124,0 -1.12124,0 0,0 -1.34549,0.11213 -1.34549,0.11213 0,0 -4.03647,0.11212 -4.03647,0.11212 0,0 -1.68186,0.11213 -1.68186,0.11213 0,0 -12.782158,0 -12.782158,0 0,0 -1.793986,-0.11213 -1.793986,-0.11213 0,0 -1.79399,0 -1.79399,0 0,0 -1.569736,-0.11212 -1.569736,-0.11212 0,0 -5.494088,-0.22425 -5.494088,-0.22425 0,0 -1.12124,-0.11212 -1.12124,-0.11212 0,0 -1.009118,0 -1.009118,0 0,0 -3.363726,-0.31731 -3.363726,-0.31731 0,0 -3.251603,-0.26238 -3.251603,-0.26238 -4.988404,-0.49895 -9.957747,-1.1829 -14.912516,-1.95208 0,0 -4.148594,-0.63574 -4.148594,-0.63574 0,0 -12.557912,-2.57438 -12.557912,-2.57438 0,0 -7.960815,-2.08999 -7.960815,-2.08999 -7.155767,-1.9375 -14.238653,-4.27529 -21.07935,-7.14568 0,0 -6.166829,-2.70891 -6.166829,-2.70891 -0.426074,-0.20631 -1.9105965,-0.79384 -2.1314815,-1.10891 -0.1603401,-0.22986 -0.2231268,-1.50471 -0.2231268,-1.83548 0,0 0,-5.6062 0,-5.6062 0,0 -0.112127,-1.90612 -0.112127,-1.90612 0,0 0,-3.81222 0,-3.81222 0,0 0,-2.13036 0,-2.13036 -0.00898,-0.73329 -0.2735816,-1.66504 0,-2.35461 z M 196.85277,192.45347 c 1.20869,0.80617 2.70331,1.86014 3.69,2.91523 0.66042,0.70526 1.46995,1.70317 1.88033,2.57885 1.51704,3.24264 -0.79496,6.07377 -3.21572,8.04379 -4.48609,3.65077 -11.53422,6.61982 -17.04288,8.43847 -10.96799,3.62049 -22.41924,5.92576 -33.86151,7.43159 0,0 -8.85781,1.07079 -8.85781,1.07079 0,0 -4.70922,0.3745 -4.70922,0.3745 0,0 -4.37284,0.3274 -4.37284,0.3274 0,0 -2.91523,0.21415 -2.91523,0.21415 0,0 -2.01824,0.11661 -2.01824,0.11661 0,0 -0.89699,0 -0.89699,0 0,0 -1.34549,0.11213 -1.34549,0.11213 0,0 -1.45761,0 -1.45761,0 0,0 -1.34549,0.10764 -1.34549,0.10764 0,0 -1.90611,0 -1.90611,0 0,0 -1.68187,0.11212 -1.68187,0.11212 0,0 -13.34278,0 -13.34278,0 0.49671,-0.19734 1.55853,-0.11212 2.13036,-0.11212 0,0 2.13036,0 2.13036,0 0,0 1.56974,-0.11213 1.56974,-0.11213 0,0 2.01824,0 2.01824,0 0,0 1.23336,-0.10764 1.23336,-0.10764 0,0 1.45762,0 1.45762,0 0,0 1.90611,-0.11661 1.90611,-0.11661 0,0 3.47585,-0.21415 3.47585,-0.21415 0,0 2.69098,-0.13231 2.69098,-0.13231 0,0 6.39108,-0.56959 6.39108,-0.56959 11.53309,-1.11676 22.9877,-3.06548 34.19788,-6.01883 0,0 2.13036,-0.5124 2.13036,-0.5124 0,0 9.7548,-3.01727 9.7548,-3.01727 4.63746,-1.54619 12.19687,-4.62961 16.48226,-6.89003 0,0 3.92435,-2.07654 3.92435,-2.07654 1.07639,-0.59089 1.45088,-0.58417 1.45761,-1.64822 0,0 0.11213,-2.24249 0.11213,-2.24249 0,0 0,-2.35461 0,-2.35461 0,0 0.11212,-1.68186 0.11212,-1.68186 0,0 0,-2.24248 0,-2.24248 0.004,-0.3902 0.0908,-1.45874 0.22425,-1.79399 z m 5.38196,17.93987 c -0.19173,1.06742 -0.10764,2.17073 -0.11213,3.2516 0,0 -0.11212,1.56974 -0.11212,1.56974 0,0 0,2.13036 0,2.13036 0,0 -0.11212,1.79399 -0.11212,1.79399 0,0 0,1.90611 0,1.90611 0,0 -0.11213,1.79398 -0.11213,1.79398 0,0 0,2.01824 0,2.01824 0,0 -0.11212,1.68186 -0.11212,1.68186 0,0 0,1.90612 0,1.90612 -0.002,1.2883 -0.24443,1.04163 -1.90612,1.94087 0,0 -5.83045,2.73695 -5.83045,2.73695 -8.24786,3.55994 -16.83096,6.24532 -25.56432,8.31513 -7.24771,1.71886 -14.80712,3.09687 -22.20059,4.01853 0,0 -6.9517,0.7232 -6.9517,0.7232 0,0 -5.71833,0.53147 -5.71833,0.53147 0,0 -2.57886,0.13231 -2.57886,0.13231 0,0 -2.91523,0.21415 -2.91523,0.21415 0,0 -2.35461,0.11661 -2.35461,0.11661 0,0 -1.45761,0 -1.45761,0 0,0 -1.34549,0.10764 -1.34549,0.10764 0,0 -1.68186,0 -1.68186,0 0,0 -1.68187,0.11212 -1.68187,0.11212 0,0 -10.42755,0 -10.42755,0 0,0 -1.90611,-0.11212 -1.90611,-0.11212 0,0 -4.48496,-0.11212 -4.48496,-0.11212 0,0 -1.68187,-0.11213 -1.68187,-0.11213 0,0 -4.148595,-0.22424 -4.148595,-0.22424 0,0 -2.578854,-0.21416 -2.578854,-0.21416 0,0 -7.288074,-0.66378 -7.288074,-0.66378 -6.770058,-0.67723 -13.500874,-1.61907 -20.182354,-2.93429 0,0 -3.139476,-0.56062 -3.139476,-0.56062 0,0 -8.521442,-1.97675 -8.521442,-1.97675 0,0 -3.475849,-0.8129 -3.475849,-0.8129 -4.711457,-1.23673 -9.429645,-2.6764 -14.015525,-4.30893 0,0 -7.175947,-2.62483 -7.175947,-2.62483 0,0 -3.924348,-1.58431 -3.924348,-1.58431 0,0 -4.260717,-1.93863 -4.260717,-1.93863 -0.484376,-0.2164 -2.231272,-0.897 -2.464493,-1.2614 -0.139033,-0.21864 -0.114365,-0.59874 -0.114365,-0.85326 0,0 0,-2.13036 0,-2.13036 0,0 -0.112123,-1.68187 -0.112123,-1.68187 0,0 0,-5.60621 0,-5.60621 0,0 -0.112127,-1.90611 -0.112127,-1.90611 0,0 0,-5.26983 0,-5.26983 0,0 2.690981,1.82313 2.690981,1.82313 0,0 2.690981,1.61796 2.690981,1.61796 3.938926,2.13036 8.105458,3.86492 12.333662,5.33935 4.043197,1.4094 8.183946,2.50149 12.333663,3.53864 10.335608,2.58446 20.911162,4.27754 31.506896,5.30347 0,0 8.857813,0.77591 8.857813,0.77591 0,0 4.933462,0.32627 4.933462,0.32627 0,0 2.130363,0.11213 2.130363,0.11213 0,0 1.906108,0.11661 1.906108,0.11661 0,0 1.45762,0 1.45762,0 0,0 1.34549,0.10764 1.34549,0.10764 0,0 2.01823,0 2.01823,0 0,0 1.68187,0.11212 1.68187,0.11212 0,0 10.76392,0 10.76392,0 0,0 1.90611,-0.11212 1.90611,-0.11212 0,0 2.13036,0 2.13036,0 0,0 1.23336,-0.10764 1.23336,-0.10764 0,0 1.34549,0 1.34549,0 0,0 2.46674,-0.11661 2.46674,-0.11661 0,0 2.01823,-0.11213 2.01823,-0.11213 0,0 1.56974,-0.11212 1.56974,-0.11212 0,0 4.48497,-0.32628 4.48497,-0.32628 0,0 7.28807,-0.66378 7.28807,-0.66378 4.16878,-0.40364 8.30168,-0.89811 12.44579,-1.5417 12.80458,-1.98796 28.03553,-5.21826 39.80409,-10.62153 0,0 5.83045,-3.11032 5.83045,-3.11032 0,0 3.58798,-2.46113 3.58798,-2.46113 z"
       id="Selection"
       inkscape:connector-curvature="0"
       style="fill:#000000;fill-opacity:1;stroke:#000000;stroke-width:0.11212419" />
    <text
       xml:space="preserve"
       style="font-style:normal;font-weight:normal;font-size:86.16423798px;line-height:1.25;font-family:sans-serif;letter-spacing:0px;word-spacing:0px;fill:#000000;fill-opacity:1;stroke:none;stroke-width:2.1541059"
       x="191.49222"
       y="257.5578"
       id="text979"
       transform="matrix(1.515482,0.30323237,-0.99914118,0.45993819,0,0)"><tspan
         sodipodi:role="line"
         id="tspan977"
         x="191.49222"
         y="257.5578"
         style="font-style:normal;font-variant:normal;font-weight:normal;font-stretch:normal;font-family:'Mukti Narrow';-inkscape-font-specification:'Mukti Narrow';stroke-width:2.1541059">1</tspan></text>
    <path
       d="m 12.691785,169.29465 c -0.153949,3.00928 1.040099,4.37676 2.488787,6.42584 l 6.013616,3.53248 c 4.503113,1.59531 10.136617,4.24642 14.817708,5.44027 l 3.479998,0.91884 3.380563,0.74583 c 3.227449,0.73688 6.458875,1.42152 9.74399,1.9609 l 8.849134,1.47863 3.877706,0.4782 12.428552,1.33828 3.977139,0.27254 3.778281,0.23828 1.193141,0.0743 1.590857,0.0816 3.181707,0.0816 1.690292,0.0816 h 16.703974 l 1.19314,-0.0783 h 1.49142 l 1.29257,-0.0848 3.57943,-0.16322 h 0.89486 l 5.26971,-0.39414 c 6.02038,-0.47899 12.0378,-1.12446 17.99655,-2.00657 l 9.44568,-1.64512 6.76116,-1.46884 3.97713,-0.93353 2.28686,-0.65117 c 4.29927,-1.17589 7.51264,-2.57082 11.63197,-4.12289 1.63658,-0.49339 5.54936,-2.71788 7.34164,-4.83039 1.41655,-1.66961 2.13517,-3.11982 2.34964,-5.79086 0,-0.92455 0.0387,-1.36274 -0.27243,-2.28484 -0.92469,-2.73612 -4.10144,-5.11321 -6.88642,-6.63671 -6.76512,-3.70147 -16.17999,-6.17891 -24.06168,-7.79626 -5.97266,-1.22567 -12.00897,-2.16083 -18.09599,-2.90178 l -9.84341,-1.03961 -8.94856,-0.64628 -2.48569,-0.15586 -2.68458,-0.0816 -1.49143,-0.0816 h -1.19314 l -1.392,-0.0816 h -1.59085 l -1.49144,-0.0816 H 93.328251 l -1.590858,0.0816 h -1.590848 l -1.491433,0.0816 h -1.292565 l -1.292575,0.0816 -5.269705,0.23747 c -4.122303,0.23177 -8.222732,0.54755 -12.329126,0.96372 -5.066875,0.51328 -10.098952,1.12122 -15.113121,1.91602 l -4.871997,0.82989 -4.971419,0.93925 c -7.963225,1.71772 -15.911533,3.78389 -22.96797,7.33847 -2.425062,1.22158 -4.704957,2.80056 -6.296806,4.74842 -0.846134,1.03635 -1.544124,2.32566 -1.558043,3.59049 z m 82.227324,-16.96589 h 4.076559 3.480002 l 1.69029,0.0743 h 2.68456 l 1.19314,0.0783 h 1.49143 l 1.29257,0.0848 5.17028,0.23747 c 4.48919,0.25213 8.95152,0.59161 13.42282,1.04531 10.79099,1.09265 21.98265,2.71818 32.31425,5.54487 4.70596,1.28686 11.12008,3.37425 15.01371,5.85495 1.72009,1.09592 3.83296,2.71165 3.96817,4.61705 0.12231,1.73241 -1.86825,3.44197 -3.37161,4.45385 -3.05245,2.05309 -7.44818,3.77327 -11.13599,4.94589 l -2.28684,0.67158 c -5.567,1.70877 -11.48697,2.89525 -17.30056,3.88264 -4.69102,0.79724 -9.36914,1.46803 -14.11883,1.9813 -4.59559,0.49614 -9.20012,0.94821 -13.82055,1.20853 l -3.48,0.23745 h -0.89485 l -0.9943,0.0816 -2.58513,0.0816 -1.49143,0.0848 h -1.29255 l -1.19315,0.0783 h -2.38629 l -1.69028,0.0816 h -7.357718 l -1.491419,-0.0816 h -2.485708 l -1.690291,-0.0816 -3.082271,-0.0816 -1.292577,-0.0816 -5.866279,-0.31905 c -4.622425,-0.26114 -9.222982,-0.71159 -13.820551,-1.20854 -9.697259,-1.04778 -20.050741,-2.70673 -29.331392,-5.24538 -4.770578,-1.30482 -11.199616,-3.38076 -15.11312,-5.94064 -1.595829,-1.04368 -3.752431,-2.69696 -3.778283,-4.50445 -0.02684,-1.95107 1.840421,-3.47705 3.579425,-4.61864 3.818051,-2.50684 8.937625,-4.21721 13.522268,-5.55629 10.118834,-2.95565 21.182238,-4.69295 31.817102,-5.8419 l 8.948563,-0.86092 1.789706,-0.10939 3.579423,-0.23825 2.783999,-0.15587 1.690283,-0.0816 1.491433,-0.0816 2.883423,-0.0816 1.690283,-0.0816 z"
       id="Selection-7-8"
       inkscape:connector-curvature="0"
       style="fill:#000000;fill-opacity:1;stroke:#000000;stroke-width:0.09007534"
       sodipodi:nodetypes="cccccccccccccccccccccccccccccaccccccccccccccccccccccccccccccccccccccccccccccccccccccccccccccccccccccccccccccc" />
  </g>
  <g
     inkscape:groupmode="layer"
     id="layer2"
     inkscape:label="Layer 2" />
</svg>
