<?xml version="1.0" encoding="UTF-8" standalone="no"?>
<!-- Created with Inkscape (http://www.inkscape.org/) -->

<svg
   xmlns:dc="http://purl.org/dc/elements/1.1/"
   xmlns:cc="http://creativecommons.org/ns#"
   xmlns:rdf="http://www.w3.org/1999/02/22-rdf-syntax-ns#"
   xmlns:svg="http://www.w3.org/2000/svg"
   xmlns="http://www.w3.org/2000/svg"
   xmlns:sodipodi="http://sodipodi.sourceforge.net/DTD/sodipodi-0.dtd"
   xmlns:inkscape="http://www.inkscape.org/namespaces/inkscape"
   width="100mm"
   height="100mm"
   viewBox="0 0 100 100"
   version="1.1"
   id="svg8"
   inkscape:version="0.92.5 (2060ec1f9f, 2020-04-08)"
   sodipodi:docname="percent.svg">
  <defs
     id="defs2" />
  <sodipodi:namedview
     id="base"
     pagecolor="#ffffff"
     bordercolor="#666666"
     borderopacity="1.0"
     inkscape:pageopacity="0.0"
     inkscape:pageshadow="2"
     inkscape:zoom="0.7"
     inkscape:cx="-120.58352"
     inkscape:cy="207.63718"
     inkscape:document-units="mm"
     inkscape:current-layer="layer1"
     showgrid="false"
     inkscape:window-width="1647"
     inkscape:window-height="1068"
     inkscape:window-x="122"
     inkscape:window-y="50"
     inkscape:window-maximized="0" />
  <metadata
     id="metadata5">
    <rdf:RDF>
      <cc:Work
         rdf:about="">
        <dc:format>image/svg+xml</dc:format>
        <dc:type
           rdf:resource="http://purl.org/dc/dcmitype/StillImage" />
        <dc:title></dc:title>
      </cc:Work>
    </rdf:RDF>
  </metadata>
  <g
     inkscape:label="Layer 1"
     inkscape:groupmode="layer"
     id="layer1"
     transform="translate(0,-197)">
    <text
       xml:space="preserve"
       style="font-style:normal;font-weight:normal;font-size:14.97885323px;line-height:1.25;font-family:sans-serif;letter-spacing:0px;word-spacing:0px;fill:#000000;fill-opacity:1;stroke:none;stroke-width:0.37447134"
       x="19.927242"
       y="269.58511"
       id="text12"><tspan
         sodipodi:role="line"
         id="tspan10"
         x="19.927242"
         y="269.58511"
         style="font-style:normal;font-variant:normal;font-weight:normal;font-stretch:normal;font-size:71.89812469px;font-family:'Liberation Serif';-inkscape-font-specification:'Liberation Serif, Normal';font-variant-ligatures:normal;font-variant-caps:normal;font-variant-numeric:normal;font-feature-settings:normal;text-align:start;writing-mode:lr-tb;text-anchor:start;stroke-width:0.37447134">%</tspan></text>
    <path
       d="m 11.636559,197.83493 c 0,0 -1.048325,0.1153 -1.048325,0.1153 -1.0619535,0.10174 -2.3943731,0.48957 -3.3546383,0.95293 -0.9330089,0.45077 -1.6217582,0.86592 -2.4111473,1.54523 -1.7947319,1.54314 -3.0925573,3.74147 -3.5318054,6.08029 -0.31344933,1.67103 -0.2421635,3.83581 -0.2421635,5.55612 0,0 0,7.1286 0,7.1286 0,0 0,64.99613 0,64.99613 0,0 0.095403,1.25799 0.095403,1.25799 0.1153139,1.67417 0.3815897,2.88184 1.1426729,4.40297 0.5639986,1.128 1.3366147,2.05052 2.2214005,2.93531 0,0 1.2579896,1.20976 1.2579896,1.20976 1.6783685,1.37541 4.2048311,2.43316 6.3947805,2.45937 0,0 9.225258,0 9.225258,0 0,0 18.240848,0 18.240848,0 0,0 49.585757,0 49.585757,0 1.20557,-10e-4 2.439448,-0.2778 3.564302,-0.70028 1.0326,-0.38788 1.844003,-0.82084 2.725644,-1.49071 2.554766,-1.93941 4.188057,-5.17874 4.193298,-8.39709 0,0 0,-3.14497 0,-3.14497 0,0 0,-6.08028 0,-6.08028 0,0 0,-67.30244 0,-67.30244 -0.0052,-3.17014 -1.358629,-5.7616 -3.564303,-7.96727 -0.879546,-0.87956 -1.723445,-1.6008 -2.830477,-2.18891 -1.673125,-0.88794 -2.857736,-1.1521 -4.717459,-1.28 0,0 -1.048329,-0.088 -1.048329,-0.088 0,0 -16.563524,0 -16.563524,0 0,0 -33.127061,0 -33.127061,0 0,0 -17.402188,0 -17.402188,0 0,0 -5.660954,0 -5.660954,0 0,0 -3.144973,0 -3.144973,0 z m -0.83866,0.9435 c 0,0 8.805927,0 8.805927,0 0,0 17.192524,0 17.192524,0 0,0 51.682402,0 51.682402,0 1.198237,-0.006 2.355586,0.26941 3.459471,0.72753 3.852594,1.59765 6.032063,5.22905 6.080286,9.32904 0,0 0,21.38582 0,21.38582 0,0 0,38.47352 0,38.47352 0,0 -0.104833,1.57249 -0.104833,1.57249 0,0 0,15.09587 0,15.09587 -0.002,1.10179 -0.286192,2.34196 -0.720197,3.35464 -0.345949,0.80616 -0.798824,1.61757 -1.341856,2.30632 -1.675222,2.12705 -4.532955,3.66495 -7.268033,3.66913 0,0 -3.459472,0 -3.459472,0 0,0 -7.023777,0 -7.023777,0 0,0 -66.778278,0 -66.778278,0 -1.040986,-10e-4 -1.9645611,-0.2191 -2.9353082,-0.58497 -3.7676792,-1.41733 -6.3884919,-5.0005 -6.3947816,-9.05962 0,0 0,-42.45715 0,-42.45715 0,0 0,-34.28021 0,-34.28021 0.00204,-1.41524 0.3941705,-2.82733 1.0221158,-4.08846 1.6238558,-3.25506 4.2509581,-4.90302 7.78381,-5.44395 z m 9.120425,10.79984 c -1.021068,0.18974 -1.796828,0.38053 -2.725645,0.85648 -0.764229,0.39102 -1.269521,0.73383 -1.886985,1.33661 -1.617564,1.57983 -2.924825,4.09266 -2.935308,6.39373 0,0 0,7.65277 0,7.65277 0,0 0,50.73892 0,50.73892 10e-4,0.94768 0.16878,1.73183 0.491665,2.62081 0.217003,0.59439 0.620607,1.37749 0.992763,1.88698 1.464509,2.00859 3.892428,3.24561 6.378007,3.24981 0,0 2.411147,0 2.411147,0 0,0 5.136791,0 5.136791,0 0,0 51.996902,0 51.996902,0 0.975989,-0.001 1.814646,-0.18451 2.72564,-0.53045 0.701333,-0.26628 1.394273,-0.63948 1.991821,-1.09445 1.823035,-1.39008 3.036997,-3.61043 3.040138,-5.92303 0,0 0,-2.51599 0,-2.51599 0,0 0,-5.13678 0,-5.13678 0,0 0,-51.05342 0,-51.05342 -0.002,-1.50329 -0.431908,-2.69105 -1.16888,-3.98363 -0.445538,-0.77995 -0.926721,-1.55257 -1.566199,-2.19206 -1.284195,-1.28419 -3.507691,-2.29372 -5.337017,-2.3063 0,0 -12.999227,0 -12.999227,0 0,0 -25.893618,0 -25.893618,0 0,0 -13.628221,0 -13.628221,0 0,0 -7.023774,0 -7.023774,0 z m 0.209665,0.52207 c 0,0 6.709277,0 6.709277,0 0,0 13.104058,0 13.104058,0 0,0 39.102507,0 39.102507,0 0.934057,-0.006 1.739171,0.14051 2.620814,0.44762 0.626895,0.2191 1.239118,0.54828 1.782149,0.92987 1.860779,1.30831 3.141832,3.55382 3.144974,5.84861 0,0 0,2.62081 0,2.62081 0,0 0,5.24162 0,5.24162 0,0 0,50.84374 0,50.84374 -0.0012,0.90995 -0.162488,1.77796 -0.509483,2.62082 -0.339658,0.82398 -0.534648,1.17202 -1.076629,1.88698 -1.332424,1.75804 -3.552773,2.82734 -5.752159,2.83048 0,0 -2.411146,0 -2.411146,0 0,0 -5.346456,0 -5.346456,0 0,0 -50.843745,0 -50.843745,0 -4.191202,-0.006 -7.331982,-3.55802 -7.338272,-7.65276 0,0 0,-35.64305 0,-35.64305 0,0 0,-22.43416 0,-22.43416 0.0052,-3.20995 2.000204,-6.04149 5.031959,-7.11917 0.55666,-0.19813 1.198235,-0.30925 1.782152,-0.42141 z"
       id="Selection"
       inkscape:connector-curvature="0"
       style="fill:#000000;stroke:#000000;stroke-width:0.10483246" />
  </g>
</svg>
