<?xml version="1.0" encoding="UTF-8" standalone="no"?>
<!-- Created with Inkscape (http://www.inkscape.org/) -->

<svg
   xmlns:dc="http://purl.org/dc/elements/1.1/"
   xmlns:cc="http://creativecommons.org/ns#"
   xmlns:rdf="http://www.w3.org/1999/02/22-rdf-syntax-ns#"
   xmlns:svg="http://www.w3.org/2000/svg"
   xmlns="http://www.w3.org/2000/svg"
   xmlns:sodipodi="http://sodipodi.sourceforge.net/DTD/sodipodi-0.dtd"
   xmlns:inkscape="http://www.inkscape.org/namespaces/inkscape"
   width="100mm"
   height="100mm"
   viewBox="0 0 100 100"
   version="1.1"
   id="svg8"
   sodipodi:docname="power.svg"
   inkscape:version="0.92.5 (2060ec1f9f, 2020-04-08)">
  <defs
     id="defs2" />
  <sodipodi:namedview
     id="base"
     pagecolor="#ffffff"
     bordercolor="#666666"
     borderopacity="1.0"
     inkscape:pageopacity="0.0"
     inkscape:pageshadow="2"
     inkscape:zoom="0.7"
     inkscape:cx="-120.58352"
     inkscape:cy="207.63718"
     inkscape:document-units="mm"
     inkscape:current-layer="layer1"
     showgrid="false"
     inkscape:window-width="1647"
     inkscape:window-height="1068"
     inkscape:window-x="122"
     inkscape:window-y="50"
     inkscape:window-maximized="0" />
  <metadata
     id="metadata5">
    <rdf:RDF>
      <cc:Work
         rdf:about="">
        <dc:format>image/svg+xml</dc:format>
        <dc:type
           rdf:resource="http://purl.org/dc/dcmitype/StillImage" />
        <dc:title></dc:title>
      </cc:Work>
    </rdf:RDF>
  </metadata>
  <g
     inkscape:label="Layer 1"
     inkscape:groupmode="layer"
     id="layer1"
     transform="translate(0,-197)">
    <path
       d="m 48.375073,198.00093 c -0.36274,0.0521 -0.702138,0.0374 -1.066886,0.0388 0,0 -0.733484,0.0608 -0.733484,0.0608 0,0 -1.333606,0.0839 -1.333606,0.0839 -3.132638,0.29874 -6.596,0.99354 -9.601942,1.92372 -13.274046,4.1102 -24.228921,13.38939 -30.0521146,26.07065 -1.8010386,3.92145 -3.083945,7.95694 -3.8494443,12.20247 -0.3160553,1.75165 -0.5227616,3.49469 -0.6447996,5.26772 0,0 -0.063306,0.66681 -0.063306,0.66681 0,0 0,0.93352 0,0.93352 0,0 -0.0638636,0.80017 -0.0638636,0.80017 0,0 0,1.53364 0,1.53364 0,0 0.0638636,0.80017 0.0638636,0.80017 0,0 0,0.86682 0,0.86682 0,0 0.063306,0.80019 0.063306,0.80019 0.1399978,2.03906 0.4007513,4.05615 0.7801683,6.06788 0,0 0.8648365,3.60074 0.8648365,3.60074 2.0530908,7.3835 5.757824,14.30891 10.9082177,20.00407 0,0 0.649458,0.66681 0.649458,0.66681 0,0 1.472963,1.53097 1.472963,1.53097 4.891677,4.67894 10.129388,7.95493 16.403337,10.44477 2.973285,1.18025 6.056561,2.02178 9.20186,2.58854 0,0 3.93414,0.5721 3.93414,0.5721 0,0 0.533443,0 0.533443,0 0,0 1.466967,0.13609 1.466967,0.13609 0,0 0.866845,0 0.866845,0 0,0 0.800164,0.0641 0.800164,0.0641 0,0 1.800369,0 1.800369,0 0,0 1.000205,-0.0667 1.000205,-0.0667 3.878113,-0.0452 8.481706,-0.93955 12.202475,-2.04843 2.684532,-0.80016 5.299066,-1.88504 7.801573,-3.13596 9.540615,-4.77033 16.917425,-12.14781 21.687732,-21.68776 0.878195,-1.75633 1.678359,-3.55004 2.337828,-5.40108 1.160896,-3.26067 2.013741,-6.63602 2.465165,-10.0687 0,0 0.23677,-1.8004 0.23677,-1.8004 0.184061,-1.92837 0.214738,-3.86277 0.211391,-5.80116 0,0 -0.06386,-0.80016 -0.06386,-0.80016 0,0 0,-0.73349 0,-0.73349 0,0 -0.06331,-0.6668 -0.06331,-0.6668 0,0 -0.08394,-1.33361 -0.08394,-1.33361 0,0 -0.23677,-1.80037 -0.23677,-1.80037 -0.298068,-2.26378 -0.779499,-4.46956 -1.390973,-6.668 C 94.735427,226.00151 90.6486,218.76272 85.11349,212.9762 79.292276,206.88963 71.480692,202.23004 63.378403,199.92623 c -2.71256,-0.77082 -4.806311,-1.20691 -7.601559,-1.57166 0,0 -2.667214,-0.25406 -2.667214,-0.25406 0,0 -0.666803,-0.0605 -0.666803,-0.0605 -1.0902,-0.0139 -3.067268,-0.1598 -4.067473,-0.0388 z m 1.000205,2.52451 c 0,0 1.600328,0.048 1.600328,0.048 0,0 2.533825,0.13358 2.533825,0.13358 0,0 0.533443,0 0.533443,0 2.968628,0.29405 5.802529,0.8715 8.668445,1.68634 6.990755,1.98775 13.490736,5.69452 18.803801,10.6435 0,0 1.664359,1.60633 1.664359,1.60633 5.396423,5.64181 9.308559,12.60456 11.348292,20.13743 0.691484,2.55382 1.19425,5.16571 1.456955,7.80157 0,0 0,0.53345 0,0.53345 0,0 0.133305,1.46694 0.133305,1.46694 0,0 0.06665,2.60053 0.06665,2.60053 0,0 -0.06665,1.00023 -0.06665,1.00023 -0.05661,4.86831 -1.081554,9.75463 -2.713201,14.33625 -2.775224,7.7929 -7.699558,14.84632 -14.090189,20.09672 -3.199318,2.62786 -6.768041,4.76364 -10.535495,6.46197 -1.768353,0.79751 -3.607376,1.51167 -5.46776,2.06578 -2.586534,0.77082 -5.193732,1.31827 -7.868281,1.66701 0,0 -2.733866,0.25406 -2.733866,0.25406 0,0 -0.800164,0.0605 -0.800164,0.0605 0,0 -0.933525,0 -0.933525,0 0,0 -0.866844,0.0667 -0.866844,0.0667 0,0 -1.400287,-0.0667 -1.400287,-0.0667 0,0 -1.066886,0 -1.066886,0 0,0 -0.666803,-0.0605 -0.666803,-0.0605 0,0 -2.800575,-0.26271 -2.800575,-0.26271 -3.658076,-0.43742 -7.646877,-1.4463 -11.068909,-2.81056 -5.965199,-2.37849 -11.192928,-5.63785 -15.803214,-10.13608 0,0 -1.069535,-1.1329 -1.069535,-1.1329 C 10.535999,272.767 6.4485025,264.96476 4.6714755,256.91847 4.282716,255.15879 3.9566488,253.37839 3.7773007,251.58404 c 0,0 -0.089242,-1.20022 -0.089242,-1.20022 0,0 -0.1221497,-1.46699 -0.1221497,-1.46699 0,0 0,-1.33358 0,-1.33358 0,0 -0.061354,-0.73349 -0.061354,-0.73349 0,0 0.061354,-0.86684 0.061354,-0.86684 0,0 0.2113915,-3.86746 0.2113915,-3.86746 0.5954379,-5.95589 2.521164,-11.91975 5.3084079,-17.2035 6.1165766,-11.59368 16.8227456,-19.63866 29.4206456,-22.94599 2.343796,-0.61546 4.790973,-1.01822 7.201449,-1.2476 0,0 2.133771,-0.14474 2.133771,-0.14474 0.511439,-7.5e-4 1.026197,0.0251 1.533648,-0.048 z m 0.06665,22.61392 c -0.531434,0.0806 -0.907533,0.17012 -1.400287,0.40477 -1.327611,0.63345 -2.131763,2.05507 -2.133771,3.50137 0,0 0,1.13357 0,1.13357 0,0 0,2.13377 0,2.13377 0,0 0,22.07114 0,22.07114 7.53e-4,0.56479 0.09064,1.01354 0.314745,1.53362 0.209439,0.48679 0.501427,0.94953 0.891497,1.31428 1.955734,1.82837 5.119048,1.24292 6.276626,-1.18089 0.26661,-0.55879 0.384743,-1.1836 0.385413,-1.80037 0,0 0,-16.2033 0,-16.2033 0,0 0,-9.00182 0,-9.00182 -0.02789,-2.28313 -2.028438,-4.18753 -4.334223,-3.90614 z m 15.469812,6.40397 c -0.399413,0.0867 -0.765499,0.18322 -1.133566,0.36742 -1.164242,0.58211 -2.117763,1.87372 -2.133771,3.20264 -0.0084,0.65012 -0.01952,1.03688 0.206093,1.66701 0.321382,0.89487 1.1969,1.79571 1.766346,2.60053 0.584115,0.82549 1.202254,1.93571 1.599659,2.86726 2.403839,5.63246 1.619682,11.86505 -2.097098,16.73673 -1.243585,1.629 -2.917258,3.11928 -4.6756,4.17418 -2.248447,1.34891 -4.594279,2.10108 -7.201477,2.35782 0,0 -0.666776,0 -0.666776,0 0,0 -0.666831,0.0694 -0.666831,0.0694 0,0 -0.866817,-0.0641 -0.866817,-0.0641 -6.152607,-0.26801 -11.717055,-4.1155 -14.343608,-9.67127 -1.190235,-2.51785 -1.624982,-4.90233 -1.592994,-7.66824 0,0 0.0608,-0.66681 0.0608,-0.66681 0.17932,-2.4525 0.97954,-4.889 2.236455,-7.00143 0,0 1.028205,-1.53362 1.028205,-1.53362 0.806829,-1.07489 1.575675,-1.90439 1.608332,-3.33402 0.06805,-2.99462 -3.15863,-4.98502 -5.800521,-3.5794 -0.744137,0.39609 -1.221553,0.99953 -1.733689,1.64567 -0.906836,1.14422 -1.685666,2.38449 -2.379799,3.66742 -0.61747,1.14087 -1.144219,2.43647 -1.554313,3.66739 -1.953057,5.8592 -1.656998,12.15582 0.857502,17.80362 1.163573,2.61387 2.65921,4.77899 4.604262,6.86808 0,0 0.540108,0.59745 0.540108,0.59745 2.720564,2.66654 6.09725,4.72962 9.734661,5.87185 1.835703,0.57678 3.686076,0.93821 5.601149,1.12955 0,0 0.600123,0 0.600123,0 0,0 0.666803,0.0694 0.666803,0.0694 3.087961,0.036 6.150572,-0.40742 9.068499,-1.44631 6.707357,-2.38914 12.065099,-7.70421 14.574968,-14.35691 0.829502,-2.20045 1.339603,-4.52492 1.500963,-6.86805 0,0 0.06052,-0.80016 0.06052,-0.80016 0,0 0,-2.33381 0,-2.33381 0,0 -0.06052,-0.66681 -0.06052,-0.66681 -0.06805,-0.99086 -0.197447,-1.95841 -0.392748,-2.93393 -0.65813,-3.28934 -2.005067,-6.53331 -3.956813,-9.26854 -0.534781,-0.74882 -1.402936,-1.95041 -2.124428,-2.48318 -0.827495,-0.61145 -1.925057,-0.82549 -2.933935,-0.6868 z"
       id="Selection-9"
       inkscape:connector-curvature="0"
       style="fill:#000000;stroke:#000000;stroke-width:0.06668023" />
  </g>
</svg>
