<?xml version="1.0" encoding="UTF-8" standalone="no"?>
<!-- Created with Inkscape (http://www.inkscape.org/) -->

<svg
   xmlns:dc="http://purl.org/dc/elements/1.1/"
   xmlns:cc="http://creativecommons.org/ns#"
   xmlns:rdf="http://www.w3.org/1999/02/22-rdf-syntax-ns#"
   xmlns:svg="http://www.w3.org/2000/svg"
   xmlns="http://www.w3.org/2000/svg"
   xmlns:sodipodi="http://sodipodi.sourceforge.net/DTD/sodipodi-0.dtd"
   xmlns:inkscape="http://www.inkscape.org/namespaces/inkscape"
   width="210mm"
   height="210mm"
   viewBox="0 0 210 210"
   version="1.1"
   id="svg3915"
   inkscape:version="0.92.5 (2060ec1f9f, 2020-04-08)"
   sodipodi:docname="price.svg">
  <defs
     id="defs3909" />
  <sodipodi:namedview
     id="base"
     pagecolor="#ffffff"
     bordercolor="#666666"
     borderopacity="1.0"
     inkscape:pageopacity="0.0"
     inkscape:pageshadow="2"
     inkscape:zoom="0.98994949"
     inkscape:cx="515.90626"
     inkscape:cy="350.71279"
     inkscape:document-units="mm"
     inkscape:current-layer="layer1"
     showgrid="false"
     inkscape:snap-to-guides="false"
     inkscape:snap-center="true"
     inkscape:snap-object-midpoints="true"
     inkscape:snap-text-baseline="true"
     inkscape:window-width="3368"
     inkscape:window-height="1403"
     inkscape:window-x="72"
     inkscape:window-y="0"
     inkscape:window-maximized="1" />
  <metadata
     id="metadata3912">
    <rdf:RDF>
      <cc:Work
         rdf:about="">
        <dc:format>image/svg+xml</dc:format>
        <dc:type
           rdf:resource="http://purl.org/dc/dcmitype/StillImage" />
        <dc:title></dc:title>
      </cc:Work>
    </rdf:RDF>
  </metadata>
  <g
     inkscape:label="Layer 1"
     inkscape:groupmode="layer"
     id="layer1"
     transform="translate(0,-87)">
    <g
       id="g4080"
       transform="translate(15.234363,-41.694046)">
      <text
         id="text3923"
         y="193.03215"
         x="33.141418"
         style="font-style:normal;font-variant:normal;font-weight:normal;font-stretch:normal;font-size:10.58333302px;line-height:1.25;font-family:'Tibetan Machine Uni';-inkscape-font-specification:'Tibetan Machine Uni, Normal';font-variant-ligatures:normal;font-variant-caps:normal;font-variant-numeric:normal;font-feature-settings:normal;text-align:start;letter-spacing:0px;word-spacing:0px;writing-mode:lr-tb;text-anchor:start;fill:#000000;fill-opacity:1;stroke:none;stroke-width:0.26458332"
         xml:space="preserve"><tspan
           style="font-style:normal;font-variant:normal;font-weight:normal;font-stretch:normal;font-size:50.79999924px;font-family:'Tibetan Machine Uni';-inkscape-font-specification:'Tibetan Machine Uni, Normal';font-variant-ligatures:normal;font-variant-caps:normal;font-variant-numeric:normal;font-feature-settings:normal;text-align:start;writing-mode:lr-tb;text-anchor:start;stroke-width:0.26458332"
           y="193.03215"
           x="33.141418"
           id="tspan3921"
           sodipodi:role="line">$</tspan></text>
      <path
         inkscape:connector-curvature="0"
         id="path3994-0"
         d="M 40.32539,212.97489 C 24.11973,210.1195 11.4885,198.27449 8.1286094,182.78217 c -0.23911,-1.10249 -0.4938,-3.80859 -0.56599,-6.01356 -0.21106,-6.44632 0.8393,-11.36278 3.6641806,-17.15118 5.38805,-11.04054 16.16903,-18.98573 28.99698,-21.36976 3.71277,-0.69 10.98705,-0.69 14.69982,0 8.42251,1.56529 15.80679,5.40081 21.65956,11.25035 5.4637,5.46066 8.67843,11.25441 10.32381,18.60603 0.82348,3.67937 0.89131,10.87512 0.13584,14.41085 -1.65516,7.74642 -5.12665,14.02515 -10.81244,19.55597 -5.99033,5.82705 -13.24299,9.48849 -21.63785,10.92367 -4.05117,0.69258 -10.27353,0.68401 -14.26713,-0.0197 z m 14.79703,-5.06673 c 13.8571,-2.91325 24.57884,-13.6505 26.95786,-26.99688 0.513,-2.87791 0.44959,-8.45343 -0.12765,-11.22532 -1.40196,-6.73209 -4.21336,-11.86554 -9.22741,-16.84872 -6.83741,-6.7953 -15.27509,-10.22579 -25.15153,-10.22579 -9.53831,0 -17.94094,3.28553 -24.59357,9.61637 -5.2887,5.03288 -8.69336,11.21326 -9.91187,17.99268 -0.51689,2.8758 -0.45049,8.7124 0.13012,11.43809 1.33808,6.28165 4.28789,11.83425 8.65542,16.29264 5.80163,5.9223 13.15473,9.46513 21.97813,10.58937 2.13867,0.2725 8.74673,-0.0976 11.2905,-0.63244 z"
         style="fill:#000000;stroke-width:0.26726952" />
    </g>
    <g
       id="g4085"
       transform="translate(0.80180857,70.559156)">
      <text
         id="text3923-3"
         y="192.80525"
         x="141.94115"
         style="font-style:normal;font-variant:normal;font-weight:normal;font-stretch:normal;font-size:10.58333302px;line-height:1.25;font-family:'Tibetan Machine Uni';-inkscape-font-specification:'Tibetan Machine Uni, Normal';font-variant-ligatures:normal;font-variant-caps:normal;font-variant-numeric:normal;font-feature-settings:normal;text-align:start;letter-spacing:0px;word-spacing:0px;writing-mode:lr-tb;text-anchor:start;fill:#000000;fill-opacity:1;stroke:none;stroke-width:0.26458332"
         xml:space="preserve"><tspan
           style="font-style:normal;font-variant:normal;font-weight:normal;font-stretch:normal;font-size:50.79999924px;font-family:'Tibetan Machine Uni';-inkscape-font-specification:'Tibetan Machine Uni, Normal';font-variant-ligatures:normal;font-variant-caps:normal;font-variant-numeric:normal;font-feature-settings:normal;text-align:start;writing-mode:lr-tb;text-anchor:start;stroke-width:0.26458332"
           y="192.80525"
           x="141.94115"
           id="tspan3921-4"
           sodipodi:role="line">$</tspan></text>
      <path
         inkscape:connector-curvature="0"
         id="path3994-0-1"
         d="m 149.12512,212.74799 c -16.20566,-2.85539 -28.83689,-14.7004 -32.19678,-30.19272 -0.23911,-1.10249 -0.4938,-3.80859 -0.56599,-6.01356 -0.21106,-6.44632 0.8393,-11.36278 3.66418,-17.15118 5.38805,-11.04054 16.16903,-18.98573 28.99698,-21.36976 3.71277,-0.69 10.98705,-0.69 14.69982,0 8.42251,1.56529 15.80679,5.40081 21.65956,11.25035 5.4637,5.46066 8.67843,11.25441 10.32381,18.60603 0.82348,3.67937 0.89131,10.87512 0.13584,14.41085 -1.65515,7.74642 -5.12664,14.02515 -10.81243,19.55597 -5.99033,5.82705 -13.243,9.48849 -21.63786,10.92367 -4.05117,0.69258 -10.27353,0.68401 -14.26713,-0.0197 z m 14.79704,-5.06673 c 13.8571,-2.91325 24.57883,-13.6505 26.95785,-26.99688 0.513,-2.87791 0.44959,-8.45343 -0.12765,-11.22532 -1.40195,-6.73209 -4.21336,-11.86554 -9.22741,-16.84872 -6.83741,-6.7953 -15.27509,-10.22579 -25.15153,-10.22579 -9.53831,0 -17.94094,3.28553 -24.59357,9.61637 -5.2887,5.03288 -8.69336,11.21326 -9.91187,17.99268 -0.51689,2.8758 -0.45049,8.7124 0.13012,11.43809 1.33808,6.28165 4.28789,11.83425 8.65542,16.29264 5.80163,5.9223 13.15473,9.46513 21.97813,10.58937 2.13867,0.2725 8.74674,-0.0976 11.29051,-0.63244 z"
         style="fill:#000000;stroke-width:0.26726952" />
    </g>
    <path
       style="fill:#000000;stroke-width:0.26726952"
       d="m 152.05055,203.03645 c -1.51012,-0.53964 -2.64919,-1.34295 -4.28754,-3.02369 -2.39459,-2.45654 -28.5121,-33.45291 -29.65004,-35.1888 -1.66649,-2.54215 -2.17042,-4.18077 -2.31496,-7.5276 -0.14182,-3.28371 0.23866,-5.35413 1.43805,-7.82527 0.96731,-1.99298 3.22289,-4.33169 5.09026,-5.27786 l 1.55876,-0.7898 7.28309,-0.0789 7.2831,-0.0789 0.009,-14.75456 c 0.0102,-16.20694 0.0759,-17.07436 1.58816,-20.98428 4.35646,-11.263463 16.32028,-15.032773 25.18049,-7.933348 2.8073,2.249418 4.95268,5.642318 6.28594,9.941128 l 0.72917,2.35106 0.14189,15.63527 0.1419,15.63526 7.21627,0.13364 c 7.21111,0.13354 7.21736,0.13416 8.71553,0.86991 2.78003,1.36527 5.28738,4.73346 6.26497,8.41586 0.22465,0.84626 0.41767,2.63265 0.42889,3.96978 0.0312,3.71034 -0.92388,6.46371 -3.28716,9.47651 -3.18683,4.0627 -28.72131,34.02522 -29.89953,35.08453 -1.88027,1.69052 -3.69259,2.32208 -6.62107,2.30732 -1.28072,-0.006 -2.76369,-0.16721 -3.29549,-0.35725 z m 4.29618,-13.12213 c 0.42001,-0.2172 2.7894,-2.64894 5.2653,-5.40387 2.47589,-2.75493 8.27762,-9.16207 12.89272,-14.2381 4.61513,-5.07603 8.61679,-9.58995 8.89259,-10.03094 0.33923,-0.54234 0.47797,-1.18896 0.42881,-1.99816 -0.11321,-1.86299 -0.13837,-1.86787 -9.69441,-1.87918 -7.47821,-0.009 -8.38949,-0.0579 -9.35442,-0.50322 -1.34864,-0.62244 -2.0827,-1.4197 -2.86009,-3.10632 l -0.61442,-1.33302 -0.13364,-18.70887 c -0.12346,-17.28337 -0.17034,-18.79032 -0.61553,-19.77794 -2.16218,-4.79673 -8.09961,-4.71981 -10.3162,0.13363 -0.37414,0.81922 -0.44382,3.25997 -0.56085,19.64431 l -0.13364,18.70887 -0.80181,1.60362 c -0.55557,1.11115 -1.15752,1.84985 -1.96011,2.40542 l -1.1583,0.80181 -8.89072,0.13364 c -6.9902,0.10507 -8.98506,0.21204 -9.33203,0.50044 -0.58574,0.48687 -0.57852,2.38797 0.0123,3.24868 0.97223,1.41624 26.65555,29.82103 27.14081,30.01673 0.59,0.23793 1.01175,0.18678 1.79359,-0.21753 z"
       id="path4060"
       inkscape:connector-curvature="0" />
    <path
       style="fill:#000000;stroke-width:0.26726952"
       d="m 57.775248,176.6117 c -1.51012,0.53964 -2.64919,1.34295 -4.28754,3.02369 -2.3946,2.45654 -28.5121,33.45291 -29.65004,35.1888 -1.66649,2.54215 -2.17042,4.18077 -2.31496,7.5276 -0.14182,3.28371 0.23866,5.35413 1.43805,7.82527 0.96731,1.99298 3.22289,4.33169 5.09026,5.27786 l 1.55876,0.7898 7.28309,0.0789 7.2831,0.0789 0.009,14.75456 c 0.0102,16.20694 0.0759,17.07436 1.58815,20.98428 4.35647,11.26346 16.32028,15.03277 25.18049,7.93334 2.80731,-2.24941 4.95268,-5.64231 6.28595,-9.94112 l 0.72916,-2.35106 0.14189,-15.63527 0.14191,-15.63526 7.21627,-0.13364 c 7.21111,-0.13354 7.21736,-0.13416 8.71552,-0.86991 2.78003,-1.36527 5.28738,-4.73346 6.264982,-8.41586 0.22464,-0.84626 0.41767,-2.63265 0.42888,-3.96978 0.0312,-3.71034 -0.923882,-6.46371 -3.287152,-9.47651 -3.18683,-4.0627 -28.72131,-34.02522 -29.89954,-35.08453 -1.88026,-1.69052 -3.69258,-2.32208 -6.62107,-2.30732 -1.28071,0.006 -2.76369,0.16721 -3.29548,0.35725 z m 4.29618,13.12213 c 0.42001,0.2172 2.78939,2.64894 5.2653,5.40387 2.47589,2.75493 8.27762,9.16207 12.89272,14.2381 4.61513,5.07603 8.61679,9.58995 8.89259,10.03094 0.33923,0.54234 0.47797,1.18896 0.42881,1.99816 -0.11321,1.86299 -0.13837,1.86787 -9.69441,1.87918 -7.47822,0.009 -8.38949,0.0579 -9.35442,0.50322 -1.34865,0.62244 -2.08271,1.4197 -2.86009,3.10632 l -0.61442,1.33302 -0.13365,18.70887 c -0.12346,17.28337 -0.17033,18.79032 -0.61552,19.77794 -2.16218,4.79673 -8.09961,4.71981 -10.3162,-0.13363 -0.37414,-0.81922 -0.44382,-3.25997 -0.56085,-19.64431 l -0.13364,-18.70887 -0.80181,-1.60362 c -0.55557,-1.11115 -1.15753,-1.84985 -1.96011,-2.40542 l -1.1583,-0.80181 -8.89072,-0.13364 c -6.9902,-0.10507 -8.98506,-0.21204 -9.33203,-0.50044 -0.58574,-0.48687 -0.57852,-2.38797 0.0123,-3.24868 0.97223,-1.41624 26.65554,-29.82103 27.14081,-30.01673 0.59,-0.23793 1.01174,-0.18678 1.79358,0.21753 z"
       id="path4060-2"
       inkscape:connector-curvature="0" />
  </g>
</svg>
